<svg xmlns="http://www.w3.org/2000/svg" width="44" height="44" viewBox="0 0 44 44"><g transform="translate(0-1008)" color-rendering="auto" color-interpolation-filters="linearRGB" shape-rendering="auto" image-rendering="auto" fill-rule="evenodd" color-interpolation="sRGB" color="#000000"><path mix-blend-mode="normal" solid-color="#000000" fill-opacity=".12" isolation="auto" solid-opacity="1" fill="#008000" d="m0 1008h44v44h-44z"/><g fill="#228b22" fill-opacity=".3" transform="matrix(-.87.5-.5-.87 0 0)"><path d="m514.20097-905.04639a3.8 3.8 0 0 1 -3.14014 3.74227 3.8 3.8 0 0 1 -4.23069 -2.44259 3.8 3.8 0 0 1 1.67083 -4.59057"/><path d="m499.52592-915.82843a3.8 3.8 0 0 1 -3.14014 3.74227 3.8 3.8 0 0 1 -4.23069 -2.44259 3.8 3.8 0 0 1 1.67083 -4.59058"/><path d="m509.95262-892.4881a3.8 3.8 0 0 1 -3.14014 3.74227 3.8 3.8 0 0 1 -4.23069 -2.44259 3.8 3.8 0 0 1 1.67083 -4.59057"/><path d="m501.67469-905.35022a3.8 3.8 0 0 1 -3.14013 3.74227 3.8 3.8 0 0 1 -4.2307 -2.44259 3.8 3.8 0 0 1 1.67083 -4.59058"/><path d="m492.73024-896.6579a3.8 3.8 0 0 1 -3.14014 3.74227 3.8 3.8 0 0 1 -4.2307 -2.44259 3.8 3.8 0 0 1 1.67084 -4.59057"/><path d="m487.56993-907.72009a3.8 3.8 0 0 1 -3.14014 3.74227 3.8 3.8 0 0 1 -4.23069 -2.4426 3.8 3.8 0 0 1 1.67083 -4.59057"/><path d="m500.51634-887.54382a3.8 3.8 0 0 1 -3.14014 3.74227 3.8 3.8 0 0 1 -4.23069 -2.4426 3.8 3.8 0 0 1 1.67083 -4.59057"/><path d="m513.22728-881.35986a3.8 3.8 0 0 1 -3.14014 3.74227 3.8 3.8 0 0 1 -4.2307 -2.4426 3.8 3.8 0 0 1 1.67084 -4.59057"/><path d="m475.12211-903.35986a3.8 3.8 0 0 1 -3.14013 3.74227 3.8 3.8 0 0 1 -4.2307 -2.4426 3.8 3.8 0 0 1 1.67083 -4.59057"/><path d="m480.30201-891.13159a3.8 3.8 0 0 1 -3.14013 3.74227 3.8 3.8 0 0 1 -4.2307 -2.4426 3.8 3.8 0 0 1 1.67083 -4.59057"/><path d="m502.30198-929.23676a3.8 3.8 0 0 1 -3.14013 3.74227 3.8 3.8 0 0 1 -4.2307 -2.44259 3.8 3.8 0 0 1 1.67083 -4.59057"/><path d="m526.2632-911.93872a3.8 3.8 0 0 1 -3.14014 3.74227 3.8 3.8 0 0 1 -4.2307 -2.44259 3.8 3.8 0 0 1 1.67084 -4.59058"/><path d="m504.26317-873.83356a3.8 3.8 0 0 1 -3.14014 3.74227 3.8 3.8 0 0 1 -4.2307 -2.44259 3.8 3.8 0 0 1 1.67084 -4.59057"/><path d="m489.23982-920.61237a3.8 3.8 0 0 1 -3.14014 3.74227 3.8 3.8 0 0 1 -4.23069 -2.44259 3.8 3.8 0 0 1 1.67083 -4.59057"/><path d="m527.25837-898.66241a3.8 3.8 0 0 1 -3.14013 3.74226 3.8 3.8 0 0 1 -4.2307 -2.44259 3.8 3.8 0 0 1 1.67083 -4.59057"/><path d="m511.92637-917.90662a3.8 3.8 0 0 1 -3.14013 3.74227 3.8 3.8 0 0 1 -4.2307 -2.44259 3.8 3.8 0 0 1 1.67083 -4.59057"/><path d="m489.92634-879.80151a3.8 3.8 0 0 1 -3.14013 3.74227 3.8 3.8 0 0 1 -4.2307 -2.4426 3.8 3.8 0 0 1 1.67083 -4.59057"/><path d="m488.158-933.93866a3.8 3.8 0 0 1 -3.14014 3.74227 3.8 3.8 0 0 1 -4.23069 -2.44259 3.8 3.8 0 0 1 1.67083 -4.59058"/><path d="m466.15806-895.83356a3.8 3.8 0 0 1 -3.14013 3.74227 3.8 3.8 0 0 1 -4.2307 -2.44259 3.8 3.8 0 0 1 1.67083 -4.59057"/></g></g></svg>