<svg xmlns="http://www.w3.org/2000/svg" width="44" height="44" viewBox="0 0 44 44"><g color-rendering="auto" color-interpolation-filters="linearRGB" shape-rendering="auto" fill-rule="evenodd" image-rendering="auto" color-interpolation="sRGB" color="#000000"><path d="m0 0h44v44h-44" isolation="auto" mix-blend-mode="normal" fill="#008000" solid-opacity="1" fill-opacity=".12" solid-color="#000000"/><g fill="#228b22" fill-opacity=".3" transform="matrix(-.79.61-.61-.79 0 0)"><path d="m16.314285-30.32438a5.7 5.7 0 0 1 -5.203212 5.67831 5.7 5.7 0 0 1 -6.110191 -4.688515 5.7 5.7 0 0 1 4.138135 -6.495572"/><path d="m4.087978-44.649441a5.7 5.7 0 0 1 -5.203212 5.67831 5.7 5.7 0 0 1 -6.110192 -4.688515 5.7 5.7 0 0 1 4.138136 -6.495572"/><path d="m10.310879-19.15045a5.7 5.7 0 0 1 -5.203212 5.67831 5.7 5.7 0 0 1 -6.110192 -4.688515 5.7 5.7 0 0 1 4.138136 -6.495572"/><path d="m3.782603-32.983082a5.7 5.7 0 0 1 -5.203212 5.67831 5.7 5.7 0 0 1 -6.110192 -4.688515 5.7 5.7 0 0 1 4.138135 -6.495572"/><path d="m-6.219935-25.532629a5.7 5.7 0 0 1 -5.203213 5.67831 5.7 5.7 0 0 1 -6.110191 -4.688515 5.7 5.7 0 0 1 4.138135 -6.495572"/><path d="m-9.892138-37.17372a5.7 5.7 0 0 1 -5.203213 5.678309 5.7 5.7 0 0 1 -6.110191 -4.688515 5.7 5.7 0 0 1 4.138135 -6.495572"/><path d="m.309912-15.480211a5.7 5.7 0 0 1 -5.203212 5.678309 5.7 5.7 0 0 1 -6.110192 -4.688515 5.7 5.7 0 0 1 4.138136 -6.495571"/><path d="M12.10496-7.690029A5.7 5.7 0 0 1 6.901744 -2.01172 5.7 5.7 0 0 1 .791552 -6.700234 5.7 5.7 0 0 1 4.929687 -13.195806"/><path d="m-22.80259-34.475533a5.7 5.7 0 0 1 -5.203212 5.67831 5.7 5.7 0 0 1 -6.110192 -4.688515 5.7 5.7 0 0 1 4.138135 -6.495572"/><path d="m-19.263137-21.675835a5.7 5.7 0 0 1 -5.203212 5.67831 5.7 5.7 0 0 1 -6.110192 -4.688515 5.7 5.7 0 0 1 4.138136 -6.495572"/><path d="m7.522365-56.58338a5.7 5.7 0 0 1 -5.203212 5.67831 5.7 5.7 0 0 1 -6.110192 -4.688515 5.7 5.7 0 0 1 4.138136 -6.495572"/><path d="m29.02067-36.30574a5.7 5.7 0 0 1 -5.203212 5.67831 5.7 5.7 0 0 1 -6.110192 -4.688515 5.7 5.7 0 0 1 4.138136 -6.495572"/><path d="m2.235167-1.398188a5.7 5.7 0 0 1 -5.203212 5.67831 5.7 5.7 0 0 1 -6.110192 -4.688515 5.7 5.7 0 0 1 4.138136 -6.495572"/><path d="m-6.553768-49.737762a5.7 5.7 0 0 1 -5.203212 5.678309 5.7 5.7 0 0 1 -6.110192 -4.688515 5.7 5.7 0 0 1 4.138136 -6.495571"/><path d="m28.27444-23.01314a5.7 5.7 0 0 1 -5.203212 5.67831 5.7 5.7 0 0 1 -6.110192 -4.688515 5.7 5.7 0 0 1 4.138135 -6.495572"/><path d="m15.585505-44.09396a5.7 5.7 0 0 1 -5.203213 5.67831 5.7 5.7 0 0 1 -6.110191 -4.688515 5.7 5.7 0 0 1 4.138136 -6.495572"/><path d="m-11.199998-9.186407a5.7 5.7 0 0 1 -5.203212 5.67831 5.7 5.7 0 0 1 -6.110192 -4.688515 5.7 5.7 0 0 1 4.138136 -6.495572"/><path d="m-5.886876-63.09124a5.7 5.7 0 0 1 -5.203212 5.678309 5.7 5.7 0 0 1 -6.110192 -4.688515 5.7 5.7 0 0 1 4.138136 -6.495571"/><path d="m-32.672379-28.18369a5.7 5.7 0 0 1 -5.203213 5.678309 5.7 5.7 0 0 1 -6.110191 -4.688515 5.7 5.7 0 0 1 4.138135 -6.495571"/></g></g></svg>