<svg xmlns="http://www.w3.org/2000/svg" width="50" height="50" viewBox="0 0 50 50"><g color-rendering="auto" color-interpolation-filters="linearRGB" shape-rendering="auto" fill-rule="evenodd" image-rendering="auto" color-interpolation="sRGB" color="#000000"><path d="m0 0h50v50h-50" isolation="auto" mix-blend-mode="normal" fill="#008000" solid-opacity="1" fill-opacity=".12" solid-color="#000000"/><g fill="#228b22" fill-opacity=".3" transform="matrix(-.79.61-.61-.79 0 0)"><path d="m17.03632-34.1574a5.7 5.7 0 0 1 -5.203212 5.678309 5.7 5.7 0 0 1 -6.110192 -4.688515 5.7 5.7 0 0 1 4.138135 -6.495571"/><path d="m2.836866-48.834438a5.7 5.7 0 0 1 -5.203212 5.678309 5.7 5.7 0 0 1 -6.110192 -4.688515 5.7 5.7 0 0 1 4.138135 -6.495571"/><path d="m10.893719-21.22417a5.7 5.7 0 0 1 -5.203212 5.67831 5.7 5.7 0 0 1 -6.110192 -4.688515 5.7 5.7 0 0 1 4.138135 -6.495572"/><path d="m3.096078-36.03081a5.7 5.7 0 0 1 -5.203212 5.678309 5.7 5.7 0 0 1 -6.110192 -4.688515 5.7 5.7 0 0 1 4.138136 -6.495571"/><path d="m-8.599996-27.358913a5.7 5.7 0 0 1 -5.203212 5.678309 5.7 5.7 0 0 1 -6.110191 -4.688515 5.7 5.7 0 0 1 4.138135 -6.495571"/><path d="m-13.09147-40.889126a5.7 5.7 0 0 1 -5.203212 5.67831 5.7 5.7 0 0 1 -6.110191 -4.688515 5.7 5.7 0 0 1 4.138135 -6.495572"/><path d="m-.959454-16.454229a5.7 5.7 0 0 1 -5.203212 5.678309 5.7 5.7 0 0 1 -6.110191 -4.688515 5.7 5.7 0 0 1 4.138135 -6.495571"/><path d="M13.03106-8.239878A5.7 5.7 0 0 1 7.827846 -2.561568 5.7 5.7 0 0 1 1.717655 -7.250083 5.7 5.7 0 0 1 5.85579 -13.745655"/><path d="m-26.477937-38.556198a5.7 5.7 0 0 1 -5.203212 5.678309 5.7 5.7 0 0 1 -6.110192 -4.688515 5.7 5.7 0 0 1 4.138136 -6.495571"/><path d="m-23.04531-23.317526a5.7 5.7 0 0 1 -5.203212 5.67831 5.7 5.7 0 0 1 -6.110192 -4.688515 5.7 5.7 0 0 1 4.138136 -6.495572"/><path d="m7.392759-62.985191a5.7 5.7 0 0 1 -5.203212 5.678309 5.7 5.7 0 0 1 -6.110192 -4.688515 5.7 5.7 0 0 1 4.138135 -6.495571"/><path d="m31.905807-40.39425a5.7 5.7 0 0 1 -5.203213 5.67831 5.7 5.7 0 0 1 -6.110191 -4.688515 5.7 5.7 0 0 1 4.138135 -6.495572"/><path d="M1.467734-.726587A5.7 5.7 0 0 1 -3.735478 4.951723 5.7 5.7 0 0 1 -9.845669 .263208 5.7 5.7 0 0 1 -5.707534 -6.232364"/><path d="m-8.69425-55.16163a5.7 5.7 0 0 1 -5.203212 5.67831 5.7 5.7 0 0 1 -6.110192 -4.688515 5.7 5.7 0 0 1 4.138136 -6.495572"/><path d="m30.814746-24.845312a5.7 5.7 0 0 1 -5.203212 5.678309 5.7 5.7 0 0 1 -6.110192 -4.688515 5.7 5.7 0 0 1 4.138136 -6.495571"/><path d="m16.8046-49.46087a5.7 5.7 0 0 1 -5.203212 5.67831 5.7 5.7 0 0 1 -6.110192 -4.688515 5.7 5.7 0 0 1 4.138136 -6.495572"/><path d="m-13.633471-9.793204a5.7 5.7 0 0 1 -5.203213 5.67831 5.7 5.7 0 0 1 -6.110191 -4.688515 5.7 5.7 0 0 1 4.138135 -6.495571"/><path d="m-7.761861-70.832321a5.7 5.7 0 0 1 -5.203212 5.678309 5.7 5.7 0 0 1 -6.110192 -4.688515 5.7 5.7 0 0 1 4.138136 -6.495571"/><path d="m-38.19993-31.16466a5.7 5.7 0 0 1 -5.203212 5.67831 5.7 5.7 0 0 1 -6.110192 -4.688515 5.7 5.7 0 0 1 4.138136 -6.495572"/></g></g></svg>