<svg xmlns="http://www.w3.org/2000/svg" width="84" height="84" viewBox="0 0 83.75 83.75"><g color-rendering="auto" color-interpolation-filters="linearRGB" shape-rendering="auto" fill-rule="evenodd" image-rendering="auto" color-interpolation="sRGB" color="#000000"><path d="m0 0h84v84h-84" isolation="auto" mix-blend-mode="normal" fill="#008000" solid-opacity="1" fill-opacity=".12" solid-color="#000000"/><g fill="#228b22" fill-opacity=".3" transform="matrix(-.79.61-.61-.79 0 0)"><path d="m28.10521-58.55694a7.5 7.5 0 0 1 -6.846332 7.47146 7.5 7.5 0 0 1 -8.03973 -6.169099 7.5 7.5 0 0 1 5.444916 -8.546805"/><path d="m4.413004-83.03897a7.5 7.5 0 0 1 -6.846332 7.47146 7.5 7.5 0 0 1 -8.03973 -6.169099 7.5 7.5 0 0 1 5.444916 -8.546805"/><path d="m17.461697-36.472656a7.5 7.5 0 0 1 -6.846332 7.47146 7.5 7.5 0 0 1 -8.03973 -6.169099 7.5 7.5 0 0 1 5.444915 -8.546805"/><path d="m4.377654-61.63806a7.5 7.5 0 0 1 -6.846332 7.47146 7.5 7.5 0 0 1 -8.03973 -6.169099 7.5 7.5 0 0 1 5.444916 -8.546805"/><path d="m-15.01866-47.530514a7.5 7.5 0 0 1 -6.846332 7.47146 7.5 7.5 0 0 1 -8.03973 -6.169098 7.5 7.5 0 0 1 5.444916 -8.546805"/><path d="m-21.649052-70.26481a7.5 7.5 0 0 1 -6.846332 7.471461 7.5 7.5 0 0 1 -8.03973 -6.169099 7.5 7.5 0 0 1 5.444916 -8.546805"/><path d="m-1.984889-28.706043a7.5 7.5 0 0 1 -6.846332 7.47146 7.5 7.5 0 0 1 -8.03973 -6.169099 7.5 7.5 0 0 1 5.444915 -8.546805"/><path d="m20.944594-14.893048a7.5 7.5 0 0 1 -6.846332 7.47146 7.5 7.5 0 0 1 -8.03973 -6.169099 7.5 7.5 0 0 1 5.444916 -8.546805"/><path d="m-45.37974-65.785507a7.5 7.5 0 0 1 -6.846332 7.47146 7.5 7.5 0 0 1 -8.03973 -6.169099 7.5 7.5 0 0 1 5.444916 -8.546805"/><path d="m-39.09419-40.794868a7.5 7.5 0 0 1 -6.846332 7.47146 7.5 7.5 0 0 1 -8.03973 -6.169099 7.5 7.5 0 0 1 5.444916 -8.546805"/><path d="m11.433008-106.6432a7.5 7.5 0 0 1 -6.846331 7.471457 7.5 7.5 0 0 1 -8.03973 -6.169097 7.5 7.5 0 0 1 5.444915 -8.54681"/><path d="m53.34641-69.44002a7.5 7.5 0 0 1 -6.846332 7.471461 7.5 7.5 0 0 1 -8.03973 -6.169099 7.5 7.5 0 0 1 5.444915 -8.546805"/><path d="m2.210454-2.798339a7.5 7.5 0 0 1 -6.846332 7.47146 7.5 7.5 0 0 1 -8.03973 -6.169099 7.5 7.5 0 0 1 5.444915 -8.546805"/><path d="m-15.475815-93.25831a7.5 7.5 0 0 1 -6.846332 7.47146 7.5 7.5 0 0 1 -8.03973 -6.169099 7.5 7.5 0 0 1 5.444915 -8.546803"/><path d="m50.610519-42.548481a7.5 7.5 0 0 1 -6.846332 7.47146 7.5 7.5 0 0 1 -8.03973 -6.169099 7.5 7.5 0 0 1 5.444916 -8.546805"/><path d="m27.824785-83.981567a7.5 7.5 0 0 1 -6.846332 7.47146 7.5 7.5 0 0 1 -8.03973 -6.169099 7.5 7.5 0 0 1 5.444915 -8.546805"/><path d="m-23.311174-17.339884a7.5 7.5 0 0 1 -6.846332 7.47146 7.5 7.5 0 0 1 -8.03973 -6.169099 7.5 7.5 0 0 1 5.444916 -8.546805"/><path d="m-12.581249-120.02809a7.5 7.5 0 0 1 -6.846332 7.47146 7.5 7.5 0 0 1 -8.03973 -6.1691 7.5 7.5 0 0 1 5.444915 -8.54681"/><path d="m-63.717209-53.38641a7.5 7.5 0 0 1 -6.846332 7.471461 7.5 7.5 0 0 1 -8.03973 -6.169099 7.5 7.5 0 0 1 5.444915 -8.546805"/></g></g></svg>