<svg xmlns="http://www.w3.org/2000/svg" width="33.5" height="33.5" viewBox="0 0 33.5 33.5"><g color-rendering="auto" color-interpolation-filters="linearRGB" shape-rendering="auto" fill-rule="evenodd" image-rendering="auto" color-interpolation="sRGB" color="#000000"><path d="m0 0h33.5v33.5h-33.5z" isolation="auto" mix-blend-mode="normal" fill="#008000" solid-opacity="1" fill-opacity=".12" solid-color="#000000"/><g fill="#228b22" fill-opacity=".3" transform="matrix(-.87.5-.5-.87 0 0)"><path d="m9.746092-23.544376a3.8 3.8 0 0 1 -3.140137 3.742269 3.8 3.8 0 0 1 -4.230695 -2.442593 3.8 3.8 0 0 1 1.670832 -4.590573"/><path d="m-.679306-33.16731a3.8 3.8 0 0 1 -3.140137 3.74227 3.8 3.8 0 0 1 -4.230695 -2.442593 3.8 3.8 0 0 1 1.670832 -4.590573"/><path d="m7.05072-15.436359a3.8 3.8 0 0 1 -3.140137 3.742269 3.8 3.8 0 0 1 -4.230695 -2.442593 3.8 3.8 0 0 1 1.670832 -4.590573"/><path d="m.130659-24.05046a3.8 3.8 0 0 1 -3.140137 3.74227 3.8 3.8 0 0 1 -4.230695 -2.442593 3.8 3.8 0 0 1 1.670832 -4.590573"/><path d="m-6.707609-17.606234a3.8 3.8 0 0 1 -3.140137 3.74227 3.8 3.8 0 0 1 -4.230695 -2.442593 3.8 3.8 0 0 1 1.670832 -4.590573"/><path d="m-10.376005-26.652386a3.8 3.8 0 0 1 -3.140137 3.74227 3.8 3.8 0 0 1 -4.230695 -2.442593 3.8 3.8 0 0 1 1.670832 -4.590573"/><path d="m-.673188-10.658156a3.8 3.8 0 0 1 -3.140137 3.742269 3.8 3.8 0 0 1 -4.230695 -2.442593 3.8 3.8 0 0 1 1.670832 -4.590573"/><path d="M9.506681-7.090208A3.8 3.8 0 0 1 6.366544 -3.347938 3.8 3.8 0 0 1 2.135849 -5.790531 3.8 3.8 0 0 1 3.806681 -10.381104"/><path d="m-19.331966-23.740208a3.8 3.8 0 0 1 -3.140137 3.74227 3.8 3.8 0 0 1 -4.230695 -2.442593 3.8 3.8 0 0 1 1.670832 -4.590573"/><path d="m-15.903762-13.67803a3.8 3.8 0 0 1 -3.140137 3.742269 3.8 3.8 0 0 1 -4.230695 -2.442592 3.8 3.8 0 0 1 1.670832 -4.590573"/><path d="m.596239-42.25687a3.8 3.8 0 0 1 -3.140137 3.742269 3.8 3.8 0 0 1 -4.230695 -2.442593 3.8 3.8 0 0 1 1.670832 -4.590573"/><path d="m19.408605-30.24084a3.8 3.8 0 0 1 -3.140137 3.74227 3.8 3.8 0 0 1 -4.230695 -2.442593 3.8 3.8 0 0 1 1.670832 -4.590573"/><path d="M2.408605-.795979A3.8 3.8 0 0 1 -.731532 2.94629 3.8 3.8 0 0 1 -4.962227 .503698 3.8 3.8 0 0 1 -3.291395 -4.086875"/><path d="m-8.733889-36.09661a3.8 3.8 0 0 1 -3.140137 3.74227 3.8 3.8 0 0 1 -4.230695 -2.442593 3.8 3.8 0 0 1 1.670832 -4.590573"/><path d="m19.844949-19.596615a3.8 3.8 0 0 1 -3.140137 3.74227 3.8 3.8 0 0 1 -4.230695 -2.442593 3.8 3.8 0 0 1 1.670832 -4.590573"/><path d="m8.36271-34.30879a3.8 3.8 0 0 1 -3.140137 3.742269 3.8 3.8 0 0 1 -4.230695 -2.442593 3.8 3.8 0 0 1 1.670832 -4.590573"/><path d="m-8.13729-5.729954a3.8 3.8 0 0 1 -3.140137 3.742269 3.8 3.8 0 0 1 -4.230695 -2.442593 3.8 3.8 0 0 1 1.670832 -4.590573"/><path d="m-9.430041-46.890842a3.8 3.8 0 0 1 -3.140136 3.742269 3.8 3.8 0 0 1 -4.230695 -2.442593 3.8 3.8 0 0 1 1.670831 -4.590573"/><path d="m-26.43004-17.44598a3.8 3.8 0 0 1 -3.140137 3.742269 3.8 3.8 0 0 1 -4.230695 -2.442593 3.8 3.8 0 0 1 1.670832 -4.590573"/></g></g></svg>