<svg xmlns="http://www.w3.org/2000/svg" width="58" height="58" viewBox="0 0 58 58"><g color-rendering="auto" color-interpolation-filters="linearRGB" shape-rendering="auto" fill-rule="evenodd" image-rendering="auto" color-interpolation="sRGB" color="#000000"><path d="m0 0h58v58h-58" isolation="auto" mix-blend-mode="normal" fill="#008000" solid-opacity="1" fill-opacity=".12" solid-color="#000000"/><g fill="#08446" fill-opacity=".3" transform="matrix(.7.7-.7.7 0 0)"><ellipse cx="38.7" cy="19.3" rx="6" ry="7.5"/><ellipse cx="57.6" cy="4.6" rx="6" ry="7.5"/><ellipse cx="24" cy="9.8" rx="6" ry="7.5"/><ellipse cx="42" cy="2.8" rx="6" ry="7.5"/><ellipse cx="34.5" cy="-11.9" rx="6" ry="7.5"/><ellipse cx="50.9" cy="-14" rx="6" ry="7.5"/><ellipse cx="20.4" cy="-4.8" rx="6" ry="7.5"/><ellipse cx="9.3" cy="10.5" rx="6" ry="7.5"/><ellipse cx="50" cy="-30.4" rx="6" ry="7.5"/><ellipse cx="31.8" cy="-29" rx="6" ry="7.5"/><ellipse cx="72.8" cy="12" rx="6" ry="7.5"/><ellipse cx="43" cy="37" rx="6" ry="7.5"/><ellipse cx="2.4" cy="-3.8" rx="6" ry="7.5"/><ellipse cx="66" cy="-8.5" rx="6" ry="7.5"/><ellipse cx="25" cy="32.8" rx="6" ry="7.5"/><ellipse cx="55.6" cy="20.7" rx="6" ry="7.5"/><ellipse cx="14.6" cy="-20.3" rx="6" ry="7.5"/><ellipse cx="84" cy="-3.5" rx="6" ry="7.5"/><ellipse cx="43" cy="-44.5" rx="6" ry="7.5"/></g></g></svg>