<svg xmlns="http://www.w3.org/2000/svg" width="39" height="39" viewBox="0 0 39 39"><g color-rendering="auto" color-interpolation-filters="linearRGB" shape-rendering="auto" fill-rule="evenodd" image-rendering="auto" color-interpolation="sRGB" color="#000000"><path d="m0 0h39v39h-39" isolation="auto" mix-blend-mode="normal" fill="#008000" solid-opacity="1" fill-opacity=".12" solid-color="#000000"/><g fill="#08446" fill-opacity=".3" transform="matrix(.7.7-.7.7 0 0)"><ellipse cx="26" cy="13.4" rx="4.6" ry="5.7"/><ellipse cx="38" cy="3.1" rx="4.6" ry="5.7"/><ellipse cx="15.6" cy="9.1" rx="4.6" ry="5.7"/><ellipse cx="28.8" cy="2.3" rx="4.6" ry="5.7"/><ellipse cx="23.3" cy="-7.7" rx="4.6" ry="5.7"/><ellipse cx="33.7" cy="-8.9" rx="4.6" ry="5.7"/><ellipse cx="14" cy="-2.7" rx="4.6" ry="5.7"/><ellipse cx="5.9" cy="6.9" rx="4.6" ry="5.7"/><ellipse cx="33" cy="-20.5" rx="4.6" ry="5.7"/><ellipse cx="21" cy="-19.8" rx="4.6" ry="5.7"/><ellipse cx="48.8" cy="7.8" rx="4.6" ry="5.7"/><ellipse cx="28.8" cy="24.9" rx="4.6" ry="5.7"/><ellipse cx="1.3" cy="-2.7" rx="4.6" ry="5.7"/><ellipse cx="44.5" cy="-4.9" rx="4.6" ry="5.7"/><ellipse cx="17" cy="22.5" rx="4.6" ry="5.7"/><ellipse cx="37.8" cy="14.5" rx="4.6" ry="5.7"/><ellipse cx="10.3" cy="-13" rx="4.6" ry="5.7"/><ellipse cx="56" cy="-2.7" rx="4.6" ry="5.7"/><ellipse cx="28.8" cy="-30" rx="4.6" ry="5.7"/></g></g></svg>