<svg xmlns="http://www.w3.org/2000/svg" xmlns:xlink="http://www.w3.org/1999/xlink" width="192" height="192" viewBox="0 0 192 192"><defs><linearGradient gradientTransform="matrix(.82 0 0 .68 31-511.7)" xlink:href="#3" id="J" x1="53.7" y1="994" x2="36.6" y2="995" gradientUnits="userSpaceOnUse"/><linearGradient gradientTransform="matrix(.82 0 0 .68 144-567.7)" xlink:href="#3" id="D" x1="53.7" y1="994" x2="36.6" y2="995" gradientUnits="userSpaceOnUse"/><linearGradient gradientTransform="matrix(.82 0 0 .68-35.67-698.6)" xlink:href="#3" id="B" x1="53.7" y1="994" x2="36.6" y2="995" gradientUnits="userSpaceOnUse"/><linearGradient gradientTransform="matrix(.82 0 0 .68-35.67-506.7)" xlink:href="#3" id="C" x1="53.7" y1="994" x2="36.6" y2="995" gradientUnits="userSpaceOnUse"/><linearGradient gradientTransform="matrix(.82 0 0 .68 37.53-586.7)" xlink:href="#3" id="E" x1="53.7" y1="994" x2="36.6" y2="995" gradientUnits="userSpaceOnUse"/><linearGradient gradientTransform="matrix(.82 0 0 .68 96-497.4)" xlink:href="#3" id="F" x1="53.7" y1="994" x2="36.6" y2="995" gradientUnits="userSpaceOnUse"/><linearGradient gradientTransform="matrix(.82 0 0 .68 133-647.5)" xlink:href="#3" id="I" x1="53.7" y1="994" x2="36.6" y2="995" gradientUnits="userSpaceOnUse"/><linearGradient gradientTransform="matrix(.82 0 0 .68 156-698.6)" xlink:href="#3" id="G" x1="53.7" y1="994" x2="36.6" y2="995" gradientUnits="userSpaceOnUse"/><linearGradient gradientTransform="matrix(.82 0 0 .68 156-506.7)" xlink:href="#3" id="H" x1="53.7" y1="994" x2="36.6" y2="995" gradientUnits="userSpaceOnUse"/><linearGradient gradientTransform="matrix(.82 0 0 .68 31-703.7)" xlink:href="#3" id="A" x1="53.7" y1="994" x2="36.6" y2="995" gradientUnits="userSpaceOnUse"/><linearGradient gradientTransform="matrix(.82 0 0 .68 96-689.4)" xlink:href="#3" id="9" x1="53.7" y1="994" x2="36.6" y2="995" gradientUnits="userSpaceOnUse"/><linearGradient gradientTransform="matrix(.82 0 0 .68 78-550.4)" xlink:href="#3" id="2" x1="53.7" y1="994" x2="36.6" y2="995" gradientUnits="userSpaceOnUse"/><linearGradient gradientTransform="matrix(.82 0 0 .68 63.6-637.6)" xlink:href="#3" id="0" x1="53.7" y1="994" x2="36.6" y2="995" gradientUnits="userSpaceOnUse"/><linearGradient gradientTransform="matrix(.82 0 0 .68 108-601.7)" xlink:href="#3" id="1" x1="53.7" y1="994" x2="36.6" y2="995" gradientUnits="userSpaceOnUse"/><linearGradient id="3"><stop stop-color="#100605"/><stop offset="1" stop-opacity="0"/></linearGradient><linearGradient gradientTransform="matrix(.82 0 0 .68 10.81-659.6)" xlink:href="#3" id="8" x1="53.7" y1="994" x2="36.6" y2="995" gradientUnits="userSpaceOnUse"/><linearGradient gradientTransform="matrix(.82 0 0 .68-2.62-544.7)" xlink:href="#3" id="4" x1="53.7" y1="994" x2="36.6" y2="995" gradientUnits="userSpaceOnUse"/><linearGradient gradientTransform="matrix(.82 0 0 .68-47.99-567.7)" xlink:href="#3" id="7" x1="53.7" y1="994" x2="36.6" y2="995" gradientUnits="userSpaceOnUse"/><linearGradient gradientTransform="matrix(.82 0 0 .68-58.99-647.5)" xlink:href="#3" id="5" x1="53.7" y1="994" x2="36.6" y2="995" gradientUnits="userSpaceOnUse"/><linearGradient gradientTransform="matrix(.82 0 0 .68-13.62-613.7)" xlink:href="#3" id="6" x1="53.7" y1="994" x2="36.6" y2="995" gradientUnits="userSpaceOnUse"/></defs><path mix-blend-mode="normal" isolation="auto" d="m0 0h192v192h-192z" fill="#008000" color-rendering="auto" solid-opacity="1" color-interpolation-filters="linearRGB" shape-rendering="auto" fill-rule="evenodd" image-rendering="auto" fill-opacity=".12" color-interpolation="sRGB" color="#000000" solid-color="#000000"/><g stroke-opacity=".94" stroke="#60605f" stroke-width=".45"><path d="m73.8 111.4c1.88-.45 2.85-.75 3.45-2.4 2.55-8.25 1.35-10.87-2.85-15.75.22-.3 1.65-.67 1.95-1.2 3.3 4.05 3.3 4.2 3.67-1.05.67.45 2.7.53 3.75 1.05.53 7.2.38 9 4.95 5.47 1.58 2.25 1.42 1.5 1.42 1.5-4.2 4.57-6 2.25-5.47 9.52.15 2.55.97 2.17 4.05 2.85-6.3 0-8.4 0-14.92 0" fill="url(#E)"/><path d="m.86-.23c1.88-.45 2.85-.75 3.45-2.4 2.55-8.25 1.35-10.87-2.85-15.75.23-.3 1.65-.68 1.95-1.2 3.3 4.05 3.3 4.2 3.67-1.05.67.45 2.7.52 3.75 1.05.53 7.2.38 9 4.95 5.47 1.57 2.25 1.43 1.5 1.43 1.5-4.2 4.57-6 2.25-5.47 9.52.15 2.55.97 2.17 4.05 2.85-6.3 0-8.4 0-14.93 0" fill="url(#B)"/><path d="m67.76-5.43c1.88-.45 2.85-.75 3.45-2.4 2.55-8.25 1.35-10.87-2.85-15.75.22-.3 1.65-.68 1.95-1.2 3.3 4.05 3.3 4.2 3.67-1.05.67.45 2.7.52 3.75 1.05.53 7.2.38 9 4.95 5.47 1.58 2.25 1.42 1.5 1.42 1.5-4.2 4.57-6 2.25-5.47 9.52.15 2.55.97 2.17 4.05 2.85-6.3 0-8.4 0-14.92 0" fill="url(#A)"/><path d="m132.8 9.57c1.88-.45 2.85-.75 3.45-2.4 2.55-8.25 1.35-10.88-2.85-15.75.22-.3 1.65-.68 1.95-1.2 3.3 4.05 3.3 4.2 3.68-1.05.68.45 2.7.53 3.75 1.05.53 7.2.38 9 4.95 5.47 1.57 2.25 1.43 1.5 1.43 1.5-4.2 4.58-6 2.25-5.47 9.53.15 2.55.97 2.17 4.05 2.85-6.3 0-8.4 0-14.93 0" fill="url(#9)"/><path d="m-22.54 51.2c1.88-.45 2.85-.75 3.45-2.4 2.55-8.25 1.35-10.88-2.85-15.75.23-.3 1.65-.67 1.95-1.2 3.3 4.05 3.3 4.2 3.68-1.05.68.45 2.7.52 3.75 1.05.53 7.2.38 9 4.95 5.47 1.58 2.25 1.42 1.5 1.42 1.5-4.2 4.58-6 2.25-5.47 9.52.15 2.55.97 2.17 4.05 2.85-6.3 0-8.4 0-14.92 0" fill="url(#5)"/><path d="m47.3 38.77c1.88-.45 2.85-.75 3.45-2.4 2.55-8.25 1.35-10.88-2.85-15.75.23-.3 1.65-.68 1.95-1.2 3.3 4.05 3.3 4.2 3.67-1.05.67.45 2.7.52 3.75 1.05.52 7.2.38 9 4.95 5.47 1.58 2.25 1.42 1.5 1.42 1.5-4.2 4.57-6 2.25-5.48 9.52.15 2.55.98 2.17 4.05 2.85-6.3 0-8.4 0-14.93 0" fill="url(#8)"/><path d="m99.8 60.87c1.88-.45 2.85-.75 3.45-2.4 2.55-8.25 1.35-10.88-2.85-15.75.22-.3 1.65-.67 1.95-1.2 3.3 4.05 3.3 4.2 3.67-1.05.67.45 2.7.52 3.75 1.05.53 7.2.38 9 4.95 5.48 1.58 2.25 1.42 1.5 1.42 1.5-4.2 4.58-6 2.25-5.47 9.52.15 2.55.97 2.17 4.05 2.85-6.3 0-8.4 0-14.93 0" fill="url(#0)"/><path d="m22.76 84.6c1.88-.45 2.85-.75 3.45-2.4 2.55-8.25 1.35-10.88-2.85-15.75.23-.3 1.65-.67 1.95-1.2 3.3 4.05 3.3 4.2 3.68-1.05.68.45 2.7.53 3.75 1.05.52 7.2.38 9 4.95 5.47 1.58 2.25 1.42 1.5 1.42 1.5-4.2 4.58-6 2.25-5.48 9.53.15 2.55.98 2.17 4.05 2.85-6.3 0-8.4 0-14.93 0" fill="url(#6)"/><path d="m-11.54 130.4c1.87-.45 2.85-.75 3.45-2.4 2.55-8.25 1.35-10.88-2.85-15.75.22-.3 1.65-.67 1.95-1.2 3.3 4.05 3.3 4.2 3.67-1.05.67.45 2.7.53 3.75 1.05.52 7.2.38 9 4.95 5.47 1.58 2.25 1.42 1.5 1.42 1.5-4.2 4.58-6 2.25-5.48 9.53.15 2.55.97 2.17 4.05 2.85-6.3 0-8.4 0-14.92 0" fill="url(#7)"/><path d="m33.76 153.6c1.88-.45 2.85-.75 3.45-2.4 2.55-8.25 1.35-10.88-2.85-15.75.23-.3 1.65-.68 1.95-1.2 3.3 4.05 3.3 4.2 3.67-1.05.67.45 2.7.53 3.75 1.05.52 7.2.38 9 4.95 5.47 1.58 2.25 1.42 1.5 1.42 1.5-4.2 4.57-6 2.25-5.48 9.53.15 2.55.98 2.18 4.05 2.85-6.3 0-8.4 0-14.93 0" fill="url(#4)"/><path d="m114.8 148.6c1.88-.45 2.85-.75 3.45-2.4 2.55-8.25 1.35-10.88-2.85-15.75.22-.3 1.65-.68 1.95-1.2 3.3 4.05 3.3 4.2 3.67-1.05.67.45 2.7.53 3.75 1.05.53 7.2.38 9 4.95 5.47 1.57 2.25 1.43 1.5 1.43 1.5-4.2 4.57-6 2.25-5.47 9.53.15 2.55.97 2.18 4.05 2.85-6.3 0-8.4 0-14.92 0" fill="url(#2)"/><path d="m144.8 96.6c1.88-.45 2.85-.75 3.45-2.4 2.55-8.25 1.35-10.88-2.85-15.75.22-.3 1.65-.67 1.95-1.2 3.3 4.05 3.3 4.2 3.68-1.05.68.45 2.7.53 3.75 1.05.53 7.2.38 9 4.95 5.47 1.57 2.25 1.43 1.5 1.43 1.5-4.2 4.58-6 2.25-5.47 9.53.15 2.55.97 2.17 4.05 2.85-6.3 0-8.4 0-14.93 0" fill="url(#1)"/><path d="m192.8-.23c1.88-.45 2.85-.75 3.45-2.4 2.55-8.25 1.35-10.87-2.85-15.75.22-.3 1.65-.68 1.95-1.2 3.3 4.05 3.3 4.2 3.68-1.05.68.45 2.7.52 3.75 1.05.53 7.2.38 9 4.95 5.47 1.57 2.25 1.43 1.5 1.43 1.5-4.2 4.57-6 2.25-5.47 9.52.15 2.55.97 2.17 4.05 2.85-6.3 0-8.4 0-14.93 0" fill="url(#G)"/><path d="m169.8 51.2c1.88-.45 2.85-.75 3.45-2.4 2.55-8.25 1.35-10.88-2.85-15.75.22-.3 1.65-.67 1.95-1.2 3.3 4.05 3.3 4.2 3.68-1.05.68.45 2.7.52 3.75 1.05.53 7.2.38 9 4.95 5.47 1.57 2.25 1.43 1.5 1.43 1.5-4.2 4.58-6 2.25-5.47 9.52.15 2.55.97 2.17 4.05 2.85-6.3 0-8.4 0-14.93 0" fill="url(#I)"/><path d="m180.8 130.4c1.88-.45 2.85-.75 3.45-2.4 2.55-8.25 1.35-10.88-2.85-15.75.22-.3 1.65-.67 1.95-1.2 3.3 4.05 3.3 4.2 3.68-1.05.68.45 2.7.53 3.75 1.05.53 7.2.38 9 4.95 5.47 1.57 2.25 1.43 1.5 1.43 1.5-4.2 4.58-6 2.25-5.47 9.53.15 2.55.97 2.17 4.05 2.85-6.3 0-8.4 0-14.93 0" fill="url(#D)"/><path d="m.86 191.6c1.88-.45 2.85-.75 3.45-2.4 2.55-8.25 1.35-10.88-2.85-15.75.23-.3 1.65-.68 1.95-1.2 3.3 4.05 3.3 4.2 3.67-1.05.67.45 2.7.53 3.75 1.05.53 7.2.38 9 4.95 5.47 1.57 2.25 1.43 1.5 1.43 1.5-4.2 4.57-6 2.25-5.47 9.53.15 2.55.97 2.18 4.05 2.85-6.3 0-8.4 0-14.93 0" fill="url(#C)"/><path d="m67.76 186.6c1.88-.45 2.85-.75 3.45-2.4 2.55-8.25 1.35-10.88-2.85-15.75.22-.3 1.65-.68 1.95-1.2 3.3 4.05 3.3 4.2 3.67-1.05.67.45 2.7.53 3.75 1.05.53 7.2.38 9 4.95 5.47 1.58 2.25 1.42 1.5 1.42 1.5-4.2 4.57-6 2.25-5.47 9.53.15 2.55.97 2.18 4.05 2.85-6.3 0-8.4 0-14.92 0" fill="url(#J)"/><path d="m132.8 201.6c1.88-.45 2.85-.75 3.45-2.4 2.55-8.25 1.35-10.88-2.85-15.75.22-.3 1.65-.68 1.95-1.2 3.3 4.05 3.3 4.2 3.68-1.05.68.45 2.7.53 3.75 1.05.53 7.2.38 9 4.95 5.47 1.57 2.25 1.43 1.5 1.43 1.5-4.2 4.57-6 2.25-5.47 9.53.15 2.55.97 2.18 4.05 2.85-6.3 0-8.4 0-14.93 0" fill="url(#F)"/><path d="m192.8 191.6c1.88-.45 2.85-.75 3.45-2.4 2.55-8.25 1.35-10.88-2.85-15.75.22-.3 1.65-.68 1.95-1.2 3.3 4.05 3.3 4.2 3.68-1.05.68.45 2.7.53 3.75 1.05.53 7.2.38 9 4.95 5.47 1.57 2.25 1.43 1.5 1.43 1.5-4.2 4.57-6 2.25-5.47 9.53.15 2.55.97 2.18 4.05 2.85-6.3 0-8.4 0-14.93 0" fill="url(#H)"/></g><g fill="#228b22" color-rendering="auto" color-interpolation-filters="linearRGB" shape-rendering="auto" fill-rule="evenodd" image-rendering="auto" fill-opacity=".3" color-interpolation="sRGB" color="#000000"><circle cx="19.5" cy="138.9" r="9.8"/><circle cx="86" cy="156" r="9.8"/><circle cx="-4.2" cy="90.6" r="9.8"/><circle cx="55" cy="117" r="9.8"/><circle cx="71" cy="65.6" r="9.8"/><circle cx="115" cy="96.3" r="9.8"/><circle cx="20.8" cy="48.3" r="9.8"/><circle cx="151" cy="56" r="9.8"/><circle cx="105" cy="18" r="9.8"/><circle cx="105" cy="210" r="9.8"/><circle cx="-23.4" cy="200" r="9.8"/><circle cx="-23.4" cy="8" r="9.8"/><circle cx="154" cy="155" r="9.8"/><circle cx="43.8" cy="190" r="9.8"/><circle cx="43.8" cy="-2" r="9.8"/><circle cx="169" cy="200" r="9.8"/><circle cx="169" cy="8" r="9.8"/><circle cx="213" cy="48.3" r="9.8"/><circle cx="188" cy="90.6" r="9.8"/><circle cx="211" cy="138.9" r="9.8"/></g></svg>