<svg xmlns="http://www.w3.org/2000/svg" xmlns:xlink="http://www.w3.org/1999/xlink" width="120" height="120" viewBox="0 0 120 120"><defs><linearGradient gradientTransform="matrix(1.1 0 0 .9 16-813)" xlink:href="#3" id="J" x1="53.7" y1="994" x2="36.6" y2="995" gradientUnits="userSpaceOnUse"/><linearGradient gradientTransform="matrix(1.1 0 0 .9 129-869)" xlink:href="#3" id="D" x1="53.7" y1="994" x2="36.6" y2="995" gradientUnits="userSpaceOnUse"/><linearGradient gradientTransform="matrix(1.1 0 0 .9-50.6-1000)" xlink:href="#3" id="B" x1="53.7" y1="994" x2="36.6" y2="995" gradientUnits="userSpaceOnUse"/><linearGradient gradientTransform="matrix(1.1 0 0 .9-50.6-808)" xlink:href="#3" id="C" x1="53.7" y1="994" x2="36.6" y2="995" gradientUnits="userSpaceOnUse"/><linearGradient gradientTransform="matrix(1.1 0 0 .9 22.7-888)" xlink:href="#3" id="E" x1="53.7" y1="994" x2="36.6" y2="995" gradientUnits="userSpaceOnUse"/><linearGradient gradientTransform="matrix(1.1 0 0 .9 81-799)" xlink:href="#3" id="F" x1="53.7" y1="994" x2="36.6" y2="995" gradientUnits="userSpaceOnUse"/><linearGradient gradientTransform="matrix(1.1 0 0 .9 118-949)" xlink:href="#3" id="I" x1="53.7" y1="994" x2="36.6" y2="995" gradientUnits="userSpaceOnUse"/><linearGradient gradientTransform="matrix(1.1 0 0 .9 141-1000)" xlink:href="#3" id="G" x1="53.7" y1="994" x2="36.6" y2="995" gradientUnits="userSpaceOnUse"/><linearGradient gradientTransform="matrix(1.1 0 0 .9 141-808)" xlink:href="#3" id="H" x1="53.7" y1="994" x2="36.6" y2="995" gradientUnits="userSpaceOnUse"/><linearGradient gradientTransform="matrix(1.1 0 0 .9 16-1005)" xlink:href="#3" id="A" x1="53.7" y1="994" x2="36.6" y2="995" gradientUnits="userSpaceOnUse"/><linearGradient gradientTransform="matrix(1.1 0 0 .9 81-991)" xlink:href="#3" id="9" x1="53.7" y1="994" x2="36.6" y2="995" gradientUnits="userSpaceOnUse"/><linearGradient gradientTransform="matrix(1.1 0 0 .9 63-852)" xlink:href="#3" id="2" x1="53.7" y1="994" x2="36.6" y2="995" gradientUnits="userSpaceOnUse"/><linearGradient gradientTransform="matrix(1.1 0 0 .9 48.8-939)" xlink:href="#3" id="0" x1="53.7" y1="994" x2="36.6" y2="995" gradientUnits="userSpaceOnUse"/><linearGradient gradientTransform="matrix(1.1 0 0 .9 93-903)" xlink:href="#3" id="1" x1="53.7" y1="994" x2="36.6" y2="995" gradientUnits="userSpaceOnUse"/><linearGradient id="3"><stop stop-color="#505145"/><stop offset="1" stop-opacity="0"/></linearGradient><linearGradient gradientTransform="matrix(1.1 0 0 .9-4.1-961)" xlink:href="#3" id="8" x1="53.7" y1="994" x2="36.6" y2="995" gradientUnits="userSpaceOnUse"/><linearGradient gradientTransform="matrix(1.1 0 0 .9-17.5-846)" xlink:href="#3" id="4" x1="53.7" y1="994" x2="36.6" y2="995" gradientUnits="userSpaceOnUse"/><linearGradient gradientTransform="matrix(1.1 0 0 .9-62.9-869)" xlink:href="#3" id="7" x1="53.7" y1="994" x2="36.6" y2="995" gradientUnits="userSpaceOnUse"/><linearGradient gradientTransform="matrix(1.1 0 0 .9-73.9-949)" xlink:href="#3" id="5" x1="53.7" y1="994" x2="36.6" y2="995" gradientUnits="userSpaceOnUse"/><linearGradient gradientTransform="matrix(1.1 0 0 .9-28.5-915)" xlink:href="#3" id="6" x1="53.7" y1="994" x2="36.6" y2="995" gradientUnits="userSpaceOnUse"/></defs><path mix-blend-mode="normal" isolation="auto" d="m0 0h120v120h-120" fill="#008000" color-rendering="auto" solid-opacity="1" color-interpolation-filters="linearRGB" shape-rendering="auto" fill-rule="evenodd" image-rendering="auto" fill-opacity=".12" color-interpolation="sRGB" color="#000000" solid-color="#000000"/><g transform="matrix(.63 0 0 .63.06 45.1)" stroke="#604713" stroke-width=".6"><path d="m71 42.8c2.5-.6 3.8-1 4.6-3.2 3.4-11 1.8-14.5-3.8-21 .3-.4 2.2-.9 2.6-1.6 4.4 5.4 4.4 5.6 4.9-1.4.9.6 3.6.7 5 1.4.7 9.6.5 12 6.6 7.3 2.1 3 1.9 2 1.9 2-5.6 6.1-8 3-7.3 12.7.2 3.4 1.3 2.9 5.4 3.8-8.4 0-11.2 0-19.9 0" fill="url(#E)"/><path d="m-1.9-68.8c2.5-.6 3.8-1 4.6-3.2 3.4-11 1.8-14.5-3.8-21 .3-.4 2.2-.9 2.6-1.6 4.4 5.4 4.4 5.6 4.9-1.4.9.6 3.6.7 5 1.4.7 9.6.5 12 6.6 7.3 2.1 3 1.9 2 1.9 2-5.6 6.1-8 3-7.3 12.7.2 3.4 1.3 2.9 5.4 3.8-8.4 0-11.2 0-19.9 0" fill="url(#B)"/><path d="m65-74c2.5-.6 3.8-1 4.6-3.2 3.4-11 1.8-14.5-3.8-21 .3-.4 2.2-.9 2.6-1.6 4.4 5.4 4.4 5.6 4.9-1.4.9.6 3.6.7 5 1.4.7 9.6.5 12 6.6 7.3 2.1 3 1.9 2 1.9 2-5.6 6.1-8 3-7.3 12.7.2 3.4 1.3 2.9 5.4 3.8-8.4 0-11.2 0-19.9 0" fill="url(#A)"/><path d="m130-59c2.5-.6 3.8-1 4.6-3.2 3.4-11 1.8-14.5-3.8-21 .3-.4 2.2-.9 2.6-1.6 4.4 5.4 4.4 5.6 4.9-1.4.9.6 3.6.7 5 1.4.7 9.6.5 12 6.6 7.3 2.1 3 1.9 2 1.9 2-5.6 6.1-8 3-7.3 12.7.2 3.4 1.3 2.9 5.4 3.8-8.4 0-11.2 0-19.9 0" fill="url(#9)"/><path d="m-25.3-17.4c2.5-.6 3.8-1 4.6-3.2 3.4-11 1.8-14.5-3.8-21 .3-.4 2.2-.9 2.6-1.6 4.4 5.4 4.4 5.6 4.9-1.4.9.6 3.6.7 5 1.4.7 9.6.5 12 6.6 7.3 2.1 3 1.9 2 1.9 2-5.6 6.1-8 3-7.3 12.7.2 3.4 1.3 2.9 5.4 3.8-8.4 0-11.2 0-19.9 0" fill="url(#5)"/><path d="m44.5-29.8c2.5-.6 3.8-1 4.6-3.2 3.4-11 1.8-14.5-3.8-21 .3-.4 2.2-.9 2.6-1.6 4.4 5.4 4.4 5.6 4.9-1.4.9.6 3.6.7 5 1.4.7 9.6.5 12 6.6 7.3 2.1 3 1.9 2 1.9 2-5.6 6.1-8 3-7.3 12.7.2 3.4 1.3 2.9 5.4 3.8-8.4 0-11.2 0-19.9 0" fill="url(#8)"/><path d="m97-7.7c2.5-.6 3.8-1 4.6-3.2 3.4-11 1.8-14.5-3.8-21 .3-.4 2.2-.9 2.6-1.6 4.4 5.4 4.4 5.6 4.9-1.4.9.6 3.6.7 5 1.4.7 9.6.5 12 6.6 7.3 2.1 3 1.9 2 1.9 2-5.6 6.1-8 3-7.3 12.7.2 3.4 1.3 2.9 5.4 3.8-8.4 0-11.2 0-19.9 0" fill="url(#0)"/><path d="m20 16c2.5-.6 3.8-1 4.6-3.2 3.4-11 1.8-14.5-3.8-21 .3-.4 2.2-.9 2.6-1.6 4.4 5.4 4.4 5.6 4.9-1.4.9.6 3.6.7 5 1.4.7 9.6.5 12 6.6 7.3 2.1 3 1.9 2 1.9 2-5.6 6.1-8 3-7.3 12.7.2 3.4 1.3 2.9 5.4 3.8-8.4 0-11.2 0-19.9 0" fill="url(#6)"/><path d="m-14.3 61.8c2.5-.6 3.8-1 4.6-3.2 3.4-11 1.8-14.5-3.8-21 .3-.4 2.2-.9 2.6-1.6 4.4 5.4 4.4 5.6 4.9-1.4.9.6 3.6.7 5 1.4.7 9.6.5 12 6.6 7.3 2.1 3 1.9 2 1.9 2-5.6 6.1-8 3-7.3 12.7.2 3.4 1.3 2.9 5.4 3.8-8.4 0-11.2 0-19.9 0" fill="url(#7)"/><path d="m31 85c2.5-.6 3.8-1 4.6-3.2 3.4-11 1.8-14.5-3.8-21 .3-.4 2.2-.9 2.6-1.6 4.4 5.4 4.4 5.6 4.9-1.4.9.6 3.6.7 5 1.4.7 9.6.5 12 6.6 7.3 2.1 3 1.9 2 1.9 2-5.6 6.1-8 3-7.3 12.7.2 3.4 1.3 2.9 5.4 3.8-8.4 0-11.2 0-19.9 0" fill="url(#4)"/><path d="m112 80c2.5-.6 3.8-1 4.6-3.2 3.4-11 1.8-14.5-3.8-21 .3-.4 2.2-.9 2.6-1.6 4.4 5.4 4.4 5.6 4.9-1.4.9.6 3.6.7 5 1.4.7 9.6.5 12 6.6 7.3 2.1 3 1.9 2 1.9 2-5.6 6.1-8 3-7.3 12.7.2 3.4 1.3 2.9 5.4 3.8-8.4 0-11.2 0-19.9 0" fill="url(#2)"/><path d="m142 28c2.5-.6 3.8-1 4.6-3.2 3.4-11 1.8-14.5-3.8-21 .3-.4 2.2-.9 2.6-1.6 4.4 5.4 4.4 5.6 4.9-1.4.9.6 3.6.7 5 1.4.7 9.6.5 12 6.6 7.3 2.1 3 1.9 2 1.9 2-5.6 6.1-8 3-7.3 12.7.2 3.4 1.3 2.9 5.4 3.8-8.4 0-11.2 0-19.9 0" fill="url(#1)"/><path d="m190-68.8c2.5-.6 3.8-1 4.6-3.2 3.4-11 1.8-14.5-3.8-21 .3-.4 2.2-.9 2.6-1.6 4.4 5.4 4.4 5.6 4.9-1.4.9.6 3.6.7 5 1.4.7 9.6.5 12 6.6 7.3 2.1 3 1.9 2 1.9 2-5.6 6.1-8 3-7.3 12.7.2 3.4 1.3 2.9 5.4 3.8-8.4 0-11.2 0-19.9 0" fill="url(#G)"/><path d="m167-17.4c2.5-.6 3.8-1 4.6-3.2 3.4-11 1.8-14.5-3.8-21 .3-.4 2.2-.9 2.6-1.6 4.4 5.4 4.4 5.6 4.9-1.4.9.6 3.6.7 5 1.4.7 9.6.5 12 6.6 7.3 2.1 3 1.9 2 1.9 2-5.6 6.1-8 3-7.3 12.7.2 3.4 1.3 2.9 5.4 3.8-8.4 0-11.2 0-19.9 0" fill="url(#I)"/><path d="m178 61.8c2.5-.6 3.8-1 4.6-3.2 3.4-11 1.8-14.5-3.8-21 .3-.4 2.2-.9 2.6-1.6 4.4 5.4 4.4 5.6 4.9-1.4.9.6 3.6.7 5 1.4.7 9.6.5 12 6.6 7.3 2.1 3 1.9 2 1.9 2-5.6 6.1-8 3-7.3 12.7.2 3.4 1.3 2.9 5.4 3.8-8.4 0-11.2 0-19.9 0" fill="url(#D)"/><path d="m-1.9 123c2.5-.6 3.8-1 4.6-3.2 3.4-11 1.8-14.5-3.8-21 .3-.4 2.2-.9 2.6-1.6 4.4 5.4 4.4 5.6 4.9-1.4.9.6 3.6.7 5 1.4.7 9.6.5 12 6.6 7.3 2.1 3 1.9 2 1.9 2-5.6 6.1-8 3-7.3 12.7.2 3.4 1.3 2.9 5.4 3.8-8.4 0-11.2 0-19.9 0" fill="url(#C)"/><path d="m65 118c2.5-.6 3.8-1 4.6-3.2 3.4-11 1.8-14.5-3.8-21 .3-.4 2.2-.9 2.6-1.6 4.4 5.4 4.4 5.6 4.9-1.4.9.6 3.6.7 5 1.4.7 9.6.5 12 6.6 7.3 2.1 3 1.9 2 1.9 2-5.6 6.1-8 3-7.3 12.7.2 3.4 1.3 2.9 5.4 3.8-8.4 0-11.2 0-19.9 0" fill="url(#J)"/><path d="m130 133c2.5-.6 3.8-1 4.6-3.2 3.4-11 1.8-14.5-3.8-21 .3-.4 2.2-.9 2.6-1.6 4.4 5.4 4.4 5.6 4.9-1.4.9.6 3.6.7 5 1.4.7 9.6.5 12 6.6 7.3 2.1 3 1.9 2 1.9 2-5.6 6.1-8 3-7.3 12.7.2 3.4 1.3 2.9 5.4 3.8-8.4 0-11.2 0-19.9 0" fill="url(#F)"/><path d="m190 123c2.5-.6 3.8-1 4.6-3.2 3.4-11 1.8-14.5-3.8-21 .3-.4 2.2-.9 2.6-1.6 4.4 5.4 4.4 5.6 4.9-1.4.9.6 3.6.7 5 1.4.7 9.6.5 12 6.6 7.3 2.1 3 1.9 2 1.9 2-5.6 6.1-8 3-7.3 12.7.2 3.4 1.3 2.9 5.4 3.8-8.4 0-11.2 0-19.9 0" fill="url(#H)"/></g><g fill="#228b22" color-rendering="auto" color-interpolation-filters="linearRGB" shape-rendering="auto" fill-rule="evenodd" image-rendering="auto" fill-opacity=".3" color-interpolation="sRGB" color="#000000" transform="matrix(-.79.61-.61-.79 0 0)"><path d="m48.915061-76.42519a5.706111 5.706111 0 0 1 -5.208791 5.684398 5.706111 5.706111 0 0 1 -6.116743 -4.693542 5.706111 5.706111 0 0 1 4.142573 -6.502536"/><path d="m22.447452-110.20582a5.706111 5.706111 0 0 1 -5.208791 5.6844 5.706111 5.706111 0 0 1 -6.116743 -4.69354 5.706111 5.706111 0 0 1 4.142572 -6.50254"/><path d="m42.28963-43.45857a5.706111 5.706111 0 0 1 -5.208791 5.684398 5.706111 5.706111 0 0 1 -6.116744 -4.693542 5.706111 5.706111 0 0 1 4.142573 -6.502536"/><path d="m22.980114-79.07307a5.706111 5.706111 0 0 1 -5.208792 5.684398 5.706111 5.706111 0 0 1 -6.116743 -4.693543 5.706111 5.706111 0 0 1 4.142573 -6.502536"/><path d="m-4.509883-59.67421a5.706111 5.706111 0 0 1 -5.208791 5.684398 5.706111 5.706111 0 0 1 -6.116744 -4.693542 5.706111 5.706111 0 0 1 4.142573 -6.502536"/><path d="m-14.646489-91.63762a5.706111 5.706111 0 0 1 -5.208791 5.684398 5.706111 5.706111 0 0 1 -6.116743 -4.693542 5.706111 5.706111 0 0 1 4.142573 -6.502536"/><path d="m13.79935-31.996185a5.706111 5.706111 0 0 1 -5.208791 5.684398 5.706111 5.706111 0 0 1 -6.116743 -4.693542 5.706111 5.706111 0 0 1 4.142573 -6.502537"/><path d="m-47.830121-85.35216a5.706111 5.706111 0 0 1 -5.208791 5.684398 5.706111 5.706111 0 0 1 -6.116743 -4.693542 5.706111 5.706111 0 0 1 4.142573 -6.502537"/><path d="m-39.479294-49.00813a5.706111 5.706111 0 0 1 -5.208791 5.684398 5.706111 5.706111 0 0 1 -6.116744 -4.693542 5.706111 5.706111 0 0 1 4.142573 -6.502537"/><path d="m33.572084-144.21054a5.706111 5.706111 0 0 1 -5.208791 5.6844 5.706111 5.706111 0 0 1 -6.116743 -4.69354 5.706111 5.706111 0 0 1 4.142572 -6.50254"/><path d="m93.43393-90.39896a5.706111 5.706111 0 0 1 -5.208791 5.684398 5.706111 5.706111 0 0 1 -6.116743 -4.693542 5.706111 5.706111 0 0 1 4.142572 -6.502536"/><path d="M20.382556 4.803434A5.706111 5.706111 0 0 1 15.173765 10.487832 5.706111 5.706111 0 0 1 9.05702 5.79429 5.706111 5.706111 0 0 1 13.199595 -.708246"/><path d="m-11.65054-135.58234a5.706111 5.706111 0 0 1 -5.208791 5.6844 5.706111 5.706111 0 0 1 -6.116743 -4.69354 5.706111 5.706111 0 0 1 4.142572 -6.50254"/><path d="m56.30833-111.00848a5.706111 5.706111 0 0 1 -5.208791 5.6844 5.706111 5.706111 0 0 1 -6.116743 -4.69354 5.706111 5.706111 0 0 1 4.142573 -6.50254"/><path d="m-16.743044-15.806086a5.706111 5.706111 0 0 1 -5.208791 5.684398 5.706111 5.706111 0 0 1 -6.116744 -4.693542 5.706111 5.706111 0 0 1 4.142573 -6.502536"/><path d="m-1.966817-163.60252a5.706111 5.706111 0 0 1 -5.208791 5.68439 5.706111 5.706111 0 0 1 -6.116744 -4.69354 5.706111 5.706111 0 0 1 4.142573 -6.50253"/><path d="m-75.01819-68.40013a5.706111 5.706111 0 0 1 -5.208791 5.684398 5.706111 5.706111 0 0 1 -6.116743 -4.693542 5.706111 5.706111 0 0 1 4.142572 -6.502537"/><path d="m-81.50222-105.12366a5.706111 5.706111 0 0 1 -5.208792 5.684401 5.706111 5.706111 0 0 1 -6.116743 -4.693541 5.706111 5.706111 0 0 1 4.142573 -6.50254"/><path d="m-53.01195-116.58604a5.706111 5.706111 0 0 1 -5.208791 5.6844 5.706111 5.706111 0 0 1 -6.116743 -4.69354 5.706111 5.706111 0 0 1 4.142572 -6.50254"/><path d="m-46.03942-149.28633a5.706111 5.706111 0 0 1 -5.208791 5.6844 5.706111 5.706111 0 0 1 -6.116743 -4.69355 5.706111 5.706111 0 0 1 4.142573 -6.50253"/></g></svg>