<svg xmlns="http://www.w3.org/2000/svg" xmlns:xlink="http://www.w3.org/1999/xlink" width="120" height="120" viewBox="0 0 120 120"><defs><linearGradient gradientTransform="matrix(.52 0 0 .42 19.44-319.7)" xlink:href="#3" id="J" x1="53.7" y1="994" x2="36.6" y2="995" gradientUnits="userSpaceOnUse"/><linearGradient gradientTransform="matrix(.52 0 0 .42 90.1-354.7)" xlink:href="#3" id="D" x1="53.7" y1="994" x2="36.6" y2="995" gradientUnits="userSpaceOnUse"/><linearGradient gradientTransform="matrix(.52 0 0 .42-22.2-436.5)" xlink:href="#3" id="B" x1="53.7" y1="994" x2="36.6" y2="995" gradientUnits="userSpaceOnUse"/><linearGradient gradientTransform="matrix(.52 0 0 .42-22.2-316.6)" xlink:href="#3" id="C" x1="53.7" y1="994" x2="36.6" y2="995" gradientUnits="userSpaceOnUse"/><linearGradient gradientTransform="matrix(.52 0 0 .42 23.51-366.6)" xlink:href="#3" id="E" x1="53.7" y1="994" x2="36.6" y2="995" gradientUnits="userSpaceOnUse"/><linearGradient gradientTransform="matrix(.52 0 0 .42 60.1-310.8)" xlink:href="#3" id="F" x1="53.7" y1="994" x2="36.6" y2="995" gradientUnits="userSpaceOnUse"/><linearGradient gradientTransform="matrix(.52 0 0 .42 83.2-404.6)" xlink:href="#3" id="I" x1="53.7" y1="994" x2="36.6" y2="995" gradientUnits="userSpaceOnUse"/><linearGradient gradientTransform="matrix(.52 0 0 .42 97.6-436.5)" xlink:href="#3" id="G" x1="53.7" y1="994" x2="36.6" y2="995" gradientUnits="userSpaceOnUse"/><linearGradient gradientTransform="matrix(.52 0 0 .42 97.6-316.6)" xlink:href="#3" id="H" x1="53.7" y1="994" x2="36.6" y2="995" gradientUnits="userSpaceOnUse"/><linearGradient gradientTransform="matrix(.52 0 0 .42 19.44-439.7)" xlink:href="#3" id="A" x1="53.7" y1="994" x2="36.6" y2="995" gradientUnits="userSpaceOnUse"/><linearGradient gradientTransform="matrix(.52 0 0 .42 60.1-430.8)" xlink:href="#3" id="9" x1="53.7" y1="994" x2="36.6" y2="995" gradientUnits="userSpaceOnUse"/><linearGradient gradientTransform="matrix(.52 0 0 .42 48.81-343.9)" xlink:href="#3" id="2" x1="53.7" y1="994" x2="36.6" y2="995" gradientUnits="userSpaceOnUse"/><linearGradient gradientTransform="matrix(.52 0 0 .42 39.81-398.4)" xlink:href="#3" id="0" x1="53.7" y1="994" x2="36.6" y2="995" gradientUnits="userSpaceOnUse"/><linearGradient gradientTransform="matrix(.52 0 0 .42 67.6-375.9)" xlink:href="#3" id="1" x1="53.7" y1="994" x2="36.6" y2="995" gradientUnits="userSpaceOnUse"/><linearGradient id="3"><stop stop-color="#505145"/><stop offset="1" stop-opacity="0"/></linearGradient><linearGradient gradientTransform="matrix(.52 0 0 .42 6.81-412.1)" xlink:href="#3" id="8" x1="53.7" y1="994" x2="36.6" y2="995" gradientUnits="userSpaceOnUse"/><linearGradient gradientTransform="matrix(.52 0 0 .42-1.58-340.3)" xlink:href="#3" id="4" x1="53.7" y1="994" x2="36.6" y2="995" gradientUnits="userSpaceOnUse"/><linearGradient gradientTransform="matrix(.52 0 0 .42-29.94-354.7)" xlink:href="#3" id="7" x1="53.7" y1="994" x2="36.6" y2="995" gradientUnits="userSpaceOnUse"/><linearGradient gradientTransform="matrix(.52 0 0 .42-36.81-404.6)" xlink:href="#3" id="5" x1="53.7" y1="994" x2="36.6" y2="995" gradientUnits="userSpaceOnUse"/><linearGradient gradientTransform="matrix(.52 0 0 .42-8.46-383.4)" xlink:href="#3" id="6" x1="53.7" y1="994" x2="36.6" y2="995" gradientUnits="userSpaceOnUse"/></defs><path mix-blend-mode="normal" isolation="auto" d="m0 0h120v120h-120" fill="#008000" color-rendering="auto" solid-opacity="1" color-interpolation-filters="linearRGB" shape-rendering="auto" fill-rule="evenodd" image-rendering="auto" fill-opacity=".12" color-interpolation="sRGB" color="#000000" solid-color="#000000"/><g stroke="#604713" stroke-width=".28"><path d="m46.2 69.7c1.17-.28 1.78-.47 2.16-1.5 1.59-5.16.84-6.8-1.78-9.84.14-.19 1.03-.42 1.22-.75 2.06 2.53 2.06 2.63 2.3-.66.42.28 1.69.33 2.34.66.33 4.5.23 5.63 3.09 3.42.98 1.41.89.94.89.94-2.63 2.86-3.75 1.41-3.42 5.95.09 1.59.61 1.36 2.53 1.78-3.94 0-5.25 0-9.33 0" fill="url(#E)"/><path d="m.59-.02c1.17-.28 1.78-.47 2.16-1.5 1.59-5.16.84-6.8-1.78-9.84.14-.19 1.03-.42 1.22-.75 2.06 2.53 2.06 2.62 2.3-.66.42.28 1.69.33 2.34.66.33 4.5.23 5.62 3.09 3.42.98 1.41.89.94.89.94-2.62 2.86-3.75 1.41-3.42 5.95.09 1.59.61 1.36 2.53 1.78-3.94 0-5.25 0-9.33 0" fill="url(#B)"/><path d="m42.4-3.27c1.17-.28 1.78-.47 2.16-1.5 1.59-5.16.84-6.8-1.78-9.84.14-.19 1.03-.42 1.22-.75 2.06 2.53 2.06 2.63 2.3-.66.42.28 1.69.33 2.34.66.33 4.5.23 5.62 3.09 3.42.98 1.41.89.94.89.94-2.63 2.86-3.75 1.41-3.42 5.95.09 1.59.61 1.36 2.53 1.78-3.94 0-5.25 0-9.33 0" fill="url(#A)"/><path d="m83 6.11c1.17-.28 1.78-.47 2.16-1.5 1.59-5.16.84-6.8-1.78-9.84.14-.19 1.03-.42 1.22-.75 2.06 2.53 2.06 2.63 2.3-.66.42.28 1.69.33 2.34.66.33 4.5.23 5.63 3.09 3.42.98 1.41.89.94.89.94-2.63 2.86-3.75 1.41-3.42 5.95.09 1.59.61 1.36 2.53 1.78-3.94 0-5.25 0-9.33 0" fill="url(#9)"/><path d="m-14 32.1c1.17-.28 1.78-.47 2.16-1.5 1.59-5.16.84-6.8-1.78-9.84.14-.19 1.03-.42 1.22-.75 2.06 2.53 2.06 2.63 2.3-.66.42.28 1.69.33 2.34.66.33 4.5.23 5.63 3.09 3.42.98 1.41.89.94.89.94-2.63 2.86-3.75 1.41-3.42 5.95.09 1.59.61 1.36 2.53 1.78-3.94 0-5.25 0-9.33 0" fill="url(#5)"/><path d="m29.59 24.36c1.17-.28 1.78-.47 2.16-1.5 1.59-5.16.84-6.8-1.78-9.84.14-.19 1.03-.42 1.22-.75 2.06 2.53 2.06 2.63 2.3-.66.42.28 1.69.33 2.34.66.33 4.5.23 5.63 3.09 3.42.98 1.41.89.94.89.94-2.63 2.86-3.75 1.41-3.42 5.95.09 1.59.61 1.36 2.53 1.78-3.94 0-5.25 0-9.33 0" fill="url(#8)"/><path d="m62.4 38.2c1.17-.28 1.78-.47 2.16-1.5 1.59-5.16.84-6.8-1.78-9.84.14-.19 1.03-.42 1.22-.75 2.06 2.53 2.06 2.63 2.3-.66.42.28 1.69.33 2.34.66.33 4.5.23 5.63 3.09 3.42.98 1.41.89.94.89.94-2.63 2.86-3.75 1.41-3.42 5.95.09 1.59.61 1.36 2.53 1.78-3.94 0-5.25 0-9.33 0" fill="url(#0)"/><path d="m14.28 52.98c1.17-.28 1.78-.47 2.16-1.5 1.59-5.16.84-6.8-1.78-9.84.14-.19 1.03-.42 1.22-.75 2.06 2.53 2.06 2.63 2.3-.66.42.28 1.69.33 2.34.66.33 4.5.23 5.63 3.09 3.42.98 1.41.89.94.89.94-2.63 2.86-3.75 1.41-3.42 5.95.09 1.59.61 1.36 2.53 1.78-3.94 0-5.25 0-9.33 0" fill="url(#6)"/><path d="m-7.16 81.6c1.17-.28 1.78-.47 2.16-1.5 1.59-5.16.84-6.8-1.78-9.84.14-.19 1.03-.42 1.22-.75 2.06 2.53 2.06 2.63 2.3-.66.42.28 1.69.33 2.34.66.33 4.5.23 5.63 3.09 3.42.98 1.41.89.94.89.94-2.62 2.86-3.75 1.41-3.42 5.95.09 1.59.61 1.36 2.53 1.78-3.94 0-5.25 0-9.33 0" fill="url(#7)"/><path d="m21.2 96.1c1.17-.28 1.78-.47 2.16-1.5 1.59-5.16.84-6.8-1.78-9.84.14-.19 1.03-.42 1.22-.75 2.06 2.53 2.06 2.63 2.3-.66.42.28 1.69.33 2.34.66.33 4.5.23 5.63 3.09 3.42.98 1.41.89.94.89.94-2.63 2.86-3.75 1.41-3.42 5.95.09 1.59.61 1.36 2.53 1.78-3.94 0-5.25 0-9.33 0" fill="url(#4)"/><path d="m71.8 93c1.17-.28 1.78-.47 2.16-1.5 1.59-5.16.84-6.8-1.78-9.84.14-.19 1.03-.42 1.22-.75 2.06 2.53 2.06 2.63 2.3-.66.42.28 1.69.33 2.34.66.33 4.5.23 5.63 3.09 3.42.98 1.41.89.94.89.94-2.63 2.86-3.75 1.41-3.42 5.95.09 1.59.61 1.36 2.53 1.78-3.94 0-5.25 0-9.33 0" fill="url(#2)"/><path d="m90.5 60.5c1.17-.28 1.78-.47 2.16-1.5 1.59-5.16.84-6.8-1.78-9.84.14-.19 1.03-.42 1.22-.75 2.06 2.53 2.06 2.63 2.3-.66.42.28 1.69.33 2.34.66.33 4.5.23 5.63 3.09 3.42.98 1.41.89.94.89.94-2.63 2.86-3.75 1.41-3.42 5.95.09 1.59.61 1.36 2.53 1.78-3.94 0-5.25 0-9.33 0" fill="url(#1)"/><path d="m120.5-.02c1.17-.28 1.78-.47 2.16-1.5 1.59-5.16.84-6.8-1.78-9.84.14-.19 1.03-.42 1.22-.75 2.06 2.53 2.06 2.62 2.3-.66.42.28 1.69.33 2.34.66.33 4.5.23 5.62 3.09 3.42.98 1.41.89.94.89.94-2.63 2.86-3.75 1.41-3.42 5.95.09 1.59.61 1.36 2.53 1.78-3.94 0-5.25 0-9.33 0" fill="url(#G)"/><path d="m106.2 32.1c1.17-.28 1.78-.47 2.16-1.5 1.59-5.16.84-6.8-1.78-9.84.14-.19 1.03-.42 1.22-.75 2.06 2.53 2.06 2.63 2.3-.66.42.28 1.69.33 2.34.66.33 4.5.23 5.63 3.09 3.42.98 1.41.89.94.89.94-2.63 2.86-3.75 1.41-3.42 5.95.09 1.59.61 1.36 2.53 1.78-3.94 0-5.25 0-9.33 0" fill="url(#I)"/><path d="m113 81.6c1.17-.28 1.78-.47 2.16-1.5 1.59-5.16.84-6.8-1.78-9.84.14-.19 1.03-.42 1.22-.75 2.06 2.53 2.06 2.63 2.3-.66.42.28 1.69.33 2.34.66.33 4.5.23 5.63 3.09 3.42.98 1.41.89.94.89.94-2.63 2.86-3.75 1.41-3.42 5.95.09 1.59.61 1.36 2.53 1.78-3.94 0-5.25 0-9.33 0" fill="url(#D)"/><path d="m.59 119.9c1.17-.28 1.78-.47 2.16-1.5 1.59-5.16.84-6.8-1.78-9.84.14-.19 1.03-.42 1.22-.75 2.06 2.53 2.06 2.63 2.3-.66.42.28 1.69.33 2.34.66.33 4.5.23 5.63 3.09 3.42.98 1.41.89.94.89.94-2.62 2.86-3.75 1.41-3.42 5.95.09 1.59.61 1.36 2.53 1.78-3.94 0-5.25 0-9.33 0" fill="url(#C)"/><path d="m42.4 116.7c1.17-.28 1.78-.47 2.16-1.5 1.59-5.16.84-6.8-1.78-9.84.14-.19 1.03-.42 1.22-.75 2.06 2.53 2.06 2.63 2.3-.66.42.28 1.69.33 2.34.66.33 4.5.23 5.63 3.09 3.42.98 1.41.89.94.89.94-2.63 2.86-3.75 1.41-3.42 5.95.09 1.59.61 1.36 2.53 1.78-3.94 0-5.25 0-9.33 0" fill="url(#J)"/><path d="m83 126.1c1.17-.28 1.78-.47 2.16-1.5 1.59-5.16.84-6.8-1.78-9.84.14-.19 1.03-.42 1.22-.75 2.06 2.53 2.06 2.63 2.3-.66.42.28 1.69.33 2.34.66.33 4.5.23 5.63 3.09 3.42.98 1.41.89.94.89.94-2.63 2.86-3.75 1.41-3.42 5.95.09 1.59.61 1.36 2.53 1.78-3.94 0-5.25 0-9.33 0" fill="url(#F)"/><path d="m120.5 119.9c1.17-.28 1.78-.47 2.16-1.5 1.59-5.16.84-6.8-1.78-9.84.14-.19 1.03-.42 1.22-.75 2.06 2.53 2.06 2.63 2.3-.66.42.28 1.69.33 2.34.66.33 4.5.23 5.63 3.09 3.42.98 1.41.89.94.89.94-2.63 2.86-3.75 1.41-3.42 5.95.09 1.59.61 1.36 2.53 1.78-3.94 0-5.25 0-9.33 0" fill="url(#H)"/></g><g fill="#359505" color-rendering="auto" color-interpolation-filters="linearRGB" shape-rendering="auto" fill-rule="evenodd" image-rendering="auto" fill-opacity=".3" color-interpolation="sRGB" color="#000000" transform="matrix(-.79.61-.61-.79 0 0)"><path d="m48.915061-76.42519a5.706111 5.706111 0 0 1 -5.208791 5.684398 5.706111 5.706111 0 0 1 -6.116743 -4.693542 5.706111 5.706111 0 0 1 4.142573 -6.502536"/><path d="m22.447452-110.20582a5.706111 5.706111 0 0 1 -5.208791 5.6844 5.706111 5.706111 0 0 1 -6.116743 -4.69354 5.706111 5.706111 0 0 1 4.142572 -6.50254"/><path d="m42.28963-43.45857a5.706111 5.706111 0 0 1 -5.208791 5.684398 5.706111 5.706111 0 0 1 -6.116744 -4.693542 5.706111 5.706111 0 0 1 4.142573 -6.502536"/><path d="m22.980114-79.07307a5.706111 5.706111 0 0 1 -5.208792 5.684398 5.706111 5.706111 0 0 1 -6.116743 -4.693543 5.706111 5.706111 0 0 1 4.142573 -6.502536"/><path d="m-4.509883-59.67421a5.706111 5.706111 0 0 1 -5.208791 5.684398 5.706111 5.706111 0 0 1 -6.116744 -4.693542 5.706111 5.706111 0 0 1 4.142573 -6.502536"/><path d="m-14.646489-91.63762a5.706111 5.706111 0 0 1 -5.208791 5.684398 5.706111 5.706111 0 0 1 -6.116743 -4.693542 5.706111 5.706111 0 0 1 4.142573 -6.502536"/><path d="m13.79935-31.996185a5.706111 5.706111 0 0 1 -5.208791 5.684398 5.706111 5.706111 0 0 1 -6.116743 -4.693542 5.706111 5.706111 0 0 1 4.142573 -6.502537"/><path d="m-47.830121-85.35216a5.706111 5.706111 0 0 1 -5.208791 5.684398 5.706111 5.706111 0 0 1 -6.116743 -4.693542 5.706111 5.706111 0 0 1 4.142573 -6.502537"/><path d="m-39.479294-49.00813a5.706111 5.706111 0 0 1 -5.208791 5.684398 5.706111 5.706111 0 0 1 -6.116744 -4.693542 5.706111 5.706111 0 0 1 4.142573 -6.502537"/><path d="m33.572084-144.21054a5.706111 5.706111 0 0 1 -5.208791 5.6844 5.706111 5.706111 0 0 1 -6.116743 -4.69354 5.706111 5.706111 0 0 1 4.142572 -6.50254"/><path d="m93.43393-90.39896a5.706111 5.706111 0 0 1 -5.208791 5.684398 5.706111 5.706111 0 0 1 -6.116743 -4.693542 5.706111 5.706111 0 0 1 4.142572 -6.502536"/><path d="M20.382556 4.803434A5.706111 5.706111 0 0 1 15.173765 10.487832 5.706111 5.706111 0 0 1 9.05702 5.79429 5.706111 5.706111 0 0 1 13.199595 -.708246"/><path d="m-11.65054-135.58234a5.706111 5.706111 0 0 1 -5.208791 5.6844 5.706111 5.706111 0 0 1 -6.116743 -4.69354 5.706111 5.706111 0 0 1 4.142572 -6.50254"/><path d="m56.30833-111.00848a5.706111 5.706111 0 0 1 -5.208791 5.6844 5.706111 5.706111 0 0 1 -6.116743 -4.69354 5.706111 5.706111 0 0 1 4.142573 -6.50254"/><path d="m-16.743044-15.806086a5.706111 5.706111 0 0 1 -5.208791 5.684398 5.706111 5.706111 0 0 1 -6.116744 -4.693542 5.706111 5.706111 0 0 1 4.142573 -6.502536"/><path d="m-1.966817-163.60252a5.706111 5.706111 0 0 1 -5.208791 5.68439 5.706111 5.706111 0 0 1 -6.116744 -4.69354 5.706111 5.706111 0 0 1 4.142573 -6.50253"/><path d="m-75.01819-68.40013a5.706111 5.706111 0 0 1 -5.208791 5.684398 5.706111 5.706111 0 0 1 -6.116743 -4.693542 5.706111 5.706111 0 0 1 4.142572 -6.502537"/><path d="m-81.50222-105.12366a5.706111 5.706111 0 0 1 -5.208792 5.684401 5.706111 5.706111 0 0 1 -6.116743 -4.693541 5.706111 5.706111 0 0 1 4.142573 -6.50254"/><path d="m-53.01195-116.58604a5.706111 5.706111 0 0 1 -5.208791 5.6844 5.706111 5.706111 0 0 1 -6.116743 -4.69354 5.706111 5.706111 0 0 1 4.142572 -6.50254"/><path d="m-46.03942-149.28633a5.706111 5.706111 0 0 1 -5.208791 5.6844 5.706111 5.706111 0 0 1 -6.116743 -4.69355 5.706111 5.706111 0 0 1 4.142573 -6.50253"/></g></svg>