<svg xmlns="http://www.w3.org/2000/svg" xmlns:xlink="http://www.w3.org/1999/xlink" width="192" height="192" viewBox="0 0 192 192"><defs><linearGradient gradientTransform="matrix(.9 0 0 .68 57.81-631.8)" xlink:href="#C" id="J" x1="59.2" y1="1028" x2="45.66" y2="1012" gradientUnits="userSpaceOnUse"/><linearGradient gradientTransform="matrix(.9 0 0 .68-18.83-608.6)" xlink:href="#C" id="D" x1="59.2" y1="1028" x2="45.66" y2="1012" gradientUnits="userSpaceOnUse"/><linearGradient gradientTransform="matrix(.9 0 0 .68-60.2-642.2)" xlink:href="#C" id="B" x1="59.2" y1="1028" x2="45.66" y2="1012" gradientUnits="userSpaceOnUse"/><linearGradient id="C"><stop stop-color="#323b10"/><stop offset="1" stop-opacity="0"/></linearGradient><linearGradient gradientTransform="matrix(.9 0 0 .68-36.51-692)" xlink:href="#C" id="E" x1="59.2" y1="1028" x2="45.66" y2="1012" gradientUnits="userSpaceOnUse"/><linearGradient gradientTransform="matrix(.9 0 0 .68-66.7-551.8)" xlink:href="#C" id="F" x1="59.2" y1="1028" x2="45.66" y2="1012" gradientUnits="userSpaceOnUse"/><linearGradient gradientTransform="matrix(.9 0 0 .68 29.45-703.4)" xlink:href="#C" id="I" x1="59.2" y1="1028" x2="45.66" y2="1012" gradientUnits="userSpaceOnUse"/><linearGradient gradientTransform="matrix(.9 0 0 .68 8.41-659.9)" xlink:href="#C" id="G" x1="59.2" y1="1028" x2="45.66" y2="1012" gradientUnits="userSpaceOnUse"/><linearGradient gradientTransform="matrix(.9 0 0 .68 96.2-674.4)" xlink:href="#C" id="H" x1="59.2" y1="1028" x2="45.66" y2="1012" gradientUnits="userSpaceOnUse"/><linearGradient gradientTransform="matrix(.9 0 0 .68-5.64-537.6)" xlink:href="#C" id="A" x1="59.2" y1="1028" x2="45.66" y2="1012" gradientUnits="userSpaceOnUse"/><linearGradient gradientTransform="matrix(.9 0 0 .68 43.5-578.6)" xlink:href="#C" id="9" x1="59.2" y1="1028" x2="45.66" y2="1012" gradientUnits="userSpaceOnUse"/><linearGradient gradientTransform="matrix(.9 0 0 .68 103.2-601.7)" xlink:href="#C" id="2" x1="59.2" y1="1028" x2="45.66" y2="1012" gradientUnits="userSpaceOnUse"/><linearGradient xlink:href="#C" id="0" gradientUnits="userSpaceOnUse" gradientTransform="matrix(.9 0 0 .68 125.3-551.8)" x1="59.2" y1="1028" x2="45.66" y2="1012"/><linearGradient xlink:href="#C" id="1" gradientUnits="userSpaceOnUse" gradientTransform="matrix(.9 0 0 .68 155.4-692)" x1="59.2" y1="1028" x2="45.66" y2="1012"/><linearGradient gradientTransform="matrix(.9 0 0 .68 81.91-527.4)" xlink:href="#C" id="3" x1="59.2" y1="1028" x2="45.66" y2="1012" gradientUnits="userSpaceOnUse"/><linearGradient xlink:href="#C" id="8" gradientUnits="userSpaceOnUse" gradientTransform="matrix(.9 0 0 .68 155.4-500)" x1="59.2" y1="1028" x2="45.66" y2="1012"/><linearGradient xlink:href="#C" id="4" gradientUnits="userSpaceOnUse" gradientTransform="matrix(.9 0 0 .68-36.59-500)" x1="59.2" y1="1028" x2="45.66" y2="1012"/><linearGradient xlink:href="#C" id="7" gradientUnits="userSpaceOnUse" gradientTransform="matrix(.9 0 0 .68 96.2-482.4)" x1="59.2" y1="1028" x2="45.66" y2="1012"/><linearGradient xlink:href="#C" id="5" gradientUnits="userSpaceOnUse" gradientTransform="matrix(.9 0 0 .68 29.45-511.4)" x1="59.2" y1="1028" x2="45.66" y2="1012"/><linearGradient xlink:href="#C" id="6" gradientUnits="userSpaceOnUse" gradientTransform="matrix(.9 0 0 .68 131.8-642.2)" x1="59.2" y1="1028" x2="45.66" y2="1012"/></defs><g color-rendering="auto" color-interpolation-filters="linearRGB" shape-rendering="auto" fill-rule="evenodd" image-rendering="auto" color-interpolation="sRGB" color="#000000"><path d="m0 0h192v192h-192" isolation="auto" mix-blend-mode="normal" fill="#008000" solid-opacity="1" fill-opacity=".12" solid-color="#000000"/><g fill="#008446" fill-opacity=".3"><circle r="9.8" cy="131" cx="17.6"/><circle r="9.8" cy="148" cx="84"/><circle r="9.8" cy="82" cx="-6.1"/><circle r="9.8" cy="109" cx="53"/><circle r="9.8" cy="57" cx="68.8"/><circle r="9.8" cy="88" cx="113"/><circle r="9.8" cy="40" cx="18.9"/><circle r="9.8" cy="47.7" cx="149"/><circle r="9.8" cy="9.3" cx="103"/><circle r="9.8" cy="201" cx="103"/><circle r="9.8" cy="192" cx="-25.3"/><circle r="9.8" cy="-.3" cx="-25.3"/><circle r="9.8" cy="140" cx="134"/><circle r="9.8" cy="182" cx="41.9"/><circle r="9.8" cy="-9.9" cx="41.9"/><circle r="9.8" cy="192" cx="167"/><circle r="9.8" cy="-.3" cx="167"/><circle r="9.8" cy="40" cx="211"/><circle r="9.8" cy="82" cx="186"/><circle r="9.8" cy="131" cx="210"/></g></g><g stroke="#604713" stroke-width=".45"><path d="m23.44 81.2c7.6 2.5 11.51-2.93 15.34-6.91 0 0-.08 1.05.23 1.58.45.75 2.1 2.25 2.1 2.25-2.63 2.33-5.55 5.4-6.6 7.2-1.35 2.33 3 3.88 5.81 4.45h-17.8c0 0 5.84-1.17 6.35-1.68.95-.94.57-1.48-3.23-1.64.74-2.54.73-2.43-3.34-5z" fill="url(#D)"/><path d="m-17.98 47.61c7.6 2.5 11.51-2.93 15.34-6.91 0 0-.08 1.05.23 1.58.45.75 2.1 2.25 2.1 2.25-2.63 2.33-5.55 5.4-6.6 7.2-1.35 2.33 3 3.88 5.81 4.45h-17.81c0 0 5.84-1.17 6.35-1.68.95-.94.57-1.48-3.23-1.64.74-2.54.73-2.43-3.35-5z" fill="url(#B)"/><path d="m5.79-2.22c7.6 2.5 11.51-2.93 15.34-6.91 0 0-.07 1.05.23 1.58.45.75 2.1 2.25 2.1 2.25-2.63 2.33-5.55 5.4-6.6 7.2-1.35 2.33 3 3.88 5.81 4.45h-17.8c0 0 5.84-1.17 6.35-1.68.95-.94.57-1.49-3.23-1.64.74-2.54.73-2.43-3.35-5" fill="url(#E)"/><path d="m50.68 29.9c7.6 2.5 11.51-2.93 15.34-6.91 0 0-.08 1.05.22 1.57.45.75 2.1 2.25 2.1 2.25-2.63 2.32-5.55 5.4-6.6 7.2-1.35 2.33 3 3.88 5.81 4.45h-17.8c0 0 5.84-1.17 6.35-1.68.95-.94.57-1.48-3.23-1.64.74-2.54.73-2.43-3.34-5z" fill="url(#G)"/><path d="m71.7-13.59c7.6 2.5 11.51-2.93 15.34-6.91 0 0-.08 1.05.22 1.57.45.75 2.1 2.25 2.1 2.25-2.63 2.32-5.55 5.4-6.6 7.2-1.35 2.33 3 3.88 5.81 4.45h-17.8c0 0 5.83-1.17 6.35-1.68.94-.94.57-1.48-3.23-1.64.74-2.54.73-2.43-3.34-5z" fill="url(#I)"/><path d="m100.1 58c7.6 2.5 11.51-2.93 15.34-6.91 0 0-.08 1.05.22 1.58.45.75 2.1 2.25 2.1 2.25-2.63 2.33-5.55 5.4-6.6 7.2-1.35 2.32 3 3.88 5.81 4.45h-17.8c0 0 5.83-1.17 6.35-1.68.94-.94.57-1.48-3.23-1.64.74-2.54.73-2.43-3.34-5z" fill="url(#J)"/><path d="m138.4 15.42c7.6 2.5 11.51-2.93 15.34-6.91 0 0-.07 1.05.22 1.57.45.75 2.1 2.25 2.1 2.25-2.63 2.33-5.55 5.4-6.6 7.2-1.35 2.32 3 3.88 5.81 4.45h-17.81c0 0 5.84-1.17 6.35-1.68.94-.94.57-1.48-3.23-1.64.74-2.54.73-2.43-3.34-5z" fill="url(#H)"/><path d="m-24.39 138c7.6 2.5 11.51-2.93 15.34-6.91 0 0-.07 1.05.22 1.57.45.75 2.1 2.25 2.1 2.25-2.63 2.32-5.55 5.4-6.6 7.2-1.35 2.32 3 3.88 5.81 4.45h-17.81c0 0 5.84-1.17 6.35-1.68.95-.94.57-1.49-3.23-1.64.74-2.54.73-2.43-3.34-5z" fill="url(#F)"/><path d="m36.63 152.2c7.6 2.5 11.51-2.93 15.34-6.91 0 0-.08 1.05.23 1.57.45.75 2.1 2.25 2.1 2.25-2.63 2.32-5.55 5.4-6.6 7.2-1.35 2.32 3 3.88 5.81 4.45h-17.8c0 0 5.84-1.17 6.35-1.68.95-.94.57-1.49-3.23-1.64.74-2.54.73-2.43-3.34-5z" fill="url(#A)"/><path d="m85.7 111.2c7.6 2.5 11.51-2.93 15.34-6.91 0 0-.08 1.05.22 1.58.45.75 2.1 2.25 2.1 2.25-2.63 2.33-5.55 5.4-6.6 7.2-1.35 2.33 3 3.88 5.81 4.45h-17.8c0 0 5.83-1.17 6.35-1.68.94-.94.57-1.48-3.23-1.64.74-2.54.73-2.43-3.34-5z" fill="url(#9)"/><path d="m145.4 88.1c7.6 2.5 11.51-2.93 15.34-6.91 0 0-.07 1.05.22 1.58.45.75 2.1 2.25 2.1 2.25-2.63 2.33-5.55 5.4-6.6 7.2-1.35 2.33 3 3.88 5.81 4.45h-17.81c0 0 5.84-1.17 6.35-1.68.94-.94.57-1.48-3.23-1.64.74-2.54.73-2.43-3.34-5z" fill="url(#2)"/><path d="m124.2 162.4c7.6 2.5 11.51-2.93 15.34-6.91 0 0-.07 1.05.22 1.57.45.75 2.1 2.25 2.1 2.25-2.63 2.32-5.55 5.4-6.6 7.2-1.35 2.32 3 3.88 5.81 4.45h-17.81c0 0 5.84-1.17 6.35-1.68.94-.94.57-1.49-3.23-1.64.74-2.54.73-2.43-3.34-5z" fill="url(#3)"/><path d="m197.7-2.22c7.6 2.5 11.51-2.93 15.34-6.91 0 0-.07 1.05.22 1.58.45.75 2.1 2.25 2.1 2.25-2.63 2.33-5.55 5.4-6.6 7.2-1.35 2.33 3 3.88 5.81 4.45h-17.81c0 0 5.84-1.17 6.35-1.68.94-.94.57-1.49-3.23-1.64.74-2.54.73-2.43-3.34-5z" fill="url(#1)"/><path d="m5.71 189.8c7.6 2.5 11.51-2.93 15.34-6.91 0 0-.07 1.05.23 1.57.45.75 2.1 2.25 2.1 2.25-2.63 2.32-5.55 5.4-6.6 7.2-1.35 2.32 3 3.88 5.81 4.45h-17.8c0 0 5.83-1.17 6.35-1.68.95-.94.57-1.49-3.23-1.64.74-2.54.73-2.43-3.35-5z" fill="url(#4)"/><path d="m71.7 178.4c7.6 2.5 11.51-2.93 15.34-6.91 0 0-.08 1.05.22 1.57.45.75 2.1 2.25 2.1 2.25-2.63 2.32-5.55 5.4-6.6 7.2-1.35 2.32 3 3.88 5.81 4.45h-17.8c0 0 5.83-1.17 6.35-1.68.94-.94.57-1.49-3.23-1.64.74-2.54.73-2.43-3.34-5z" fill="url(#5)"/><path d="m138.4 207.4c7.6 2.5 11.51-2.93 15.34-6.91 0 0-.07 1.05.22 1.57.45.75 2.1 2.25 2.1 2.25-2.63 2.32-5.55 5.4-6.6 7.2-1.35 2.32 3 3.88 5.81 4.45h-17.81c0 0 5.84-1.17 6.35-1.68.94-.94.57-1.49-3.23-1.64.74-2.54.73-2.43-3.34-5z" fill="url(#7)"/><path d="m197.7 189.8c7.6 2.5 11.51-2.93 15.34-6.91 0 0-.07 1.05.22 1.57.45.75 2.1 2.25 2.1 2.25-2.63 2.32-5.55 5.4-6.6 7.2-1.35 2.32 3 3.88 5.81 4.45h-17.81c0 0 5.84-1.17 6.35-1.68.94-.94.57-1.49-3.23-1.64.74-2.54.73-2.43-3.34-5z" fill="url(#8)"/><path d="m174 47.61c7.6 2.5 11.51-2.93 15.34-6.91 0 0-.07 1.05.22 1.58.45.75 2.1 2.25 2.1 2.25-2.63 2.33-5.55 5.4-6.6 7.2-1.35 2.33 3 3.88 5.81 4.45h-17.81c0 0 5.84-1.17 6.35-1.68.94-.94.57-1.48-3.23-1.64.74-2.54.73-2.43-3.34-5z" fill="url(#6)"/><path d="m167.6 138c7.6 2.5 11.51-2.93 15.34-6.91 0 0-.07 1.05.22 1.57.45.75 2.1 2.25 2.1 2.25-2.63 2.32-5.55 5.4-6.6 7.2-1.35 2.32 3 3.88 5.81 4.45h-17.81c0 0 5.84-1.17 6.35-1.68.94-.94.57-1.49-3.23-1.64.74-2.54.73-2.43-3.34-5z" fill="url(#0)"/></g></svg>