<svg xmlns="http://www.w3.org/2000/svg" width="14" height="14" viewBox="0 0 14 14"><g transform="translate(0-1038.4)" fill-rule="evenodd"><rect width="12" height="8" x="1" y="1039.4" mix-blend-mode="normal" solid-color="#000000" color-interpolation-filters="linearRGB" fill-opacity=".94" color="#000000" image-rendering="auto" color-rendering="auto" isolation="auto" color-interpolation="sRGB" solid-opacity="1" fill="#ffffff" shape-rendering="auto"/><g fill="none" stroke="#aa8800"><path d="m2 1052.4v-5"/><path d="m12 1047.4v5"/></g><g color-rendering="auto" color-interpolation-filters="linearRGB" shape-rendering="auto" image-rendering="auto" color-interpolation="sRGB" color="#000000" transform="translate(0 1038.4)"><path d="m11.24 4.76l-2.83 2.83a2 2 0 0 1 .585938 1.414063h4a6 6 0 0 0 -1.757812 -4.242188" mix-blend-mode="normal" solid-color="#000000" isolation="auto" solid-opacity="1" fill="#dd0000"/><path d="m7 3v4a2 2 0 0 1 1 .265625 2 2 0 0 1 .414063 .318359l2.83-2.83a6 6 0 0 0 -4.242188 -1.757813" mix-blend-mode="normal" solid-color="#000000" isolation="auto" solid-opacity="1" fill="#ff9900"/><path d="M7 3A6 6 0 0 0 2.757813 4.757813L5.59 7.59A2 2 0 0 1 6 7.267578 2 2 0 0 1 7 7.00195V3" mix-blend-mode="normal" solid-color="#000000" isolation="auto" solid-opacity="1" fill="#ffff00"/><path d="M2.757813 4.769531A6 6 0 0 0 1 9.01172H7L6.99 9H5A2 2 0 0 1 5.582031 7.59375L2.76 4.77" mix-blend-mode="normal" solid-color="#000000" isolation="auto" solid-opacity="1" fill="#00ff00"/></g><rect width="12" height="8" x="1" y="1039.4" mix-blend-mode="normal" stroke-dashoffset="1.3" solid-color="#000000" color-interpolation-filters="linearRGB" color="#000000" image-rendering="auto" color-rendering="auto" isolation="auto" color-interpolation="sRGB" solid-opacity="1" fill="none" stroke="#aa8800" shape-rendering="auto"/></g></svg>