<svg xmlns="http://www.w3.org/2000/svg" width="14" height="14" viewBox="0 0 14 14"><path d="M 1,1 1,9 13,9 13,1 1,1 M 7,2 A 3.6,3 0 0 1 10.599609,5 3.6,3 0 0 1 7,8 3.6,3 0 0 1 3.400391,5 3.6,3 0 0 1 7,2" mix-blend-mode="normal" isolation="auto" fill="#ccaa33" color-rendering="auto" solid-opacity="1" color-interpolation-filters="linearRGB" shape-rendering="auto" fill-rule="evenodd" image-rendering="auto" color-interpolation="sRGB" color="#000000" solid-color="#000000"/><text transform="scale(1.1.91)" y="8.1" x="5.12" word-spacing="0" line-height="125%" letter-spacing="0" font-size="6.82" font-family="&apos;Bodoni Poster&apos;" fill="#aa8800"><tspan y="8.1" x="5.12">i</tspan></text><g transform="translate(0-1038.4)" fill="none" fill-rule="evenodd" stroke="#aa8800"><path d="m2 1052.4v-5"/><path d="m12 1047.4v5"/><rect isolation="auto" mix-blend-mode="normal" y="1039.4" x="1" height="8" width="12" color-rendering="auto" solid-opacity="1" color-interpolation-filters="linearRGB" shape-rendering="auto" image-rendering="auto" color-interpolation="sRGB" color="#000000" stroke-dashoffset="1.3" solid-color="#000000"/></g></svg>