<svg xmlns="http://www.w3.org/2000/svg" width="27" height="27" viewBox="0 0 27 27"><g fill-rule="evenodd"><path d="m6 15l2.03-3 2.97-.97h5l3 1 2 3 .04.99-4 4.51h-7l-4-4.5" fill="#9fa972"/><g fill="none" stroke="#aa8800"><path d="m1.48 14.57l12-12.57 12.1 12.48" stroke-width="1.5"/><path d="m4.5 13.5h18" stroke-width="1.3"/><g stroke-width="1.5"><path d="m4 15l5 6"/><path d="m23 15l-5 6"/></g><g stroke-width="1.3"><path d="m10.49 13.44v8"/><path d="m13.47 13.48v8"/><path d="m16.5 13.44v8"/><path d="m19.48 13.48l.05 5.63"/><path d="m7.46 13.53v5.49"/></g><g stroke-width="2.5"><path d="m9 26l.02-4.98"/><path d="m18 26v-5"/></g><path d="m10.5 22h6" stroke-width="1.8"/></g></g></svg>