<svg xmlns="http://www.w3.org/2000/svg" width="14" height="18" viewBox="0 0 14 18"><defs><linearGradient id="0" x1="5" x2="-7" gradientUnits="userSpaceOnUse"><stop stop-color="#927e2d"/><stop offset="1" stop-color="#bf9900" stop-opacity="0"/></linearGradient></defs><g transform="translate(0-1034.4)"><path d="m1.06 1052c.91-.38 1.38-.63 1.67-2 1.24-6.89.66-9.1-1.38-13.16.11-.25.8-.56.95-1 1.6 3.38 1.6 3.51 1.78-.88.33.38 1.31.44 1.82.88.25 6 .18 7.52 2.4 4.57.76 1.88.69 1.25.69 1.25-2 3.82-2.91 1.88-2.66 7.96.07 2.13.47 1.82 1.97 2.38-3.06 0-4.08 0-7.24 0" fill="url(#0)" stroke="#83611a" stroke-width=".3"/><g fill="none" fill-rule="evenodd" stroke="#aa8800"><path d="m1 1040.1h9" stroke-width="1.3"/><path d="m13 1052.1l-6-12"/><path d="m13 1050.1h-1"/><path d="m12 1048.1h-1"/><path d="m11 1046.1h-1"/><path d="m10 1044.1h-1"/><path d="m9 1042.4h-1"/></g></g></svg>