<svg xmlns="http://www.w3.org/2000/svg" width="32" height="32" viewBox="0 0 32 32"><g fill-rule="evenodd"><g color-rendering="auto" color-interpolation-filters="linearRGB" shape-rendering="auto" image-rendering="auto" color-interpolation="sRGB" color="#000000"><rect width="32" height="1" y="31" mix-blend-mode="normal" solid-color="#000000" isolation="auto" solid-opacity="1" fill="#668000"/><g fill="#359505"><ellipse cx="22.76" cy="13.62" rx="7.27" ry="4.98"/><ellipse cx="22.97" cy="19.57" rx="7.96" ry="5"/><ellipse cx="22.67" cy="8.22" rx="5.97" ry="3.69"/><ellipse cx="22.52" cy="3.67" rx="3.95" ry="3"/></g></g><path d="m9.2 1.08c.51.7 1.1 1.33 1.76 1.89.55.47 1.14.88 1.77 1.23-.09.26-.26.49-.48.66-.22.17-.49.26-.76.28-.27.02-.54-.04-.77-.17.51.97 1.22 1.83 2.07 2.51.8.64 1.72 1.13 2.7 1.42-.11.55-.48 1.04-.98 1.29-.39.2-.83.25-1.26.25-.7 0-1.4-.15-2.04-.43.53 1.07 1.32 2 2.28 2.73.97.72 2.12 1.21 3.32 1.39.07.38.02.78-.16 1.12-.18.34-.47.62-.82.78-.28.12-.58.17-.89.17-.3 0-.61-.04-.9-.1-.74-.14-1.46-.37-2.16-.66.41.46.89.85 1.42 1.18.57.35 1.18.61 1.83.77l1.92.49c.06.46-.1.93-.43 1.26-.35.35-.88.5-1.37.4.46.61 1.04 1.13 1.7 1.53.44.26.91.47 1.4.62-.15.72-.59 1.36-1.21 1.77-.72.48-1.64.6-2.49.46-1.2-.2-2.31-.91-2.99-1.93-.23.05-.47.06-.7.03-.6-.07-1.17-.39-1.54-.87-.22.68-.58 1.32-1.05 1.86-.73.84-1.72 1.45-2.81 1.7l-.28-1.23c-.19.08-.39.15-.59.22-.46.15-.95.27-1.43.3-.49.03-.99-.02-1.44-.2-.82-.32-1.47-1.05-1.69-1.9.84-.08 1.66-.35 2.39-.77.54-.32 1.03-.72 1.44-1.19.59-.52 1.11-1.11 1.56-1.76.33-.47.61-.98.85-1.5-.45.48-1.03.83-1.66 1.01-.49.14-1.02.17-1.53.1-.62-.09-1.21-.35-1.7-.74-.49-.39-.87-.91-1.1-1.49.92-.12 1.83-.39 2.66-.8 1.09-.54 2.06-1.33 2.83-2.27.36-.44.68-.92.95-1.42-.36.16-.73.3-1.11.42-.82.27-1.71.44-2.55.23-.69-.17-1.32-.59-1.73-1.17.85-.2 1.66-.55 2.39-1.02.57-.37 1.09-.82 1.54-1.32-.33.05-.67-.001-.96-.15-.26-.13-.49-.34-.65-.59.77-.14 1.5-.45 2.14-.9.62-.45 1.14-1.03 1.52-1.69-.19.1-.4.17-.62.2-.41.06-.86-.001-1.19-.26-.16-.12-.29-.28-.37-.46.82-.41 1.58-.91 2.28-1.5.63-.52 1.2-1.11 1.7-1.76" fill="#008446"/><path d="m7 31c0 0 .91-.54 1-1 .57-3 .77-10.24.77-10.24l1.23-2.38c0 0 .42 8.62 1 12.62.08.58 1 1.43 1 1.43l-.58.26-1.42-.7-.49.77-.57-.26c0 0 .05-.09.05-.5-2 .48-2 0-2 0" fill="#52341e"/><path d="m22.91 16l-.39-1.06-.25 5.97-1.39-1.5-.59-.37 1.94 2.91-.66 8.81-.61 1 1-.37 1.35.37.11-.46 1.18.16-.63-.71-.33-7.3 1.93-.7 1.4-1-1 .39-2 .61h-.52l-.19-4 1.29-2-.58.31-.91.98z" fill="#52471e"/><g fill="#359505"><path d="m13.17 30.63c-.38-.04-.8-.52-.85-.78-.05-.3.05-1.15.22-1.66.19-.55.63-1.08.87-1.42.5-.81.9-.87 1.58-1.18.53-.21 1.12-.27 1.69-.22.71.06 1.43.27 2.08.65.36.21.67.54.96.89.32.38.64.78.83 1.28.22.58.53 1.31.28 1.91-.14.34-.53.63-.89.65-2.61.11-4.71.11-6.77-.11"/><path d="m1.5 31c0 0-.12-.54 0-.78.17-.34.56-.58.93-.7.2-.07.43-.05.63 0 .41.09.84.25 1.13.54.25.25.44.94.44.94z"/></g><path d="m15.17 31.2c0 0-.36-.56-.59-.8-.17-.17-.4-.28-.58-.44-.09-.08-.25-.27-.25-.27 0 0 .84.21 1.22.41.29.16.44.42.77.61 0 0 .03-.53-.04-.78-.05-.2-.17-.4-.28-.56 0 0 .23.06.32.14.22.2.43.79.43.79 0 0 .23-.37.4-.8.05-.11.001-.35.06-.45.06-.11.19.3.26.23.08-.1.44-.33.44-.33 0 0-.41.59-.52.93-.07.2-.09.61-.09.61 0 0 .45-.45.75-.53.13-.04.4.02.4.02-.4.27-.62.55-.7.8 0 0 .25-.19.5-.26.24-.07.83-.32 1.08-.33.19-.001.02.001.21.05-.38.18-.95.52-1.46.99" fill="#867325"/><path d="m25.1 31.74c0 0 .69-.51.88-.88.12-.23.13-.75.13-.75h1c0 0-.001.54.11.77.12.24.58.58.58.58-1.02.08-1.48.51-2.3-.05" fill="#786721"/><path d="m29.86 31c0 0-.07-.62-.15-.93-.13-.55-.52-1.61-.52-1.61 0 0 .35.34.48.54.12.18.27.59.27.59 0 0 .001-.92.02-1.39 0-.4 0-1.21 0-1.21 0 0 .12.46.16.7.09.52.16 1.56.16 1.56 0 0 .25-.43.42-.6.17-.18.61-.45.61-.45 0 0-.36.59-.51.91-.12.26-.26.54-.31.79-.05.25-.12.55-.12.55l.67-.67c-.03.16-.46.8-.59 1-.04.06-.08.2-.08.2-.33.14-.28.08-.5.02" fill="#2f8625"/></g></svg>