<svg xmlns="http://www.w3.org/2000/svg" width="26" height="19" viewBox="0 0 26 19"><defs><linearGradient id="0" y1="0" x2="0" y2="5" gradientUnits="userSpaceOnUse"><stop stop-color="#a6fffc"/><stop offset="1" stop-color="#a6fffc" stop-opacity="0"/></linearGradient></defs><g fill-rule="evenodd"><g fill="#ffffff"><path d="m8 5c0 0-.41-2.09 0-3 .37-.82.64-1.23 2-1.79.68-.28 1.84-.21 3-.21 1.16 0 2.32-.07 3 .21 1.36.56 1.63.97 2 1.79.41.91 0 3 0 3z"/><path d="m8 5c0-5 3.48-5 8-5l2 2v3z"/></g><g fill="#aa8800" color-rendering="auto" color-interpolation-filters="linearRGB" shape-rendering="auto" image-rendering="auto" color-interpolation="sRGB" color="#000000"><path d="m3 3v7h20v-7h-4l.03 3h-12v-3" mix-blend-mode="normal" solid-color="#000000" isolation="auto" solid-opacity="1"/><path d="m1 0v19h3v-8h-2v-9h2v-2" mix-blend-mode="normal" solid-color="#000000" isolation="auto" solid-opacity="1"/><path d="m22 0v2h2v9h-2v8h3v-19z" mix-blend-mode="normal" solid-color="#000000" isolation="auto" solid-opacity="1"/></g><path d="m8 5c0 0-.41-2.09 0-3 .37-.82.64-1.23 2-1.79.68-.28 1.84-.21 3-.21 1.16 0 2.32-.07 3 .21 1.36.56 1.63.97 2 1.79.41.91 0 3 0 3z" fill="url(#0)"/></g></svg>