<svg xmlns="http://www.w3.org/2000/svg" width="8" height="8" viewBox="0 0 8.0000001 8.0000001"><path d="m4 1044.8622a3.5 3.5 0 0 0 -3.5 3.5 3.5 3.5 0 0 0 3.5 3.5 3.5 3.5 0 0 0 3.5 -3.5 3.5 3.5 0 0 0 -3.5 -3.5m0 2a1.5 1.5 0 0 1 1.5 1.5 1.5 1.5 0 0 1 -1.5 1.5 1.5 1.5 0 0 1 -1.5 -1.5 1.5 1.5 0 0 1 1.5 -1.5" mix-blend-mode="normal" solid-color="#000000" color-interpolation-filters="linearRGB" color="#000000" image-rendering="auto" color-rendering="auto" fill-rule="evenodd" isolation="auto" color-interpolation="sRGB" solid-opacity="1" fill="#aa8800" shape-rendering="auto" transform="translate(0-1044.4)"/></svg>