<svg xmlns="http://www.w3.org/2000/svg" width="11" height="11" viewBox="0 0 11 11"><path d="m5.5 1041.8622a5 5 0 0 0 -5 5 5 5 0 0 0 5 5 5 5 0 0 0 5 -5 5 5 0 0 0 -5 -5m.9375.5143a4.583333 4.583333 0 0 1 3.541667 3.5395L6.44 1042.4m-1.88 0l-3.54 3.54a4.583333 4.583333 0 0 1 3.541667 -3.5417zM5.5 1044.7L7.67 1046.9 5.5 1049 3.33 1046.9 5.5 1044.7m4.487847 3.0989a4.583333 4.583333 0 0 1 -3.552517 3.5525l3.55-3.55zm-8.97 0l3.54 3.54a4.583333 4.583333 0 0 1 -3.543837 -3.544" mix-blend-mode="normal" solid-color="#000000" color-interpolation-filters="linearRGB" color="#000000" image-rendering="auto" color-rendering="auto" fill-rule="evenodd" isolation="auto" color-interpolation="sRGB" solid-opacity="1" fill="#aa8800" shape-rendering="auto" transform="translate(0-1041.4)"/></svg>