<svg xmlns="http://www.w3.org/2000/svg" width="10" height="10" viewBox="0 0 10 10"><path d="m5 1042.8622a4.5 4.5 0 0 0 -4.5 4.5 4.5 4.5 0 0 0 4.5 4.5 4.5 4.5 0 0 0 4.5 -4.5 4.5 4.5 0 0 0 -4.5 -4.5m0 1a3.500047 3.500047 0 0 1 3.5 3.5 3.500047 3.500047 0 0 1 -3.5 3.5 3.500047 3.500047 0 0 1 -3.5 -3.5 3.500047 3.500047 0 0 1 3.5 -3.5" mix-blend-mode="normal" solid-color="#000000" color-interpolation-filters="linearRGB" color="#000000" image-rendering="auto" color-rendering="auto" fill-rule="evenodd" isolation="auto" color-interpolation="sRGB" solid-opacity="1" fill="#ff0000" shape-rendering="auto" transform="translate(0-1042.4)"/></svg>