<svg xmlns="http://www.w3.org/2000/svg" width="67" height="67" viewBox="0 0 67 67"><g color-rendering="auto" color-interpolation-filters="linearRGB" shape-rendering="auto" fill-rule="evenodd" image-rendering="auto" color-interpolation="sRGB" color="#000000"><path d="m0 0h67v67h-67" isolation="auto" mix-blend-mode="normal" fill="#008000" solid-opacity="1" fill-opacity=".12" solid-color="#000000"/><g fill="#456c1c" fill-opacity=".3" transform="matrix(.7.7-.7.7 0 0)"><ellipse cx="44.9" cy="23" rx="4.6" ry="5.7"/><ellipse cx="66" cy="5.8" rx="4.6" ry="5.7"/><ellipse cx="27.9" cy="11.7" rx="4.6" ry="5.7"/><ellipse cx="49" cy="4.2" rx="4.6" ry="5.7"/><ellipse cx="40.7" cy="-12.4" rx="4.6" ry="5.7"/><ellipse cx="59" cy="-16" rx="4.6" ry="5.7"/><ellipse cx="24" cy="-4.2" rx="4.6" ry="5.7"/><ellipse cx="10.5" cy="12.2" rx="4.6" ry="5.7"/><ellipse cx="58" cy="-35" rx="4.6" ry="5.7"/><ellipse cx="37.5" cy="-33" rx="4.6" ry="5.7"/><ellipse cx="85" cy="14" rx="4.6" ry="5.7"/><ellipse cx="50" cy="43" rx="4.6" ry="5.7"/><ellipse cx="3.4" cy="-3.4" rx="4.6" ry="5.7"/><ellipse cx="76" cy="-8.5" rx="4.6" ry="5.7"/><ellipse cx="29.3" cy="38.5" rx="4.6" ry="5.7"/><ellipse cx="64" cy="24.7" rx="4.6" ry="5.7"/><ellipse cx="17" cy="-22.6" rx="4.6" ry="5.7"/><ellipse cx="98" cy="-4.2" rx="4.6" ry="5.7"/><ellipse cx="50.9" cy="-50.9" rx="4.6" ry="5.7"/></g></g></svg>