<svg xmlns="http://www.w3.org/2000/svg" width="72" height="72" viewBox="0 0 72 72"><g color-rendering="auto" color-interpolation-filters="linearRGB" shape-rendering="auto" fill-rule="evenodd" image-rendering="auto" color-interpolation="sRGB" color="#000000"><path d="m0 0h72v72h-72" isolation="auto" mix-blend-mode="normal" fill="#008000" solid-opacity="1" fill-opacity=".12" solid-color="#000000"/><g fill="#456c1c" fill-opacity=".3" transform="matrix(.7.7-.7.7 0 0)"><ellipse cx="48" cy="24" rx="7.6" ry="9.5"/><ellipse cx="71" cy="5.2" rx="7.6" ry="9.5"/><ellipse cx="30.6" cy="13.3" rx="7.6" ry="9.5"/><ellipse cx="53" cy="3.5" rx="7.6" ry="9.5"/><ellipse cx="43.8" cy="-14" rx="7.6" ry="9.5"/><ellipse cx="62.9" cy="-17.7" rx="7.6" ry="9.5"/><ellipse cx="25.5" cy="-5.7" rx="7.6" ry="9.5"/><ellipse cx="11.4" cy="12.7" rx="7.6" ry="9.5"/><ellipse cx="62" cy="-38" rx="7.6" ry="9.5"/><ellipse cx="40" cy="-36" rx="7.6" ry="9.5"/><ellipse cx="91" cy="14.9" rx="7.6" ry="9.5"/><ellipse cx="54" cy="46" rx="7.6" ry="9.5"/><ellipse cx="3.3" cy="-4.7" rx="7.6" ry="9.5"/><ellipse cx="83" cy="-9.2" rx="7.6" ry="9.5"/><ellipse cx="32" cy="41" rx="7.6" ry="9.5"/><ellipse cx="69" cy="25.6" rx="7.6" ry="9.5"/><ellipse cx="18.2" cy="-25.3" rx="7.6" ry="9.5"/><ellipse cx="105" cy="-4.9" rx="7.6" ry="9.5"/><ellipse cx="54" cy="-55.9" rx="7.6" ry="9.5"/></g></g></svg>