<svg xmlns="http://www.w3.org/2000/svg" width="50" height="50" viewBox="0 0 50 50"><g color-rendering="auto" color-interpolation-filters="linearRGB" shape-rendering="auto" fill-rule="evenodd" image-rendering="auto" color-interpolation="sRGB" color="#000000"><path d="m0 0h50v50h-50" isolation="auto" mix-blend-mode="normal" fill="#008000" solid-opacity="1" fill-opacity=".12" solid-color="#000000"/><g fill="#456c1c" fill-opacity=".3" transform="matrix(.7.7-.7.7 0 0)"><ellipse cx="32.4" cy="15.7" rx="4.6" ry="5.7"/><ellipse cx="48.8" cy="3.5" rx="4.6" ry="5.7"/><ellipse cx="20.4" cy="7.9" rx="4.6" ry="5.7"/><ellipse cx="36" cy="2.1" rx="4.6" ry="5.7"/><ellipse cx="29" cy="-10.6" rx="4.6" ry="5.7"/><ellipse cx="43" cy="-13.3" rx="4.6" ry="5.7"/><ellipse cx="17" cy="-4.5" rx="4.6" ry="5.7"/><ellipse cx="7.2" cy="8.3" rx="4.6" ry="5.7"/><ellipse cx="42" cy="-26.9" rx="4.6" ry="5.7"/><ellipse cx="26.9" cy="-25.5" rx="4.6" ry="5.7"/><ellipse cx="62" cy="9.9" rx="4.6" ry="5.7"/><ellipse cx="36.6" cy="31" rx="4.6" ry="5.7"/><ellipse cx="1.3" cy="-4.1" rx="4.6" ry="5.7"/><ellipse cx="57" cy="-7" rx="4.6" ry="5.7"/><ellipse cx="21.4" cy="28" rx="4.6" ry="5.7"/><ellipse cx="47.6" cy="17.5" rx="4.6" ry="5.7"/><ellipse cx="12.2" cy="-17.9" rx="4.6" ry="5.7"/><ellipse cx="72" cy="-4.1" rx="4.6" ry="5.7"/><ellipse cx="36.6" cy="-39.5" rx="4.6" ry="5.7"/></g></g></svg>