<svg xmlns="http://www.w3.org/2000/svg" width="30" height="30" viewBox="0 0 30 30"><g color-rendering="auto" color-interpolation-filters="linearRGB" shape-rendering="auto" fill-rule="evenodd" image-rendering="auto" color-interpolation="sRGB" color="#000000"><path d="m0 0h30v30h-30" isolation="auto" mix-blend-mode="normal" fill="#008000" solid-opacity="1" fill-opacity=".12" solid-color="#000000"/><g fill="#008446" fill-opacity=".3" transform="matrix(-.87.5-.5-.87 0 0)"><path d="m8.405273-21.582512a3.8 3.8 0 0 1 -3.140137 3.74227 3.8 3.8 0 0 1 -4.230695 -2.442593 3.8 3.8 0 0 1 1.670832 -4.590573"/><path d="m-1.073635-29.364565a3.8 3.8 0 0 1 -3.140137 3.74227 3.8 3.8 0 0 1 -4.230695 -2.442593 3.8 3.8 0 0 1 1.670832 -4.590573"/><path d="m5.473877-12.882649a3.8 3.8 0 0 1 -3.140137 3.742269 3.8 3.8 0 0 1 -4.230695 -2.442593 3.8 3.8 0 0 1 1.670832 -4.590573"/><path d="m-.003315-21.818411a3.8 3.8 0 0 1 -3.140137 3.74227 3.8 3.8 0 0 1 -4.230695 -2.442593 3.8 3.8 0 0 1 1.670832 -4.590573"/><path d="m-6.412843-15.716782a3.8 3.8 0 0 1 -3.140137 3.74227 3.8 3.8 0 0 1 -4.230695 -2.442593 3.8 3.8 0 0 1 1.670832 -4.590573"/><path d="m-10.143955-23.05431a3.8 3.8 0 0 1 -3.140137 3.74227 3.8 3.8 0 0 1 -4.230695 -2.442593 3.8 3.8 0 0 1 1.670832 -4.590573"/><path d="m-1.224984-8.81038a3.8 3.8 0 0 1 -3.140137 3.742269 3.8 3.8 0 0 1 -4.230695 -2.442593 3.8 3.8 0 0 1 1.670832 -4.590573"/><path d="M7.900463-5.708157A3.8 3.8 0 0 1 4.760326 -1.965888 3.8 3.8 0 0 1 .529631 -4.40848 3.8 3.8 0 0 1 2.200463 -8.999054"/><path d="m-17.733888-20.508158a3.8 3.8 0 0 1 -3.140137 3.74227 3.8 3.8 0 0 1 -4.230695 -2.442593 3.8 3.8 0 0 1 1.670832 -4.590573"/><path d="m-14.671712-11.812004a3.8 3.8 0 0 1 -3.140137 3.742269 3.8 3.8 0 0 1 -4.230695 -2.442593 3.8 3.8 0 0 1 1.670832 -4.590573"/><path d="m.328289-37.792767a3.8 3.8 0 0 1 -3.140137 3.74227 3.8 3.8 0 0 1 -4.230695 -2.442593 3.8 3.8 0 0 1 1.670832 -4.590573"/><path d="m16.562196-26.11072a3.8 3.8 0 0 1 -3.140137 3.74227 3.8 3.8 0 0 1 -4.230695 -2.442593 3.8 3.8 0 0 1 1.670832 -4.590573"/><path d="M1.562195-.129954A3.8 3.8 0 0 1 -1.577942 3.612316 3.8 3.8 0 0 1 -5.808637 1.169723 3.8 3.8 0 0 1 -4.137805 -3.42085"/><path d="m-8.915235-31.582512a3.8 3.8 0 0 1 -3.140137 3.74227 3.8 3.8 0 0 1 -4.230695 -2.442593 3.8 3.8 0 0 1 1.670832 -4.590573"/><path d="m16.978925-16.632513a3.8 3.8 0 0 1 -3.140137 3.742269 3.8 3.8 0 0 1 -4.230695 -2.442593 3.8 3.8 0 0 1 1.670832 -4.590573"/><path d="m6.968928-30.49469a3.8 3.8 0 0 1 -3.140137 3.742269 3.8 3.8 0 0 1 -4.230695 -2.442592 3.8 3.8 0 0 1 1.670832 -4.590573"/><path d="m-8.03107-4.513928a3.8 3.8 0 0 1 -3.140137 3.742269 3.8 3.8 0 0 1 -4.230695 -2.442593 3.8 3.8 0 0 1 1.670832 -4.590573"/><path d="m-9.331965-41.06072a3.8 3.8 0 0 1 -3.140137 3.74227 3.8 3.8 0 0 1 -4.230695 -2.442593 3.8 3.8 0 0 1 1.670832 -4.590573"/><path d="m-24.331966-15.07995a3.8 3.8 0 0 1 -3.140137 3.742269 3.8 3.8 0 0 1 -4.230695 -2.442593 3.8 3.8 0 0 1 1.670832 -4.590573"/></g></g></svg>