<svg xmlns="http://www.w3.org/2000/svg" width="51" height="51" viewBox="0 0 51 51"><g color-rendering="auto" color-interpolation-filters="linearRGB" shape-rendering="auto" fill-rule="evenodd" image-rendering="auto" color-interpolation="sRGB" color="#000000"><path d="m0 0h51v51h-51" isolation="auto" mix-blend-mode="normal" fill="#008000" solid-opacity="1" fill-opacity=".12" solid-color="#000000"/><g fill="#008446" fill-opacity=".3"><path d="M5.955918 41.37771A7.485736 7.485736 0 0 1 6.80693 31.299 7.485736 7.485736 0 0 1 16.921466 31.26835 7.485736 7.485736 0 0 1 17.833534 41.34172"/><path d="m26.878575 43.29722a7.485736 7.485736 0 0 1 .851012 -10.07872 7.485736 7.485736 0 0 1 10.114537 -.03065 7.485736 7.485736 0 0 1 .912068 10.07337"/><path d="M4.238975 27.14794A7.485736 7.485736 0 0 1 5.089986 17.06922 7.485736 7.485736 0 0 1 15.204523 17.03857 7.485736 7.485736 0 0 1 16.11659 27.11195"/><path d="m18.543594 31.527204a7.485736 7.485736 0 0 1 .851011 -10.07872 7.485736 7.485736 0 0 1 10.114538 -.03065 7.485736 7.485736 0 0 1 .912068 10.07337"/><path d="M22.920285 18.608428A7.485736 7.485736 0 0 1 23.771296 8.529712 7.485736 7.485736 0 0 1 33.885833 8.499064 7.485736 7.485736 0 0 1 34.797901 18.572438"/><path d="m34.62217 27.837747a7.485736 7.485736 0 0 1 .851012 -10.07872 7.485736 7.485736 0 0 1 10.114537 -.03065 7.485736 7.485736 0 0 1 .912067 10.07337"/><path d="M8.766533 13.909028A7.485736 7.485736 0 0 1 9.617545 3.830312 7.485736 7.485736 0 0 1 19.732082 3.799665 7.485736 7.485736 0 0 1 20.64415 13.873039"/><path d="M-6.564711 17.03629A7.485736 7.485736 0 0 1 -5.713699 6.957573 7.485736 7.485736 0 0 1 4.400835 6.926928 7.485736 7.485736 0 0 1 5.312903 17.0003"/><path d="M43.660875 16.655397A7.485736 7.485736 0 0 1 44.511887 6.576681 7.485736 7.485736 0 0 1 54.626424 6.546034 7.485736 7.485736 0 0 1 55.53849 16.619408"/><path d="m31.01051 6.459299a7.485736 7.485736 0 0 1 .851012 -10.07872 7.485736 7.485736 0 0 1 10.114537 -.030647 7.485736 7.485736 0 0 1 .912068 10.07337"/><path d="m31.16474 57.36207a7.485736 7.485736 0 0 1 .851012 -10.07872 7.485736 7.485736 0 0 1 10.114537 -.03065 7.485736 7.485736 0 0 1 .912068 10.07337"/><path d="M-2.700989 53.730461A7.485736 7.485736 0 0 1 -1.849978 43.651745 7.485736 7.485736 0 0 1 8.264559 43.621098 7.485736 7.485736 0 0 1 9.176626 53.694472"/><path d="M-2.855217 2.827687A7.485736 7.485736 0 0 1 -2.00421 -7.251029 7.485736 7.485736 0 0 1 8.110332 -7.281676 7.485736 7.485736 0 0 1 9.0224 2.791698"/><path d="m41.545122 39.841042a7.485736 7.485736 0 0 1 .851012 -10.07872 7.485736 7.485736 0 0 1 10.114536 -.03065 7.485736 7.485736 0 0 1 .912069 10.07337"/><path d="m-8.758795 39.99345a7.485736 7.485736 0 0 1 .851012 -10.07872 7.485736 7.485736 0 0 1 10.114537 -.03065 7.485736 7.485736 0 0 1 .912068 10.07337"/><path d="m15.326176 52.71899a7.485736 7.485736 0 0 1 .851012 -10.07872 7.485736 7.485736 0 0 1 10.114537 -.03065 7.485736 7.485736 0 0 1 .912068 10.07337"/><path d="M15.171951 1.816214A7.485736 7.485736 0 0 1 16.02296 -8.262503 7.485736 7.485736 0 0 1 26.1375 -8.29315 7.485736 7.485736 0 0 1 27.04957 1.780224"/><path d="m47.902353 53.57714a7.485736 7.485736 0 0 1 .851012 -10.07872 7.485736 7.485736 0 0 1 10.114537 -.03065 7.485736 7.485736 0 0 1 .912067 10.07337"/><path d="M47.748125 2.674373A7.485736 7.485736 0 0 1 48.599136 -7.404344 7.485736 7.485736 0 0 1 58.713673 -7.434991 7.485736 7.485736 0 0 1 59.62574 2.638383"/></g></g></svg>