<svg xmlns="http://www.w3.org/2000/svg" width="39" height="39" viewBox="0 0 39 39"><g color-rendering="auto" color-interpolation-filters="linearRGB" shape-rendering="auto" fill-rule="evenodd" image-rendering="auto" color-interpolation="sRGB" color="#000000"><path d="m0 0h39v39h-39" isolation="auto" mix-blend-mode="normal" fill="#008000" solid-opacity="1" fill-opacity=".12" solid-color="#000000"/><g fill="#008446" fill-opacity=".3" transform="matrix(-.79.61-.61-.79 0 0)"><path d="m15.60514-27.692747a5.7 5.7 0 0 1 -5.203212 5.678309 5.7 5.7 0 0 1 -6.110192 -4.688515 5.7 5.7 0 0 1 4.138136 -6.495571"/><path d="m4.060727-39.12014a5.7 5.7 0 0 1 -5.203212 5.678309 5.7 5.7 0 0 1 -6.110192 -4.688515 5.7 5.7 0 0 1 4.138135 -6.495571"/><path d="m10.531094-18.0599a5.7 5.7 0 0 1 -5.203212 5.678309 5.7 5.7 0 0 1 -6.110192 -4.688515 5.7 5.7 0 0 1 4.138136 -6.495571"/><path d="m3.820259-27.864193a5.7 5.7 0 0 1 -5.203212 5.67831 5.7 5.7 0 0 1 -6.110192 -4.688515 5.7 5.7 0 0 1 4.138136 -6.495572"/><path d="m-4.978063-22.05876a5.7 5.7 0 0 1 -5.203212 5.67831 5.7 5.7 0 0 1 -6.110191 -4.688515 5.7 5.7 0 0 1 4.138135 -6.495572"/><path d="m-8.486966-32.459469a5.7 5.7 0 0 1 -5.203212 5.67831 5.7 5.7 0 0 1 -6.110192 -4.688515 5.7 5.7 0 0 1 4.138136 -6.495572"/><path d="m.668043-12.63636a5.7 5.7 0 0 1 -5.203212 5.678309 5.7 5.7 0 0 1 -6.110192 -4.688515 5.7 5.7 0 0 1 4.138135 -6.495571"/><path d="M11.7342-6.714047A5.7 5.7 0 0 1 6.530988 -1.035737 5.7 5.7 0 0 1 .420796 -5.724252 5.7 5.7 0 0 1 4.558932 -12.219824"/><path d="m-18.968574-30.27312a5.7 5.7 0 0 1 -5.203212 5.678309 5.7 5.7 0 0 1 -6.110191 -4.688515 5.7 5.7 0 0 1 4.138135 -6.495571"/><path d="m-16.698485-18.447435a5.7 5.7 0 0 1 -5.203212 5.678309 5.7 5.7 0 0 1 -6.110192 -4.688515 5.7 5.7 0 0 1 4.138135 -6.495571"/><path d="m7.04321-49.38821a5.7 5.7 0 0 1 -5.203212 5.678309 5.7 5.7 0 0 1 -6.110192 -4.688515 5.7 5.7 0 0 1 4.138136 -6.495571"/><path d="m25.900672-31.08144a5.7 5.7 0 0 1 -5.203212 5.67831 5.7 5.7 0 0 1 -6.110192 -4.688515 5.7 5.7 0 0 1 4.138136 -6.495572"/><path d="M2.158977-.140664A5.7 5.7 0 0 1 -3.044235 5.537646 5.7 5.7 0 0 1 -9.154427 .849131 5.7 5.7 0 0 1 -5.01629 -5.646441"/><path d="m-6.77985-43.12458a5.7 5.7 0 0 1 -5.203212 5.678309 5.7 5.7 0 0 1 -6.110192 -4.688515 5.7 5.7 0 0 1 4.138136 -6.495571"/><path d="m24.00226-19.504642a5.7 5.7 0 0 1 -5.203212 5.678309 5.7 5.7 0 0 1 -6.110192 -4.688515 5.7 5.7 0 0 1 4.138136 -6.495572"/><path d="m15.13384-39.39864a5.7 5.7 0 0 1 -5.203212 5.67831 5.7 5.7 0 0 1 -6.110192 -4.688515 5.7 5.7 0 0 1 4.138136 -6.495572"/><path d="m-8.607853-8.457857a5.7 5.7 0 0 1 -5.203212 5.67831 5.7 5.7 0 0 1 -6.110192 -4.688515 5.7 5.7 0 0 1 4.138136 -6.495571"/><path d="m-5.04011-54.823139a5.7 5.7 0 0 1 -5.203212 5.678309 5.7 5.7 0 0 1 -6.110192 -4.688515 5.7 5.7 0 0 1 4.138136 -6.495571"/><path d="m-28.781804-23.882359a5.7 5.7 0 0 1 -5.203212 5.67831 5.7 5.7 0 0 1 -6.110192 -4.688515 5.7 5.7 0 0 1 4.138136 -6.495572"/></g></g></svg>