<svg xmlns="http://www.w3.org/2000/svg" width="67" height="67" viewBox="0 0 67 67"><g color-rendering="auto" color-interpolation-filters="linearRGB" shape-rendering="auto" fill-rule="evenodd" image-rendering="auto" color-interpolation="sRGB" color="#000000"><path d="m0 0h67v67h-67" isolation="auto" mix-blend-mode="normal" fill="#008000" solid-opacity="1" fill-opacity=".12" solid-color="#000000"/><g fill="#456c1c" fill-opacity=".3" transform="matrix(-.79.61-.61-.79 0 0)"><path d="m24.423573-47.51676a7.5 7.5 0 0 1 -6.846332 7.47146 7.5 7.5 0 0 1 -8.03973 -6.169098 7.5 7.5 0 0 1 5.444916 -8.546805"/><path d="m4.59131-66.51601a7.5 7.5 0 0 1 -6.846332 7.47146 7.5 7.5 0 0 1 -8.03973 -6.169099 7.5 7.5 0 0 1 5.444916 -8.546805"/><path d="m15.421757-29.21465a7.5 7.5 0 0 1 -6.846332 7.47146 7.5 7.5 0 0 1 -8.03973 -6.169099 7.5 7.5 0 0 1 5.444915 -8.546805"/><path d="m5.245627-49.627792a7.5 7.5 0 0 1 -6.846332 7.47146 7.5 7.5 0 0 1 -8.03973 -6.169099 7.5 7.5 0 0 1 5.444915 -8.546805"/><path d="m-10.07552-38.695621a7.5 7.5 0 0 1 -6.846332 7.47146 7.5 7.5 0 0 1 -8.03973 -6.169099 7.5 7.5 0 0 1 5.444916 -8.546805"/><path d="m-16.12621-55.943203a7.5 7.5 0 0 1 -6.846332 7.47146 7.5 7.5 0 0 1 -8.03973 -6.169099 7.5 7.5 0 0 1 5.444915 -8.546805"/><path d="m.155593-23.282175a7.5 7.5 0 0 1 -6.846332 7.47146 7.5 7.5 0 0 1 -8.03973 -6.169099 7.5 7.5 0 0 1 5.444916 -8.546805"/><path d="m18.19221-11.96314a7.5 7.5 0 0 1 -6.846332 7.471461 7.5 7.5 0 0 1 -8.03973 -6.169099 7.5 7.5 0 0 1 5.444915 -8.546805"/><path d="m-35.12114-52.871906a7.5 7.5 0 0 1 -6.846332 7.47146 7.5 7.5 0 0 1 -8.03973 -6.169099 7.5 7.5 0 0 1 5.444916 -8.546805"/><path d="m-30.341381-32.81813a7.5 7.5 0 0 1 -6.846332 7.47146 7.5 7.5 0 0 1 -8.03973 -6.169099 7.5 7.5 0 0 1 5.444915 -8.546805"/><path d="m10.445633-85.972809a7.5 7.5 0 0 1 -6.846332 7.47146 7.5 7.5 0 0 1 -8.03973 -6.169099 7.5 7.5 0 0 1 5.444915 -8.546805"/><path d="m43.870159-55.28337a7.5 7.5 0 0 1 -6.846332 7.47146 7.5 7.5 0 0 1 -8.03973 -6.169098 7.5 7.5 0 0 1 5.444915 -8.546805"/><path d="m3.691904-2.922055a7.5 7.5 0 0 1 -6.846332 7.47146 7.5 7.5 0 0 1 -8.03973 -6.169099 7.5 7.5 0 0 1 5.444915 -8.546805"/><path d="m-10.880651-74.60664a7.5 7.5 0 0 1 -6.846332 7.471461 7.5 7.5 0 0 1 -8.03973 -6.169099 7.5 7.5 0 0 1 5.444916 -8.546805"/><path d="m41.877346-34.12401a7.5 7.5 0 0 1 -6.846332 7.47146 7.5 7.5 0 0 1 -8.03973 -6.169099 7.5 7.5 0 0 1 5.444915 -8.546805"/><path d="m23.638077-67.02658a7.5 7.5 0 0 1 -6.846332 7.47146 7.5 7.5 0 0 1 -8.03973 -6.169099 7.5 7.5 0 0 1 5.444915 -8.546805"/><path d="m-17.14894-13.871906a7.5 7.5 0 0 1 -6.846332 7.47146 7.5 7.5 0 0 1 -8.03973 -6.169099 7.5 7.5 0 0 1 5.444915 -8.546805"/><path d="m-9.443186-96.19215a7.5 7.5 0 0 1 -6.846332 7.47146 7.5 7.5 0 0 1 -8.03973 -6.169099 7.5 7.5 0 0 1 5.444915 -8.546805"/><path d="m-49.621441-43.830822a7.5 7.5 0 0 1 -6.846332 7.47146 7.5 7.5 0 0 1 -8.03973 -6.169099 7.5 7.5 0 0 1 5.444915 -8.546805"/></g></g></svg>