<svg xmlns="http://www.w3.org/2000/svg" width="100" height="100" viewBox="0 0 100 100"><g color-rendering="auto" color-interpolation-filters="linearRGB" shape-rendering="auto" fill-rule="evenodd" image-rendering="auto" color-interpolation="sRGB" color="#000000"><path d="m0 0h100v100h-100z" isolation="auto" mix-blend-mode="normal" fill="#008000" solid-opacity="1" fill-opacity=".12" solid-color="#000000"/><g fill="#456c1c" fill-opacity=".3" transform="matrix(-.79.61-.61-.79 0 0)"><path d="m29.27282-70.14501a5.7 5.7 0 0 1 -5.203212 5.67831 5.7 5.7 0 0 1 -6.110191 -4.688515 5.7 5.7 0 0 1 4.138135 -6.495572"/><path d="m-.21086-99.07099a5.7 5.7 0 0 1 -5.203212 5.67831 5.7 5.7 0 0 1 -6.110192 -4.688515 5.7 5.7 0 0 1 4.138135 -6.495573"/><path d="m16.378859-43.485191a5.7 5.7 0 0 1 -5.203213 5.678309 5.7 5.7 0 0 1 -6.110191 -4.688515 5.7 5.7 0 0 1 4.138136 -6.495571"/><path d="m.307565-73.46375a5.7 5.7 0 0 1 -5.203212 5.678309 5.7 5.7 0 0 1 -6.110192 -4.688515 5.7 5.7 0 0 1 4.138135 -6.495571"/><path d="m-22.475821-56.913296a5.7 5.7 0 0 1 -5.203213 5.67831 5.7 5.7 0 0 1 -6.110191 -4.688515 5.7 5.7 0 0 1 4.138135 -6.495572"/><path d="m-30.982766-83.60846a5.7 5.7 0 0 1 -5.203212 5.678309 5.7 5.7 0 0 1 -6.110192 -4.688515 5.7 5.7 0 0 1 4.138136 -6.495572"/><path d="m-7.327487-33.945316a5.7 5.7 0 0 1 -5.203212 5.678309 5.7 5.7 0 0 1 -6.110192 -4.688515 5.7 5.7 0 0 1 4.138136 -6.495571"/><path d="m20.494866-17.638365a5.7 5.7 0 0 1 -5.203212 5.67831 5.7 5.7 0 0 1 -6.110191 -4.688515 5.7 5.7 0 0 1 4.138135 -6.495572"/><path d="m-58.840466-78.51451a5.7 5.7 0 0 1 -5.203213 5.678309 5.7 5.7 0 0 1 -6.110191 -4.688515 5.7 5.7 0 0 1 4.138135 -6.495571"/><path d="m-51.975217-48.03717a5.7 5.7 0 0 1 -5.203212 5.67831 5.7 5.7 0 0 1 -6.110192 -4.688515 5.7 5.7 0 0 1 4.138136 -6.495572"/><path d="m8.900927-127.3725a5.7 5.7 0 0 1 -5.203212 5.67831 5.7 5.7 0 0 1 -6.110192 -4.68851 5.7 5.7 0 0 1 4.138135 -6.49557"/><path d="m59.01179-82.61872a5.7 5.7 0 0 1 -5.203212 5.67831 5.7 5.7 0 0 1 -6.110192 -4.688515 5.7 5.7 0 0 1 4.138136 -6.495572"/><path d="m-1.86435-3.283385a5.7 5.7 0 0 1 -5.203212 5.67831 5.7 5.7 0 0 1 -6.110192 -4.688515 5.7 5.7 0 0 1 4.138136 -6.495572"/><path d="m-23.273093-111.72538a5.7 5.7 0 0 1 -5.203212 5.67831 5.7 5.7 0 0 1 -6.110192 -4.68852 5.7 5.7 0 0 1 4.138136 -6.49557"/><path d="m56.06224-50.849236a5.7 5.7 0 0 1 -5.203212 5.67831 5.7 5.7 0 0 1 -6.110192 -4.688515 5.7 5.7 0 0 1 4.138135 -6.495572"/><path d="m28.20062-99.9586a5.7 5.7 0 0 1 -5.203212 5.67831 5.7 5.7 0 0 1 -6.110192 -4.688515 5.7 5.7 0 0 1 4.138135 -6.495572"/><path d="m-32.675523-20.623268a5.7 5.7 0 0 1 -5.203212 5.678309 5.7 5.7 0 0 1 -6.110192 -4.688515 5.7 5.7 0 0 1 4.138136 -6.495571"/><path d="m-20.323541-143.49486a5.7 5.7 0 0 1 -5.203212 5.67831 5.7 5.7 0 0 1 -6.110192 -4.68851 5.7 5.7 0 0 1 4.138136 -6.49557"/><path d="m-81.19968-64.15953a5.7 5.7 0 0 1 -5.203212 5.67831 5.7 5.7 0 0 1 -6.110192 -4.688515 5.7 5.7 0 0 1 4.138135 -6.495572"/></g></g></svg>