<svg xmlns="http://www.w3.org/2000/svg" width="120" height="120" viewBox="0 0 120 120"><g color-rendering="auto" color-interpolation-filters="linearRGB" shape-rendering="auto" fill-rule="evenodd" image-rendering="auto" color-interpolation="sRGB" color="#000000"><path d="m0 0h120v120h-120z" isolation="auto" mix-blend-mode="normal" fill="#008000" solid-opacity="1" fill-opacity=".12" solid-color="#000000"/><g fill="#00a75f" fill-opacity=".3" transform="matrix(-.79.61-.61-.79 0 0)"><path d="m35.708048-84.23489a7.5 7.5 0 0 1 -6.846332 7.47146 7.5 7.5 0 0 1 -8.03973 -6.169099 7.5 7.5 0 0 1 5.444915 -8.546805"/><path d="m.406968-118.88519a7.5 7.5 0 0 1 -6.846332 7.47146 7.5 7.5 0 0 1 -8.03973 -6.1691 7.5 7.5 0 0 1 5.444915 -8.54681"/><path d="m20.722303-52.877792a7.5 7.5 0 0 1 -6.846332 7.47146 7.5 7.5 0 0 1 -8.03973 -6.169099 7.5 7.5 0 0 1 5.444916 -8.546805"/><path d="m.949741-88.21737a7.5 7.5 0 0 1 -6.846332 7.47146 7.5 7.5 0 0 1 -8.03973 -6.169099 7.5 7.5 0 0 1 5.444916 -8.546805"/><path d="m-26.543491-68.978554a7.5 7.5 0 0 1 -6.846332 7.47146 7.5 7.5 0 0 1 -8.03973 -6.169098 7.5 7.5 0 0 1 5.444916 -8.546805"/><path d="m-36.397564-100.48882a7.5 7.5 0 0 1 -6.846332 7.471457 7.5 7.5 0 0 1 -8.03973 -6.169099 7.5 7.5 0 0 1 5.444915 -8.546808"/><path d="m-7.852561-40.771301a7.5 7.5 0 0 1 -6.846332 7.47146 7.5 7.5 0 0 1 -8.03973 -6.169099 7.5 7.5 0 0 1 5.444915 -8.546805"/><path d="m25.418009-21.544256a7.5 7.5 0 0 1 -6.846332 7.47146 7.5 7.5 0 0 1 -8.03973 -6.169099 7.5 7.5 0 0 1 5.444915 -8.546805"/><path d="m-69.863724-94.6565a7.5 7.5 0 0 1 -6.846332 7.47146 7.5 7.5 0 0 1 -8.03973 -6.169098 7.5 7.5 0 0 1 5.444915 -8.54681"/><path d="m-61.46675-57.961941a7.5 7.5 0 0 1 -6.846332 7.47146 7.5 7.5 0 0 1 -8.03973 -6.169098 7.5 7.5 0 0 1 5.444915 -8.546805"/><path d="m11.584617-153.16434a7.5 7.5 0 0 1 -6.846332 7.47146 7.5 7.5 0 0 1 -8.03973 -6.1691 7.5 7.5 0 0 1 5.444915 -8.5468"/><path d="m71.63832-99.52068a7.5 7.5 0 0 1 -6.846332 7.47146 7.5 7.5 0 0 1 -8.03973 -6.169099 7.5 7.5 0 0 1 5.444915 -8.546808"/><path d="m-1.41305-4.318279a7.5 7.5 0 0 1 -6.846332 7.47146 7.5 7.5 0 0 1 -8.03973 -6.169099 7.5 7.5 0 0 1 5.444916 -8.546805"/><path d="m-26.622032-134.58339a7.5 7.5 0 0 1 -6.846332 7.47146 7.5 7.5 0 0 1 -8.03973 -6.1691 7.5 7.5 0 0 1 5.444915 -8.5468"/><path d="m68.34237-61.714642a7.5 7.5 0 0 1 -6.846332 7.471461 7.5 7.5 0 0 1 -8.03973 -6.169099 7.5 7.5 0 0 1 5.444915 -8.546805"/><path d="m34.664911-120.32854a7.5 7.5 0 0 1 -6.846332 7.47146 7.5 7.5 0 0 1 -8.03973 -6.1691 7.5 7.5 0 0 1 5.444915 -8.5468"/><path d="m-38.38646-25.12614a7.5 7.5 0 0 1 -6.846332 7.471461 7.5 7.5 0 0 1 -8.03973 -6.169099 7.5 7.5 0 0 1 5.444916 -8.546805"/><path d="m-23.802086-172.75468a7.5 7.5 0 0 1 -6.846332 7.47146 7.5 7.5 0 0 1 -8.03973 -6.1691 7.5 7.5 0 0 1 5.444915 -8.54681"/><path d="m-96.85345-77.55228a7.5 7.5 0 0 1 -6.846333 7.471461 7.5 7.5 0 0 1 -8.03973 -6.169099 7.5 7.5 0 0 1 5.44492 -8.546805"/></g></g></svg>