<svg xmlns="http://www.w3.org/2000/svg" width="58" height="58" viewBox="0 0 58 58"><g color-rendering="auto" color-interpolation-filters="linearRGB" shape-rendering="auto" fill-rule="evenodd" image-rendering="auto" color-interpolation="sRGB" color="#000000"><path d="m0 0h58v58h-58" isolation="auto" mix-blend-mode="normal" fill="#008000" solid-opacity="1" fill-opacity=".12" solid-color="#000000"/><g fill="#00a75f" fill-opacity=".3" transform="matrix(-.79.61-.61-.79 0 0)"><path d="m21.590278-40.867519a7.5 7.5 0 0 1 -6.846332 7.47146 7.5 7.5 0 0 1 -8.03973 -6.169099 7.5 7.5 0 0 1 5.444916 -8.546805"/><path d="m4.534753-57.736099a7.5 7.5 0 0 1 -6.846332 7.47146 7.5 7.5 0 0 1 -8.03973 -6.169099 7.5 7.5 0 0 1 5.444916 -8.546805"/><path d="m14.01807-25.24985a7.5 7.5 0 0 1 -6.846332 7.47146 7.5 7.5 0 0 1 -8.03973 -6.169099 7.5 7.5 0 0 1 5.444915 -8.546805"/><path d="m4.766472-42.43263a7.5 7.5 0 0 1 -6.846332 7.471461 7.5 7.5 0 0 1 -8.03973 -6.169099 7.5 7.5 0 0 1 5.444915 -8.546805"/><path d="m-8.781807-32.661026a7.5 7.5 0 0 1 -6.846332 7.47146 7.5 7.5 0 0 1 -8.03973 -6.169099 7.5 7.5 0 0 1 5.444915 -8.546805"/><path d="m-13.166456-48.630211a7.5 7.5 0 0 1 -6.846332 7.47146 7.5 7.5 0 0 1 -8.03973 -6.169099 7.5 7.5 0 0 1 5.444915 -8.546805"/><path d="m.074687-19.56284a7.5 7.5 0 0 1 -6.846332 7.471461 7.5 7.5 0 0 1 -8.03973 -6.169099 7.5 7.5 0 0 1 5.444915 -8.546805"/><path d="M16.657343-10.619938A7.5 7.5 0 0 1 9.811011 -3.148478 7.5 7.5 0 0 1 1.771285 -9.317577 7.5 7.5 0 0 1 7.2162 -17.864382"/><path d="m-29.19848-45.806347a7.5 7.5 0 0 1 -6.846332 7.47146 7.5 7.5 0 0 1 -8.03973 -6.169099 7.5 7.5 0 0 1 5.444916 -8.546805"/><path d="m-25.396671-27.763449a7.5 7.5 0 0 1 -6.846332 7.471461 7.5 7.5 0 0 1 -8.03973 -6.169099 7.5 7.5 0 0 1 5.444915 -8.546805"/><path d="m9.911492-73.77794a7.5 7.5 0 0 1 -6.846332 7.47146 7.5 7.5 0 0 1 -8.03973 -6.169099 7.5 7.5 0 0 1 5.444915 -8.546805"/><path d="m38.708647-47.899693a7.5 7.5 0 0 1 -6.846332 7.471461 7.5 7.5 0 0 1 -8.03973 -6.169099 7.5 7.5 0 0 1 5.444915 -8.546805"/><path d="M3.400484-1.885197A7.5 7.5 0 0 1 -3.445848 5.586263 7.5 7.5 0 0 1 -11.485575 -.582836 7.5 7.5 0 0 1 -6.04066 -9.129641"/><path d="m-9.588509-64.79184a7.5 7.5 0 0 1 -6.846332 7.471461 7.5 7.5 0 0 1 -8.03973 -6.169099 7.5 7.5 0 0 1 5.444916 -8.546805"/><path d="m36.743326-29.24018a7.5 7.5 0 0 1 -6.846332 7.47146 7.5 7.5 0 0 1 -8.03973 -6.169099 7.5 7.5 0 0 1 5.444915 -8.546805"/><path d="m20.777289-57.877487a7.5 7.5 0 0 1 -6.846332 7.47146 7.5 7.5 0 0 1 -8.03973 -6.169099 7.5 7.5 0 0 1 5.444916 -8.546805"/><path d="m-14.530874-11.862994a7.5 7.5 0 0 1 -6.846332 7.47146 7.5 7.5 0 0 1 -8.03973 -6.169099 7.5 7.5 0 0 1 5.444915 -8.546805"/><path d="m-6.988505-82.964348a7.5 7.5 0 0 1 -6.846332 7.47146 7.5 7.5 0 0 1 -8.03973 -6.169099 7.5 7.5 0 0 1 5.444916 -8.546805"/><path d="m-42.29667-36.949856a7.5 7.5 0 0 1 -6.846332 7.47146 7.5 7.5 0 0 1 -8.03973 -6.169099 7.5 7.5 0 0 1 5.444915 -8.546805"/></g></g></svg>