<svg xmlns="http://www.w3.org/2000/svg" width="51" height="51" viewBox="0 0 51 51"><g color-rendering="auto" color-interpolation-filters="linearRGB" shape-rendering="auto" fill-rule="evenodd" image-rendering="auto" color-interpolation="sRGB" color="#000000"><path d="m0 0h51v51h-51" isolation="auto" mix-blend-mode="normal" fill="#008000" solid-opacity="1" fill-opacity=".12" solid-color="#000000"/><g fill="#228b22" fill-opacity=".3" transform="matrix(.7.7-.7.7 0 0)"><ellipse cx="33.4" cy="17.5" rx="6" ry="7.5"/><ellipse cx="50" cy="4.3" rx="6" ry="7.5"/><ellipse cx="21.9" cy="11.8" rx="6" ry="7.5"/><ellipse cx="37.5" cy="3.5" rx="6" ry="7.5"/><ellipse cx="30.4" cy="-9.2" rx="6" ry="7.5"/><ellipse cx="44" cy="-10.4" rx="6" ry="7.5"/><ellipse cx="18.3" cy="-2.8" rx="6" ry="7.5"/><ellipse cx="8.8" cy="10.5" rx="6" ry="7.5"/><ellipse cx="44" cy="-25" rx="6" ry="7.5"/><ellipse cx="27.6" cy="-24.7" rx="6" ry="7.5"/><ellipse cx="64" cy="11.3" rx="6" ry="7.5"/><ellipse cx="38" cy="33.8" rx="6" ry="7.5"/><ellipse cx="2.3" cy="-2.3" rx="6" ry="7.5"/><ellipse cx="58" cy="-6" rx="6" ry="7.5"/><ellipse cx="22.6" cy="29.7" rx="6" ry="7.5"/><ellipse cx="48.8" cy="19" rx="6" ry="7.5"/><ellipse cx="12.7" cy="-17" rx="6" ry="7.5"/><ellipse cx="74" cy="-2.1" rx="6" ry="7.5"/><ellipse cx="38" cy="-38" rx="6" ry="7.5"/></g></g></svg>