<svg xmlns="http://www.w3.org/2000/svg" width="140" height="140" viewBox="0 0 140 140"><g color-rendering="auto" color-interpolation-filters="linearRGB" shape-rendering="auto" fill-rule="evenodd" image-rendering="auto" color-interpolation="sRGB" color="#000000"><path d="m0 0h140v140h-140z" isolation="auto" mix-blend-mode="normal" fill="#008000" solid-opacity="1" fill-opacity=".12" solid-color="#000000"/><g fill="#228b22" fill-opacity=".3" transform="matrix(.7.7-.7.7 0 0)"><ellipse cx="94" cy="46" rx="7.6" ry="9.5"/><ellipse cx="139" cy="10.6" rx="7.6" ry="9.5"/><ellipse cx="59" cy="23" rx="7.6" ry="9.5"/><ellipse cx="104" cy="6.5" rx="7.6" ry="9.5"/><ellipse cx="85" cy="-28" rx="7.6" ry="9.5"/><ellipse cx="123" cy="-35" rx="7.6" ry="9.5"/><ellipse cx="49.9" cy="-11.7" rx="7.6" ry="9.5"/><ellipse cx="22.5" cy="24" rx="7.6" ry="9.5"/><ellipse cx="122" cy="-75" rx="7.6" ry="9.5"/><ellipse cx="78" cy="-71" rx="7.6" ry="9.5"/><ellipse cx="177" cy="28" rx="7.6" ry="9.5"/><ellipse cx="106" cy="90" rx="7.6" ry="9.5"/><ellipse cx="6.6" cy="-9.5" rx="7.6" ry="9.5"/><ellipse cx="161" cy="-19.8" rx="7.6" ry="9.5"/><ellipse cx="61.9" cy="79" rx="7.6" ry="9.5"/><ellipse cx="135" cy="50" rx="7.6" ry="9.5"/><ellipse cx="36" cy="-48.8" rx="7.6" ry="9.5"/><ellipse cx="204" cy="-9.2" rx="7.6" ry="9.5"/><ellipse cx="105" cy="-108" rx="7.6" ry="9.5"/></g></g></svg>