<svg xmlns="http://www.w3.org/2000/svg" width="51" height="51" viewBox="0 0 51 51"><g transform="translate(0-1001)" color-rendering="auto" color-interpolation-filters="linearRGB" shape-rendering="auto" image-rendering="auto" fill-rule="evenodd" color-interpolation="sRGB" color="#000000"><path mix-blend-mode="normal" solid-color="#000000" fill-opacity=".12" isolation="auto" solid-opacity="1" fill="#008000" d="m0 1001h51v51h-51z"/><g fill="#00a75f" fill-opacity=".3"><circle cx="11.3" cy="1037" r="7.5"/><circle cx="32" cy="1040" r="7.5"/><circle cx="8.3" cy="1023" r="7.5"/><circle cx="24" cy="1030" r="7.5"/><circle cx="28" cy="1016" r="7.5"/><circle cx="39.7" cy="1024" r="7.5"/><circle cx="14.9" cy="1012" r="7.5"/><circle cx="-1.4" cy="1014" r="7.5"/><circle cx="49" cy="1014" r="7.5"/><circle cx="37" cy="1003" r="7.5"/><circle cx="37" cy="1054" r="7.5"/><circle cx="3.2" cy="1052" r="7.5"/><circle cx="3.2" cy="1001" r="7.5"/><circle cx="45" cy="1038" r="7.5"/><circle cx="-5.4" cy="1038" r="7.5"/><circle cx="21" cy="1049" r="7.5"/><circle cx="21" cy="998" r="7.5"/><circle cx="53.9" cy="1052" r="7.5"/><circle cx="53.9" cy="1001" r="7.5"/></g></g></svg>