<svg xmlns="http://www.w3.org/2000/svg" width="87" height="87" viewBox="0 0 87.099998 87.099998"><g transform="translate(0-965)" color-rendering="auto" color-interpolation-filters="linearRGB" shape-rendering="auto" image-rendering="auto" fill-rule="evenodd" color-interpolation="sRGB" color="#000000"><path mix-blend-mode="normal" solid-color="#000000" fill-opacity=".12" isolation="auto" solid-opacity="1" fill="#008000" d="m0 965h87v87h-87z"/><g fill="#00a75f" fill-opacity=".3"><circle cx="20.4" cy="1027" r="11.5"/><circle cx="55.9" cy="1031" r="11.5"/><circle cx="15.2" cy="1002" r="11.5"/><circle cx="42" cy="1014" r="11.5"/><circle cx="49" cy="991" r="11.5"/><circle cx="68.9" cy="1005" r="11.5"/><circle cx="26.5" cy="983" r="11.5"/><circle cx="-1.3" cy="986" r="11.5"/><circle cx="85" cy="986" r="11.5"/><circle cx="65" cy="969" r="11.5"/><circle cx="65" cy="1056" r="11.5"/><circle cx="6.5" cy="1051" r="11.5"/><circle cx="6.5" cy="965" r="11.5"/><circle cx="78" cy="1028" r="11.5"/><circle cx="-8.2" cy="1028" r="11.5"/><circle cx="36.9" cy="1047" r="11.5"/><circle cx="36.9" cy="960" r="11.5"/><circle cx="93" cy="1051" r="11.5"/><circle cx="93" cy="965" r="11.5"/></g></g></svg>