<svg xmlns="http://www.w3.org/2000/svg" width="77" height="77" viewBox="0 0 77 77"><g transform="translate(0-975)" color-rendering="auto" color-interpolation-filters="linearRGB" shape-rendering="auto" image-rendering="auto" fill-rule="evenodd" color-interpolation="sRGB" color="#000000"><path mix-blend-mode="normal" solid-color="#000000" fill-opacity=".12" isolation="auto" solid-opacity="1" fill="#008000" d="m0 975h77v77h-77z"/><g fill="#00a75f" fill-opacity=".3"><circle cx="18.4" cy="1029" r="11.5"/><circle cx="50" cy="1033" r="11.5"/><circle cx="13.8" cy="1007" r="11.5"/><circle cx="37.6" cy="1018" r="11.5"/><circle cx="43.8" cy="997" r="11.5"/><circle cx="62" cy="1009" r="11.5"/><circle cx="23.8" cy="990" r="11.5"/><circle cx="-.9" cy="993" r="11.5"/><circle cx="76" cy="993" r="11.5"/><circle cx="57.7" cy="978" r="11.5"/><circle cx="57.7" cy="1055" r="11.5"/><circle cx="6.1" cy="1051" r="11.5"/><circle cx="6.1" cy="974" r="11.5"/><circle cx="70" cy="1030" r="11.5"/><circle cx="-7" cy="1030" r="11.5"/><circle cx="33" cy="1047" r="11.5"/><circle cx="33" cy="970" r="11.5"/><circle cx="83" cy="1051" r="11.5"/><circle cx="83" cy="974" r="11.5"/></g></g></svg>