<svg xmlns="http://www.w3.org/2000/svg" width="120" height="120" viewBox="0 0 120 120"><g transform="translate(0-932)" color-rendering="auto" color-interpolation-filters="linearRGB" shape-rendering="auto" image-rendering="auto" fill-rule="evenodd" color-interpolation="sRGB" color="#000000"><path mix-blend-mode="normal" solid-color="#000000" fill-opacity=".12" isolation="auto" solid-opacity="1" fill="#008000" d="m0 932h120v120h-120z"/><g fill="#00a75f" fill-opacity=".3"><circle cx="28.9" cy="1016" r="7.5"/><circle cx="78" cy="1022" r="7.5"/><circle cx="21.7" cy="982" r="7.5"/><circle cx="58.9" cy="998" r="7.5"/><circle cx="69" cy="966" r="7.5"/><circle cx="96" cy="985" r="7.5"/><circle cx="37" cy="955" r="7.5"/><circle cx="-1.1" cy="960" r="7.5"/><circle cx="119" cy="960" r="7.5"/><circle cx="90" cy="936" r="7.5"/><circle cx="90" cy="1056" r="7.5"/><circle cx="9.7" cy="1050" r="7.5"/><circle cx="9.7" cy="930" r="7.5"/><circle cx="109" cy="1018" r="7.5"/><circle cx="-10.7" cy="1018" r="7.5"/><circle cx="51.7" cy="1044" r="7.5"/><circle cx="51.7" cy="924" r="7.5"/><circle cx="130" cy="1050" r="7.5"/><circle cx="130" cy="930" r="7.5"/></g></g></svg>