<svg xmlns="http://www.w3.org/2000/svg" width="33.5" height="33.5" viewBox="0 0 33.5 33.5"><g transform="translate(0-1019)" color-rendering="auto" color-interpolation-filters="linearRGB" shape-rendering="auto" image-rendering="auto" fill-rule="evenodd" color-interpolation="sRGB" color="#000000"><path mix-blend-mode="normal" solid-color="#000000" fill-opacity=".12" isolation="auto" solid-opacity="1" fill="#008000" d="m0 1019h33.5v33.5h-33.5z"/><g fill="#00a75f" fill-opacity=".3"><circle cx="7" cy="1043" r="3.8"/><circle cx="20.7" cy="1045" r="3.8"/><circle cx="5" cy="1034" r="3.8"/><circle cx="15.3" cy="1038" r="3.8"/><circle cx="18" cy="1029" r="3.8"/><circle cx="25.7" cy="1035" r="3.8"/><circle cx="9.3" cy="1026" r="3.8"/><circle cx="-1.3" cy="1028" r="3.8"/><circle cx="32" cy="1028" r="3.8"/><circle cx="24" cy="1021" r="3.8"/><circle cx="24" cy="1054" r="3.8"/><circle cx="1.7" cy="1053" r="3.8"/><circle cx="1.7" cy="1019" r="3.8"/><circle cx="29" cy="1044" r="3.8"/><circle cx="-4" cy="1044" r="3.8"/><circle cx="13.3" cy="1051" r="3.8"/><circle cx="13.3" cy="1018" r="3.8"/><circle cx="35" cy="1053" r="3.8"/><circle cx="35" cy="1019" r="3.8"/></g></g></svg>