<svg xmlns="http://www.w3.org/2000/svg" width="72" height="72" viewBox="0 0 72 72"><g transform="translate(0-980)" color-rendering="auto" color-interpolation-filters="linearRGB" shape-rendering="auto" image-rendering="auto" fill-rule="evenodd" color-interpolation="sRGB" color="#000000"><path mix-blend-mode="normal" solid-color="#000000" fill-opacity=".12" isolation="auto" solid-opacity="1" fill="#008000" d="m0 980h72v72h-72z"/><g fill="#00a75f" fill-opacity=".3"><circle cx="17" cy="1031" r="9.5"/><circle cx="46.7" cy="1034" r="9.5"/><circle cx="12.8" cy="1010" r="9.5"/><circle cx="35" cy="1020" r="9.5"/><circle cx="40.9" cy="1001" r="9.5"/><circle cx="57" cy="1012" r="9.5"/><circle cx="22" cy="994" r="9.5"/><circle cx="-.9" cy="997" r="9.5"/><circle cx="71" cy="997" r="9.5"/><circle cx="53.9" cy="983" r="9.5"/><circle cx="53.9" cy="1055" r="9.5"/><circle cx="5.6" cy="1051" r="9.5"/><circle cx="5.6" cy="979" r="9.5"/><circle cx="65" cy="1032" r="9.5"/><circle cx="-6.6" cy="1032" r="9.5"/><circle cx="30.8" cy="1047" r="9.5"/><circle cx="30.8" cy="975" r="9.5"/><circle cx="78" cy="1051" r="9.5"/><circle cx="78" cy="979" r="9.5"/></g></g></svg>