<svg xmlns="http://www.w3.org/2000/svg" width="30" height="30" viewBox="0 0 30 30"><g transform="translate(0-1022)" color-rendering="auto" color-interpolation-filters="linearRGB" shape-rendering="auto" image-rendering="auto" fill-rule="evenodd" color-interpolation="sRGB" color="#000000"><path mix-blend-mode="normal" solid-color="#000000" fill-opacity=".12" isolation="auto" solid-opacity="1" fill="#008000" d="m0 1022h30v30h-30z"/><g fill="#359505" fill-opacity=".3"><circle cx="6.9" cy="1043" r="3.8"/><circle cx="19" cy="1045" r="3.8"/><circle cx="5" cy="1034" r="3.8"/><circle cx="14.3" cy="1039" r="3.8"/><circle cx="16.8" cy="1030" r="3.8"/><circle cx="23.7" cy="1035" r="3.8"/><circle cx="9" cy="1028" r="3.8"/><circle cx="-.6" cy="1029" r="3.8"/><circle cx="29" cy="1029" r="3.8"/><circle cx="22" cy="1023" r="3.8"/><circle cx="22" cy="1053" r="3.8"/><circle cx="2.1" cy="1051" r="3.8"/><circle cx="2.1" cy="1021" r="3.8"/><circle cx="26.9" cy="1043" r="3.8"/><circle cx="-3" cy="1043" r="3.8"/><circle cx="12.6" cy="1050" r="3.8"/><circle cx="12.6" cy="1020" r="3.8"/><circle cx="32" cy="1051" r="3.8"/><circle cx="32" cy="1021" r="3.8"/></g></g></svg>