<svg xmlns="http://www.w3.org/2000/svg" width="63" height="63" viewBox="0 0 63 63"><g color-rendering="auto" color-interpolation-filters="linearRGB" shape-rendering="auto" fill-rule="evenodd" image-rendering="auto" color-interpolation="sRGB" color="#000000"><path d="m0 0h63v63h-63" isolation="auto" mix-blend-mode="normal" fill="#008000" solid-opacity="1" fill-opacity=".12" solid-color="#000000"/><g fill="#00a75f" fill-opacity=".3" transform="matrix(.7.7-.7.7 0 0)"><ellipse cx="42" cy="21.5" rx="7.6" ry="9.5"/><ellipse cx="61.9" cy="4" rx="7.6" ry="9.5"/><ellipse cx="27.9" cy="14.5" rx="7.6" ry="9.5"/><ellipse cx="46.8" cy="3.3" rx="7.6" ry="9.5"/><ellipse cx="37.5" cy="-12" rx="7.6" ry="9.5"/><ellipse cx="55.6" cy="-13.4" rx="7.6" ry="9.5"/><ellipse cx="23" cy="-3.9" rx="7.6" ry="9.5"/><ellipse cx="12.3" cy="12.2" rx="7.6" ry="9.5"/><ellipse cx="56.8" cy="-32" rx="7.6" ry="9.5"/><ellipse cx="35" cy="-30.8" rx="7.6" ry="9.5"/><ellipse cx="80" cy="13.7" rx="7.6" ry="9.5"/><ellipse cx="47" cy="40.6" rx="7.6" ry="9.5"/><ellipse cx="3.3" cy="-3.3" rx="7.6" ry="9.5"/><ellipse cx="73" cy="-9.4" rx="7.6" ry="9.5"/><ellipse cx="28" cy="35" rx="7.6" ry="9.5"/><ellipse cx="61" cy="22.9" rx="7.6" ry="9.5"/><ellipse cx="16.7" cy="-20.9" rx="7.6" ry="9.5"/><ellipse cx="91" cy="-3.5" rx="7.6" ry="9.5"/><ellipse cx="47" cy="-47" rx="7.6" ry="9.5"/></g></g></svg>