<svg xmlns="http://www.w3.org/2000/svg" width="84" height="84" viewBox="0 0 83.75 83.75"><g color-rendering="auto" color-interpolation-filters="linearRGB" shape-rendering="auto" fill-rule="evenodd" image-rendering="auto" color-interpolation="sRGB" color="#000000"><path d="m0 0h84v84h-84" isolation="auto" mix-blend-mode="normal" fill="#008000" solid-opacity="1" fill-opacity=".12" solid-color="#000000"/><g fill="#00a75f" fill-opacity=".3" transform="matrix(.7.7-.7.7 0 0)"><ellipse cx="55" cy="28" rx="6" ry="7.5"/><ellipse cx="83" cy="7.8" rx="6" ry="7.5"/><ellipse cx="34.9" cy="14.6" rx="6" ry="7.5"/><ellipse cx="62" cy="4.9" rx="6" ry="7.5"/><ellipse cx="50" cy="-16" rx="6" ry="7.5"/><ellipse cx="73" cy="-19.7" rx="6" ry="7.5"/><ellipse cx="29.7" cy="-5.7" rx="6" ry="7.5"/><ellipse cx="13" cy="15.3" rx="6" ry="7.5"/><ellipse cx="72" cy="-43.8" rx="6" ry="7.5"/><ellipse cx="46.5" cy="-40.9" rx="6" ry="7.5"/><ellipse cx="105" cy="17.8" rx="6" ry="7.5"/><ellipse cx="62.9" cy="55" rx="6" ry="7.5"/><ellipse cx="3.5" cy="-4.9" rx="6" ry="7.5"/><ellipse cx="95" cy="-10.6" rx="6" ry="7.5"/><ellipse cx="36.6" cy="48" rx="6" ry="7.5"/><ellipse cx="81" cy="31" rx="6" ry="7.5"/><ellipse cx="21" cy="-28" rx="6" ry="7.5"/><ellipse cx="122" cy="-4.2" rx="6" ry="7.5"/><ellipse cx="62" cy="-64" rx="6" ry="7.5"/></g></g></svg>