<svg xmlns="http://www.w3.org/2000/svg" width="120" height="120" viewBox="0 0 120 120"><g color-rendering="auto" color-interpolation-filters="linearRGB" shape-rendering="auto" fill-rule="evenodd" image-rendering="auto" color-interpolation="sRGB" color="#000000"><path d="m0 0h120v120h-120z" isolation="auto" mix-blend-mode="normal" fill="#008000" solid-opacity="1" fill-opacity=".12" solid-color="#000000"/><g fill="#00a75f" fill-opacity=".3" transform="matrix(.7.7-.7.7 0 0)"><ellipse cx="80" cy="39" rx="9.2" ry="11.5"/><ellipse cx="119" cy="8.5" rx="9.2" ry="11.5"/><ellipse cx="50.7" cy="20" rx="9.2" ry="11.5"/><ellipse cx="88" cy="5" rx="9.2" ry="11.5"/><ellipse cx="72.8" cy="-24.7" rx="9.2" ry="11.5"/><ellipse cx="105" cy="-30.4" rx="9.2" ry="11.5"/><ellipse cx="42" cy="-9.9" rx="9.2" ry="11.5"/><ellipse cx="19" cy="20.6" rx="9.2" ry="11.5"/><ellipse cx="104" cy="-64" rx="9.2" ry="11.5"/><ellipse cx="66" cy="-60.8" rx="9.2" ry="11.5"/><ellipse cx="151" cy="24" rx="9.2" ry="11.5"/><ellipse cx="90" cy="77" rx="9.2" ry="11.5"/><ellipse cx="5.4" cy="-8.3" rx="9.2" ry="11.5"/><ellipse cx="138" cy="-16.3" rx="9.2" ry="11.5"/><ellipse cx="53" cy="68" rx="9.2" ry="11.5"/><ellipse cx="116" cy="42.6" rx="9.2" ry="11.5"/><ellipse cx="30.9" cy="-42" rx="9.2" ry="11.5"/><ellipse cx="175" cy="-8.5" rx="9.2" ry="11.5"/><ellipse cx="91" cy="-93" rx="9.2" ry="11.5"/></g></g></svg>