<svg xmlns="http://www.w3.org/2000/svg" width="44" height="44" viewBox="0 0 44 44"><g color-rendering="auto" color-interpolation-filters="linearRGB" shape-rendering="auto" fill-rule="evenodd" image-rendering="auto" color-interpolation="sRGB" color="#000000"><path d="m0 0h44v44h-44" isolation="auto" mix-blend-mode="normal" fill="#008000" solid-opacity="1" fill-opacity=".12" solid-color="#000000"/><g fill="#00a75f" fill-opacity=".3" transform="matrix(.7.7-.7.7 0 0)"><ellipse cx="29.4" cy="14.4" rx="4.6" ry="5.7"/><ellipse cx="43.6" cy="3" rx="4.6" ry="5.7"/><ellipse cx="18" cy="8.4" rx="4.6" ry="5.7"/><ellipse cx="33" cy="2.4" rx="4.6" ry="5.7"/><ellipse cx="26.9" cy="-8.5" rx="4.6" ry="5.7"/><ellipse cx="38.9" cy="-10.6" rx="4.6" ry="5.7"/><ellipse cx="16" cy="-3.3" rx="4.6" ry="5.7"/><ellipse cx="6.8" cy="7.4" rx="4.6" ry="5.7"/><ellipse cx="37.9" cy="-23.8" rx="4.6" ry="5.7"/><ellipse cx="24.7" cy="-21.9" rx="4.6" ry="5.7"/><ellipse cx="55.9" cy="9.2" rx="4.6" ry="5.7"/><ellipse cx="33" cy="27.9" rx="4.6" ry="5.7"/><ellipse cx="1.8" cy="-3.3" rx="4.6" ry="5.7"/><ellipse cx="50.9" cy="-5.7" rx="4.6" ry="5.7"/><ellipse cx="19.9" cy="25.4" rx="4.6" ry="5.7"/><ellipse cx="42" cy="15.6" rx="4.6" ry="5.7"/><ellipse cx="11.3" cy="-15.6" rx="4.6" ry="5.7"/><ellipse cx="64" cy="-3.3" rx="4.6" ry="5.7"/><ellipse cx="33" cy="-34" rx="4.6" ry="5.7"/></g></g></svg>