<svg xmlns="http://www.w3.org/2000/svg" width="58" height="58" viewBox="0 0 58 58"><g transform="translate(0-994)" color-rendering="auto" color-interpolation-filters="linearRGB" shape-rendering="auto" image-rendering="auto" fill-rule="evenodd" color-interpolation="sRGB" color="#000000"><path mix-blend-mode="normal" solid-color="#000000" fill-opacity=".12" isolation="auto" solid-opacity="1" fill="#008000" d="m0 994h58v58h-58z"/><g fill="#228b22" fill-opacity=".3"><circle cx="13.7" cy="1035" r="7.5"/><circle cx="37.5" cy="1038" r="7.5"/><circle cx="10.2" cy="1018" r="7.5"/><circle cx="28" cy="1026" r="7.5"/><circle cx="32.8" cy="1010" r="7.5"/><circle cx="46" cy="1020" r="7.5"/><circle cx="17.8" cy="1005" r="7.5"/><circle cx="-.8" cy="1008" r="7.5"/><circle cx="57" cy="1008" r="7.5"/><circle cx="43" cy="996" r="7.5"/><circle cx="43" cy="1054" r="7.5"/><circle cx="4.4" cy="1051" r="7.5"/><circle cx="4.4" cy="993" r="7.5"/><circle cx="53" cy="1035" r="7.5"/><circle cx="-5.4" cy="1035" r="7.5"/><circle cx="24.7" cy="1048" r="7.5"/><circle cx="24.7" cy="990" r="7.5"/><circle cx="62" cy="1051" r="7.5"/><circle cx="62" cy="993" r="7.5"/></g></g></svg>