<svg xmlns="http://www.w3.org/2000/svg" width="67" height="67" viewBox="0 0 67 67"><g transform="translate(0-985)" color-rendering="auto" color-interpolation-filters="linearRGB" shape-rendering="auto" image-rendering="auto" fill-rule="evenodd" color-interpolation="sRGB" color="#000000"><path mix-blend-mode="normal" solid-color="#000000" fill-opacity=".12" isolation="auto" solid-opacity="1" fill="#008000" d="m0 985h67v67h-67z"/><g fill="#228b22" fill-opacity=".3"><circle cx="15.5" cy="1033" r="3.8"/><circle cx="42.8" cy="1036" r="3.8"/><circle cx="11.5" cy="1013" r="3.8"/><circle cx="32" cy="1023" r="3.8"/><circle cx="37.5" cy="1005" r="3.8"/><circle cx="52.8" cy="1015" r="3.8"/><circle cx="20" cy="999" r="3.8"/><circle cx="-1.2" cy="1001" r="3.8"/><circle cx="66" cy="1001" r="3.8"/><circle cx="50" cy="988" r="3.8"/><circle cx="50" cy="1055" r="3.8"/><circle cx="4.8" cy="1051" r="3.8"/><circle cx="4.8" cy="985" r="3.8"/><circle cx="60" cy="1033" r="3.8"/><circle cx="-6.5" cy="1033" r="3.8"/><circle cx="28" cy="1048" r="3.8"/><circle cx="28" cy="981" r="3.8"/><circle cx="72" cy="1051" r="3.8"/><circle cx="72" cy="985" r="3.8"/></g></g></svg>