<svg xmlns="http://www.w3.org/2000/svg" width="26" height="26" viewBox="0 0 26 26"><g transform="translate(0-1026)" color-rendering="auto" color-interpolation-filters="linearRGB" shape-rendering="auto" image-rendering="auto" fill-rule="evenodd" color-interpolation="sRGB" color="#000000"><path mix-blend-mode="normal" solid-color="#000000" fill-opacity=".12" isolation="auto" solid-opacity="1" fill="#008000" d="m0 1026h26v26h-26z"/><g fill="#228b22" fill-opacity=".3"><circle cx="5.5" cy="1045" r="3.8"/><circle cx="16" cy="1046" r="3.8"/><circle cx="4" cy="1038" r="3.8"/><circle cx="12" cy="1041" r="3.8"/><circle cx="14" cy="1034" r="3.8"/><circle cx="20" cy="1038" r="3.8"/><circle cx="7.3" cy="1032" r="3.8"/><circle cx="-.9" cy="1033" r="3.8"/><circle cx="24.9" cy="1033" r="3.8"/><circle cx="18.7" cy="1028" r="3.8"/><circle cx="19.3" cy="1054" r="3.8"/><circle cx="1.4" cy="1052" r="3.8"/><circle cx="1.4" cy="1026" r="3.8"/><circle cx="22.9" cy="1045" r="3.8"/><circle cx="-3" cy="1045" r="3.8"/><circle cx="10.4" cy="1051" r="3.8"/><circle cx="10.4" cy="1025" r="3.8"/><circle cx="27" cy="1052" r="3.8"/><circle cx="27" cy="1026" r="3.8"/></g></g></svg>