<svg xmlns="http://www.w3.org/2000/svg" width="63" height="63" viewBox="0 0 63 63"><g transform="translate(0-989)" color-rendering="auto" color-interpolation-filters="linearRGB" shape-rendering="auto" image-rendering="auto" fill-rule="evenodd" color-interpolation="sRGB" color="#000000"><path mix-blend-mode="normal" solid-color="#000000" fill-opacity=".12" isolation="auto" solid-opacity="1" fill="#008000" d="m0 989h63v63h-63z"/><g fill="#228b22" fill-opacity=".3"><circle cx="14.6" cy="1034" r="9.5"/><circle cx="40" cy="1037" r="9.5"/><circle cx="10.9" cy="1016" r="9.5"/><circle cx="30" cy="1024" r="9.5"/><circle cx="35" cy="1007" r="9.5"/><circle cx="49.7" cy="1018" r="9.5"/><circle cx="19" cy="1002" r="9.5"/><circle cx="-1" cy="1004" r="9.5"/><circle cx="62" cy="1004" r="9.5"/><circle cx="46.6" cy="992" r="9.5"/><circle cx="46.6" cy="1055" r="9.5"/><circle cx="4.6" cy="1051" r="9.5"/><circle cx="4.6" cy="989" r="9.5"/><circle cx="57" cy="1034" r="9.5"/><circle cx="-6" cy="1034" r="9.5"/><circle cx="26.6" cy="1048" r="9.5"/><circle cx="26.6" cy="986" r="9.5"/><circle cx="67" cy="1051" r="9.5"/><circle cx="67" cy="989" r="9.5"/></g></g></svg>