<svg xmlns="http://www.w3.org/2000/svg" width="39" height="39" viewBox="0 0 39 39"><g transform="translate(0-1013)" color-rendering="auto" color-interpolation-filters="linearRGB" shape-rendering="auto" image-rendering="auto" fill-rule="evenodd" color-interpolation="sRGB" color="#000000"><path mix-blend-mode="normal" solid-color="#000000" fill-opacity=".12" isolation="auto" solid-opacity="1" fill="#008000" d="m0 1013h39v39h-39z"/><g fill="#228b22" fill-opacity=".3"><circle cx="9" cy="1041" r="5.7"/><circle cx="25" cy="1042" r="5.7"/><circle cx="6.7" cy="1029" r="5.7"/><circle cx="18.8" cy="1035" r="5.7"/><circle cx="21.9" cy="1024" r="5.7"/><circle cx="30.9" cy="1030" r="5.7"/><circle cx="11.8" cy="1021" r="5.7"/><circle cx="-.7" cy="1022" r="5.7"/><circle cx="38" cy="1022" r="5.7"/><circle cx="29" cy="1014" r="5.7"/><circle cx="29" cy="1053" r="5.7"/><circle cx="2.8" cy="1051" r="5.7"/><circle cx="2.8" cy="1012" r="5.7"/><circle cx="35" cy="1041" r="5.7"/><circle cx="-3.8" cy="1041" r="5.7"/><circle cx="16.5" cy="1050" r="5.7"/><circle cx="16.5" cy="1011" r="5.7"/><circle cx="41.8" cy="1051" r="5.7"/><circle cx="41.8" cy="1012" r="5.7"/></g></g></svg>