<svg xmlns="http://www.w3.org/2000/svg" width="140" height="140" viewBox="0 0 140 140"><g transform="translate(0-912)" color-rendering="auto" color-interpolation-filters="linearRGB" shape-rendering="auto" image-rendering="auto" fill-rule="evenodd" color-interpolation="sRGB" color="#000000"><path mix-blend-mode="normal" solid-color="#000000" fill-opacity=".12" isolation="auto" solid-opacity="1" fill="#008000" d="m0 912h140v140h-140z"/><g fill="#228b22" fill-opacity=".3"><circle cx="33.8" cy="1011" r="9.5"/><circle cx="91" cy="1018" r="9.5"/><circle cx="25.4" cy="970" r="9.5"/><circle cx="68.8" cy="990" r="9.5"/><circle cx="80" cy="952" r="9.5"/><circle cx="112" cy="974" r="9.5"/><circle cx="43.6" cy="939" r="9.5"/><circle cx="-1.2" cy="945" r="9.5"/><circle cx="139" cy="945" r="9.5"/><circle cx="105" cy="917" r="9.5"/><circle cx="105" cy="1057" r="9.5"/><circle cx="11.4" cy="1050" r="9.5"/><circle cx="11.4" cy="910" r="9.5"/><circle cx="128" cy="1012" r="9.5"/><circle cx="-12.4" cy="1012" r="9.5"/><circle cx="60" cy="1043" r="9.5"/><circle cx="60" cy="903" r="9.5"/><circle cx="151" cy="1050" r="9.5"/><circle cx="151" cy="910" r="9.5"/></g></g></svg>