<svg xmlns="http://www.w3.org/2000/svg" xmlns:xlink="http://www.w3.org/1999/xlink" width="120" height="120" viewBox="0 0 120 120"><defs><linearGradient gradientTransform="matrix(.74 0 0 .68 3.3-576.4)" xlink:href="#3" id="J" x1="53.7" y1="994" x2="36.6" y2="995" gradientUnits="userSpaceOnUse"/><linearGradient gradientTransform="matrix(.74 0 0 .68 73.88-611.7)" xlink:href="#3" id="D" x1="53.7" y1="994" x2="36.6" y2="995" gradientUnits="userSpaceOnUse"/><linearGradient gradientTransform="matrix(.74 0 0 .68-38.3-693.5)" xlink:href="#3" id="B" x1="53.7" y1="994" x2="36.6" y2="995" gradientUnits="userSpaceOnUse"/><linearGradient gradientTransform="matrix(.74 0 0 .68-38.3-573.4)" xlink:href="#3" id="C" x1="53.7" y1="994" x2="36.6" y2="995" gradientUnits="userSpaceOnUse"/><linearGradient gradientTransform="matrix(.74 0 0 .68 7.47-623.7)" xlink:href="#3" id="E" x1="53.7" y1="994" x2="36.6" y2="995" gradientUnits="userSpaceOnUse"/><linearGradient gradientTransform="matrix(.74 0 0 .68 43.97-567.4)" xlink:href="#3" id="F" x1="53.7" y1="994" x2="36.6" y2="995" gradientUnits="userSpaceOnUse"/><linearGradient gradientTransform="matrix(.74 0 0 .68 66.97-660.7)" xlink:href="#3" id="I" x1="53.7" y1="994" x2="36.6" y2="995" gradientUnits="userSpaceOnUse"/><linearGradient gradientTransform="matrix(.74 0 0 .68 81.5-693.5)" xlink:href="#3" id="G" x1="53.7" y1="994" x2="36.6" y2="995" gradientUnits="userSpaceOnUse"/><linearGradient gradientTransform="matrix(.74 0 0 .68 81.5-573.4)" xlink:href="#3" id="H" x1="53.7" y1="994" x2="36.6" y2="995" gradientUnits="userSpaceOnUse"/><linearGradient gradientTransform="matrix(.74 0 0 .68 3.3-696.5)" xlink:href="#3" id="A" x1="53.7" y1="994" x2="36.6" y2="995" gradientUnits="userSpaceOnUse"/><linearGradient gradientTransform="matrix(.74 0 0 .68 43.97-687.5)" xlink:href="#3" id="9" x1="53.7" y1="994" x2="36.6" y2="995" gradientUnits="userSpaceOnUse"/><linearGradient gradientTransform="matrix(.74 0 0 .68 32.9-600.7)" xlink:href="#3" id="2" x1="53.7" y1="994" x2="36.6" y2="995" gradientUnits="userSpaceOnUse"/><linearGradient gradientTransform="matrix(.74 0 0 .68 23.77-654.7)" xlink:href="#3" id="0" x1="53.7" y1="994" x2="36.6" y2="995" gradientUnits="userSpaceOnUse"/><linearGradient gradientTransform="matrix(.74 0 0 .68 51.5-632.7)" xlink:href="#3" id="1" x1="53.7" y1="994" x2="36.6" y2="995" gradientUnits="userSpaceOnUse"/><linearGradient id="3"><stop stop-color="#505145"/><stop offset="1" stop-opacity="0"/></linearGradient><linearGradient gradientTransform="matrix(.74 0 0 .68-9.23-668.7)" xlink:href="#3" id="8" x1="53.7" y1="994" x2="36.6" y2="995" gradientUnits="userSpaceOnUse"/><linearGradient gradientTransform="matrix(.74 0 0 .68-17.6-596.7)" xlink:href="#3" id="4" x1="53.7" y1="994" x2="36.6" y2="995" gradientUnits="userSpaceOnUse"/><linearGradient gradientTransform="matrix(.74 0 0 .68-45.77-611.7)" xlink:href="#3" id="7" x1="53.7" y1="994" x2="36.6" y2="995" gradientUnits="userSpaceOnUse"/><linearGradient gradientTransform="matrix(.74 0 0 .68-52.75-660.7)" xlink:href="#3" id="5" x1="53.7" y1="994" x2="36.6" y2="995" gradientUnits="userSpaceOnUse"/><linearGradient gradientTransform="matrix(.74 0 0 .68-24.53-640.5)" xlink:href="#3" id="6" x1="53.7" y1="994" x2="36.6" y2="995" gradientUnits="userSpaceOnUse"/></defs><rect isolation="auto" mix-blend-mode="normal" height="120" width="120" fill="#89a02c" color-rendering="auto" solid-opacity="1" color-interpolation-filters="linearRGB" shape-rendering="auto" fill-rule="evenodd" image-rendering="auto" fill-opacity=".03" color-interpolation="sRGB" color="#000000" solid-color="#000000"/><g stroke="#604713" stroke-width=".45"><path d="m40.3 74.6c1.69-.45 2.56-.75 3.1-2.4 2.3-8.25 1.22-10.88-2.56-15.75.2-.3 1.48-.67 1.76-1.2 2.97 4.05 2.97 4.2 3.31-1.05.61.45 2.43.52 3.38 1.05.47 7.2.34 9 4.45 5.48 1.42 2.25 1.28 1.5 1.28 1.5-3.75 4.57-5.4 2.25-4.93 9.52.13 2.55.88 2.17 3.65 2.85-5.67 0-7.58 0-13.43 0" fill="url(#E)"/><path d="m-5.43 5.27c1.69-.45 2.56-.75 3.1-2.4 2.3-8.25 1.22-10.88-2.56-15.75.2-.3 1.49-.68 1.75-1.2 2.97 4.05 2.97 4.2 3.31-1.05.61.45 2.43.53 3.37 1.05.47 7.2.34 9 4.46 5.47 1.42 2.25 1.28 1.5 1.28 1.5-3.75 4.58-5.4 2.25-4.93 9.53.13 2.55.88 2.17 3.64 2.85-5.67 0-7.57 0-13.43 0" fill="url(#B)"/><path d="m36.1 2.27c1.69-.45 2.56-.75 3.1-2.4 2.3-8.25 1.22-10.87-2.56-15.75.2-.3 1.48-.68 1.76-1.2 2.97 4.05 2.97 4.2 3.31-1.05.61.45 2.43.52 3.38 1.05.47 7.2.34 9 4.45 5.47 1.42 2.25 1.28 1.5 1.28 1.5-3.75 4.57-5.4 2.25-4.93 9.52.13 2.55.88 2.18 3.65 2.85-5.67 0-7.58 0-13.43 0" fill="url(#A)"/><path d="m76.6 11.17c1.69-.45 2.56-.75 3.11-2.4 2.3-8.25 1.22-10.88-2.56-15.75.2-.3 1.48-.67 1.75-1.2 2.97 4.05 2.97 4.2 3.31-1.05.61.45 2.43.53 3.38 1.05.47 7.2.34 9 4.45 5.47 1.42 2.25 1.28 1.5 1.28 1.5-3.75 4.58-5.4 2.25-4.93 9.53.14 2.55.88 2.18 3.64 2.85-5.67 0-7.58 0-13.43 0" fill="url(#9)"/><path d="m-20.1 37.4c1.69-.45 2.57-.75 3.11-2.4 2.29-8.25 1.21-10.88-2.57-15.75.2-.3 1.48-.68 1.75-1.2 2.97 4.05 2.97 4.2 3.31-1.05.61.45 2.43.52 3.38 1.05.47 7.2.34 9 4.46 5.47 1.42 2.25 1.28 1.5 1.28 1.5-3.75 4.57-5.4 2.25-4.93 9.52.13 2.55.88 2.17 3.65 2.85-5.67 0-7.58 0-13.43 0" fill="url(#5)"/><path d="m23.58 29.57c1.69-.45 2.57-.75 3.11-2.4 2.29-8.25 1.21-10.88-2.57-15.75.2-.3 1.48-.68 1.75-1.2 2.97 4.05 2.97 4.2 3.31-1.05.61.45 2.43.53 3.38 1.05.47 7.2.34 9 4.45 5.47 1.42 2.25 1.28 1.5 1.28 1.5-3.75 4.57-5.4 2.25-4.93 9.52.13 2.55.88 2.18 3.65 2.85-5.67 0-7.57 0-13.43 0" fill="url(#8)"/><path d="m56.6 43.5c1.69-.45 2.56-.75 3.1-2.4 2.3-8.25 1.22-10.88-2.56-15.75.2-.3 1.48-.68 1.76-1.2 2.97 4.05 2.97 4.2 3.31-1.05.61.45 2.43.52 3.38 1.05.47 7.2.34 9 4.45 5.47 1.42 2.25 1.28 1.5 1.28 1.5-3.75 4.58-5.4 2.25-4.93 9.52.14 2.55.88 2.17 3.64 2.85-5.67 0-7.58 0-13.43 0" fill="url(#0)"/><path d="m8.27 58.3c1.69-.45 2.56-.75 3.1-2.4 2.29-8.25 1.21-10.88-2.56-15.75.2-.3 1.48-.67 1.75-1.2 2.97 4.05 2.97 4.2 3.31-1.05.61.45 2.43.52 3.38 1.05.47 7.2.34 9 4.46 5.48 1.42 2.25 1.28 1.5 1.28 1.5-3.75 4.58-5.4 2.25-4.93 9.52.14 2.55.88 2.17 3.64 2.85-5.67 0-7.57 0-13.43 0" fill="url(#6)"/><path d="m-13.23 86.6c1.69-.45 2.56-.75 3.11-2.4 2.3-8.25 1.22-10.88-2.56-15.75.2-.3 1.48-.67 1.75-1.2 2.97 4.05 2.97 4.2 3.31-1.05.61.45 2.43.53 3.38 1.05.47 7.2.34 9 4.46 5.47 1.42 2.25 1.28 1.5 1.28 1.5-3.75 4.58-5.4 2.25-4.93 9.53.13 2.55.88 2.17 3.65 2.85-5.67 0-7.58 0-13.43 0" fill="url(#7)"/><path d="m15.17 101.6c1.69-.45 2.57-.75 3.11-2.4 2.3-8.25 1.21-10.88-2.56-15.75.2-.3 1.49-.67 1.76-1.2 2.97 4.05 2.97 4.2 3.31-1.05.61.45 2.43.53 3.38 1.05.47 7.2.34 9 4.45 5.47 1.42 2.25 1.28 1.5 1.28 1.5-3.75 4.58-5.4 2.25-4.93 9.53.14 2.55.88 2.17 3.64 2.85-5.67 0-7.57 0-13.43 0" fill="url(#4)"/><path d="m65.6 97.6c1.69-.45 2.56-.75 3.11-2.4 2.3-8.25 1.22-10.88-2.56-15.75.2-.3 1.48-.67 1.75-1.2 2.97 4.05 2.97 4.2 3.31-1.05.61.45 2.43.53 3.38 1.05.47 7.2.34 9 4.45 5.47 1.42 2.25 1.28 1.5 1.28 1.5-3.75 4.58-5.4 2.25-4.93 9.53.14 2.55.88 2.17 3.64 2.85-5.67 0-7.58 0-13.43 0" fill="url(#2)"/><path d="m84.6 65.6c1.69-.45 2.56-.75 3.11-2.4 2.3-8.25 1.22-10.88-2.56-15.75.2-.3 1.48-.67 1.75-1.2 2.97 4.05 2.97 4.2 3.31-1.05.61.45 2.43.52 3.38 1.05.47 7.2.34 9 4.45 5.48 1.42 2.25 1.28 1.5 1.28 1.5-3.75 4.58-5.4 2.25-4.93 9.52.14 2.55.88 2.18 3.64 2.85-5.67 0-7.58 0-13.43 0" fill="url(#1)"/><path d="m114.6 5.27c1.69-.45 2.56-.75 3.11-2.4 2.3-8.25 1.22-10.88-2.56-15.75.2-.3 1.48-.68 1.75-1.2 2.97 4.05 2.97 4.2 3.31-1.05.61.45 2.43.53 3.38 1.05.47 7.2.34 9 4.46 5.47 1.42 2.25 1.28 1.5 1.28 1.5-3.75 4.58-5.4 2.25-4.93 9.53.14 2.55.88 2.17 3.64 2.85-5.67 0-7.58 0-13.43 0" fill="url(#G)"/><path d="m99.6 37.4c1.69-.45 2.56-.75 3.11-2.4 2.3-8.25 1.22-10.88-2.56-15.75.2-.3 1.48-.68 1.75-1.2 2.97 4.05 2.97 4.2 3.31-1.05.61.45 2.43.52 3.38 1.05.47 7.2.34 9 4.45 5.47 1.42 2.25 1.28 1.5 1.28 1.5-3.75 4.57-5.4 2.25-4.93 9.52.14 2.55.88 2.17 3.64 2.85-5.67 0-7.58 0-13.43 0" fill="url(#I)"/><path d="m106.6 86.6c1.69-.45 2.56-.75 3.11-2.4 2.3-8.25 1.22-10.88-2.56-15.75.2-.3 1.48-.67 1.75-1.2 2.97 4.05 2.97 4.2 3.31-1.05.61.45 2.43.53 3.38 1.05.47 7.2.34 9 4.45 5.47 1.42 2.25 1.28 1.5 1.28 1.5-3.75 4.58-5.4 2.25-4.93 9.53.14 2.55.88 2.17 3.64 2.85-5.67 0-7.58 0-13.43 0" fill="url(#D)"/><path d="m-5.43 125.6c1.69-.45 2.56-.75 3.1-2.4 2.3-8.25 1.22-10.88-2.56-15.75.2-.3 1.49-.67 1.75-1.2 2.97 4.05 2.97 4.2 3.31-1.05.61.45 2.43.53 3.37 1.05.47 7.2.34 9 4.46 5.47 1.42 2.25 1.28 1.5 1.28 1.5-3.75 4.58-5.4 2.25-4.93 9.53.13 2.55.88 2.17 3.64 2.85-5.67 0-7.57 0-13.43 0" fill="url(#C)"/><path d="m36.1 122.6c1.69-.45 2.56-.75 3.1-2.4 2.3-8.25 1.22-10.88-2.56-15.75.2-.3 1.48-.67 1.76-1.2 2.97 4.05 2.97 4.2 3.31-1.05.61.45 2.43.53 3.38 1.05.47 7.2.34 9 4.45 5.47 1.42 2.25 1.28 1.5 1.28 1.5-3.75 4.58-5.4 2.25-4.93 9.53.13 2.55.88 2.17 3.65 2.85-5.67 0-7.58 0-13.43 0" fill="url(#J)"/><path d="m76.6 131.6c1.69-.45 2.56-.75 3.11-2.4 2.3-8.25 1.22-10.88-2.56-15.75.2-.3 1.48-.67 1.75-1.2 2.97 4.05 2.97 4.2 3.31-1.05.61.45 2.43.53 3.38 1.05.47 7.2.34 9 4.45 5.47 1.42 2.25 1.28 1.5 1.28 1.5-3.75 4.58-5.4 2.25-4.93 9.52.14 2.55.88 2.18 3.64 2.85-5.67 0-7.58 0-13.43 0" fill="url(#F)"/><path d="m114.6 125.6c1.69-.45 2.56-.75 3.11-2.4 2.3-8.25 1.22-10.88-2.56-15.75.2-.3 1.48-.67 1.75-1.2 2.97 4.05 2.97 4.2 3.31-1.05.61.45 2.43.53 3.38 1.05.47 7.2.34 9 4.46 5.47 1.42 2.25 1.28 1.5 1.28 1.5-3.75 4.58-5.4 2.25-4.93 9.53.14 2.55.88 2.17 3.64 2.85-5.67 0-7.58 0-13.43 0" fill="url(#H)"/></g></svg>