<svg xmlns="http://www.w3.org/2000/svg" width="60" height="60" viewBox="0 0 60 60"><g color-rendering="auto" color-interpolation-filters="linearRGB" shape-rendering="auto" fill-rule="evenodd" image-rendering="auto" color-interpolation="sRGB" color="#000000"><path mix-blend-mode="normal" isolation="auto" d="m0 0h60v60h-60" fill="#79c179" solid-opacity="1" fill-opacity=".06" solid-color="#000000"/><g fill="#4fdd07" fill-opacity=".2"><path d="m-1.989712 18.413737a6.331441 3.70961 0 0 0 -6.115702 -2.749492 6.331441 3.70961 0 0 0 -6.115702 2.749492" mix-blend-mode="normal" isolation="auto" opacity=".5" solid-opacity="1" solid-color="#000000"/><path d="m24.879399 16.13583a6.331441 3.70961 0 0 0 -6.115702 -2.749492 6.331441 3.70961 0 0 0 -6.115703 2.749492" mix-blend-mode="normal" isolation="auto" opacity=".5" solid-opacity="1" solid-color="#000000"/><path d="M16.883747 29.09009A6.331441 3.70961 0 0 0 10.768044 26.340597 6.331441 3.70961 0 0 0 4.652342 29.09009" mix-blend-mode="normal" isolation="auto" opacity=".5" solid-opacity="1" solid-color="#000000"/><path d="M40.37484 21.466344A6.331441 3.70961 0 0 0 34.25914 18.716852 6.331441 3.70961 0 0 0 28.14344 21.466344" mix-blend-mode="normal" isolation="auto" opacity=".5" solid-opacity="1" solid-color="#000000"/><path d="m35.407753 37.427011a6.331441 3.70961 0 0 0 -6.115702 -2.749493 6.331441 3.70961 0 0 0 -6.115703 2.749493" mix-blend-mode="normal" isolation="auto" opacity=".5" solid-opacity="1" solid-color="#000000"/><path d="M20.681631 46.543141A6.331441 3.70961 0 0 0 14.565928 43.793648 6.331441 3.70961 0 0 0 8.450226 46.543141" mix-blend-mode="normal" isolation="auto" opacity=".5" solid-opacity="1" solid-color="#000000"/><path d="m44.874549 49.873971a6.331441 3.70961 0 0 0 -6.115703 -2.749492 6.331441 3.70961 0 0 0 -6.115702 2.749492" mix-blend-mode="normal" isolation="auto" opacity=".5" solid-opacity="1" solid-color="#000000"/><path d="M54.16603 30.765061A6.331441 3.70961 0 0 0 48.05033 28.01557 6.331441 3.70961 0 0 0 41.934628 30.765061" mix-blend-mode="normal" isolation="auto" opacity=".5" solid-opacity="1" solid-color="#000000"/><path d="m1.046798 47.41963a6.331441 3.70961 0 0 0 -6.115702 -2.749492 6.331441 3.70961 0 0 0 -6.115703 2.749492" mix-blend-mode="normal" isolation="auto" opacity=".5" solid-opacity="1" solid-color="#000000"/><path d="M50.835124 6.05324A6.331441 3.70961 0 0 0 44.719421 3.30375 6.331441 3.70961 0 0 0 38.603719 6.05324" mix-blend-mode="normal" isolation="auto" opacity=".5" solid-opacity="1" solid-color="#000000"/><path d="M10.901591 3.201081A6.331441 3.70961 0 0 0 4.785889 .451589 6.331441 3.70961 0 0 0 -1.329814 3.201081" mix-blend-mode="normal" isolation="auto" opacity=".5" solid-opacity="1" solid-color="#000000"/><path d="M32.25215.09261A6.331441 3.70961 0 0 0 26.13645 -2.656883 6.331441 3.70961 0 0 0 20.02075 .09261" mix-blend-mode="normal" isolation="auto" opacity=".5" solid-opacity="1" solid-color="#000000"/><path d="m58.01028 18.413737a6.331441 3.70961 0 0 0 -6.115702 -2.749492 6.331441 3.70961 0 0 0 -6.115703 2.749492" mix-blend-mode="normal" isolation="auto" opacity=".5" solid-opacity="1" solid-color="#000000"/><path d="M61.0468 47.41963A6.331441 3.70961 0 0 0 54.9311 44.670133 6.331441 3.70961 0 0 0 48.815398 47.41963" mix-blend-mode="normal" isolation="auto" opacity=".5" solid-opacity="1" solid-color="#000000"/><path d="M70.901591 3.201081A6.331441 3.70961 0 0 0 64.785889 .451589 6.331441 3.70961 0 0 0 58.670186 3.201081" mix-blend-mode="normal" isolation="auto" opacity=".5" solid-opacity="1" solid-color="#000000"/><path d="m50.835124 66.05324a6.331441 3.70961 0 0 0 -6.115703 -2.749493 6.331441 3.70961 0 0 0 -6.115702 2.749493" mix-blend-mode="normal" isolation="auto" opacity=".5" solid-opacity="1" solid-color="#000000"/><path d="M10.901591 63.20108A6.331441 3.70961 0 0 0 4.785889 60.45159 6.331441 3.70961 0 0 0 -1.329814 63.20108" mix-blend-mode="normal" isolation="auto" opacity=".5" solid-opacity="1" solid-color="#000000"/><path d="M32.25215 60.09261A6.331441 3.70961 0 0 0 26.13645 57.34312 6.331441 3.70961 0 0 0 20.02075 60.09261" mix-blend-mode="normal" isolation="auto" opacity=".5" solid-opacity="1" solid-color="#000000"/><path d="m70.901591 63.20108a6.331441 3.70961 0 0 0 -6.115702 -2.749492 6.331441 3.70961 0 0 0 -6.115703 2.749493" mix-blend-mode="normal" isolation="auto" opacity=".5" solid-opacity="1" solid-color="#000000"/></g></g></svg>