<svg xmlns="http://www.w3.org/2000/svg" width="67" height="67" viewBox="0 0 67 67"><g color-rendering="auto" color-interpolation-filters="linearRGB" shape-rendering="auto" fill-rule="evenodd" image-rendering="auto" color-interpolation="sRGB" color="#000000"><path d="m0 0h67v67h-67" isolation="auto" mix-blend-mode="normal" fill="#78c178" solid-opacity="1" fill-opacity=".06" solid-color="#000000"/><g fill="#4fdd07" fill-opacity=".26" transform="scale(1-1)"><path d="m-3.378223-21.588355a6.44869 6.477098 0 0 1 -6.228956 4.800702 6.44869 6.477098 0 0 1 -6.228956 -4.800702" mix-blend-mode="normal" solid-color="#000000" opacity=".48" isolation="auto" solid-opacity="1"/><path d="m10.945447-71.68541a6.44869 6.477098 0 0 1 -6.228956 4.800702 6.44869 6.477098 0 0 1 -6.228956 -4.800702" mix-blend-mode="normal" solid-color="#000000" opacity=".48" isolation="auto" solid-opacity="1"/><path d="m26.476345-19.05735a6.44869 6.477098 0 0 1 -6.228956 4.800701 6.44869 6.477098 0 0 1 -6.228956 -4.800701" mix-blend-mode="normal" solid-color="#000000" opacity=".48" isolation="auto" solid-opacity="1"/><path d="m17.592287-33.450965a6.44869 6.477098 0 0 1 -6.228956 4.800702 6.44869 6.477098 0 0 1 -6.228956 -4.800702" mix-blend-mode="normal" solid-color="#000000" opacity=".48" isolation="auto" solid-opacity="1"/><path d="m43.69351-24.98014a6.44869 6.477098 0 0 1 -6.228956 4.800702 6.44869 6.477098 0 0 1 -6.228956 -4.800702" mix-blend-mode="normal" solid-color="#000000" opacity=".48" isolation="auto" solid-opacity="1"/><path d="m38.17452-42.71421a6.44869 6.477098 0 0 1 -6.228957 4.800702 6.44869 6.477098 0 0 1 -6.228956 -4.800702" mix-blend-mode="normal" solid-color="#000000" opacity=".48" isolation="auto" solid-opacity="1"/><path d="M21.812157-52.843238A6.44869 6.477098 0 0 1 15.5832 -48.04254 6.44869 6.477098 0 0 1 9.354244 -52.843238" mix-blend-mode="normal" solid-color="#000000" opacity=".48" isolation="auto" solid-opacity="1"/><path d="m48.693178-56.54417a6.44869 6.477098 0 0 1 -6.228956 4.800702 6.44869 6.477098 0 0 1 -6.228956 -4.800702" mix-blend-mode="normal" solid-color="#000000" opacity=".48" isolation="auto" solid-opacity="1"/><path d="m59.01705-35.31205a6.44869 6.477098 0 0 1 -6.228957 4.800702 6.44869 6.477098 0 0 1 -6.228956 -4.800702" mix-blend-mode="normal" solid-color="#000000" opacity=".48" isolation="auto" solid-opacity="1"/><path d="m55.31604-74.854472a6.44869 6.477098 0 0 1 -6.228956 4.800701 6.44869 6.477098 0 0 1 -6.228956 -4.800701" mix-blend-mode="normal" solid-color="#000000" opacity=".48" isolation="auto" solid-opacity="1"/><path d="m-.004323-53.817115a6.44869 6.477098 0 0 1 -6.228956 4.800702 6.44869 6.477098 0 0 1 -6.228956 -4.800702" mix-blend-mode="normal" solid-color="#000000" opacity=".48" isolation="auto" solid-opacity="1"/><path d="m34.668297-68.23155a6.44869 6.477098 0 0 1 -6.228957 4.800701 6.44869 6.477098 0 0 1 -6.228956 -4.800702" mix-blend-mode="normal" solid-color="#000000" opacity=".48" isolation="auto" solid-opacity="1"/><path d="m63.62178-21.588355a6.44869 6.477098 0 0 1 -6.228956 4.800702 6.44869 6.477098 0 0 1 -6.228956 -4.800702" mix-blend-mode="normal" solid-color="#000000" opacity=".48" isolation="auto" solid-opacity="1"/><path d="m55.31604-7.854468a6.44869 6.477098 0 0 1 -6.228956 4.800702 6.44869 6.477098 0 0 1 -6.228956 -4.800702" mix-blend-mode="normal" solid-color="#000000" opacity=".48" isolation="auto" solid-opacity="1"/><path d="M10.945447-4.685402A6.44869 6.477098 0 0 1 4.716491 .1153 6.44869 6.477098 0 0 1 -1.512466 -4.685402" mix-blend-mode="normal" solid-color="#000000" opacity=".48" isolation="auto" solid-opacity="1"/><path d="M34.668297-1.231544A6.44869 6.477098 0 0 1 28.43934 3.569158 6.44869 6.477098 0 0 1 22.21038 -1.231544" mix-blend-mode="normal" solid-color="#000000" opacity=".48" isolation="auto" solid-opacity="1"/><path d="m66.99568-53.817115a6.44869 6.477098 0 0 1 -6.228956 4.800702 6.44869 6.477098 0 0 1 -6.228957 -4.800702" mix-blend-mode="normal" solid-color="#000000" opacity=".48" isolation="auto" solid-opacity="1"/><path d="m77.945448-71.68541a6.44869 6.477098 0 0 1 -6.228956 4.800702 6.44869 6.477098 0 0 1 -6.228957 -4.800702" mix-blend-mode="normal" solid-color="#000000" opacity=".48" isolation="auto" solid-opacity="1"/><path d="M77.945448-4.685402A6.44869 6.477098 0 0 1 71.71649 .1153 6.44869 6.477098 0 0 1 65.48753 -4.685402" mix-blend-mode="normal" solid-color="#000000" opacity=".48" isolation="auto" solid-opacity="1"/></g></g></svg>