<svg xmlns="http://www.w3.org/2000/svg" xmlns:xlink="http://www.w3.org/1999/xlink" width="192" height="192" viewBox="0 0 192 192"><defs><linearGradient xlink:href="#3" id="K" x1="157" y1="126" x2="149" y2="119" gradientUnits="userSpaceOnUse"/><linearGradient xlink:href="#3" id="E" x1="125" y1="190" x2="117" y2="183" gradientUnits="userSpaceOnUse"/><linearGradient xlink:href="#3" id="C" x1="-4.9" y1="179" x2="-12.3" y2="171" gradientUnits="userSpaceOnUse"/><linearGradient xlink:href="#3" id="D" x1="189" y1="-14.4" x2="181" y2="-21.6" gradientUnits="userSpaceOnUse"/><linearGradient xlink:href="#3" id="F" x1="145" y1="36.8" x2="138" y2="28.7" gradientUnits="userSpaceOnUse"/><linearGradient xlink:href="#3" id="G" x1="188" y1="179" x2="181" y2="171" gradientUnits="userSpaceOnUse"/><linearGradient xlink:href="#3" id="J" x1="115" y1="147" x2="102" y2="140" gradientUnits="userSpaceOnUse"/><linearGradient xlink:href="#3" id="H" x1="61" y1="170" x2="53.7" y2="162" gradientUnits="userSpaceOnUse"/><linearGradient xlink:href="#3" id="I" x1="-4.5" y1="-14.4" x2="-12.3" y2="-21.6" gradientUnits="userSpaceOnUse"/><linearGradient xlink:href="#3" id="B" x1="23.9" y1="138" x2="16.5" y2="131" gradientUnits="userSpaceOnUse"/><linearGradient xlink:href="#3" id="A" x1="125" y1="-5.7" x2="117" y2="-12.9" gradientUnits="userSpaceOnUse"/><linearGradient id="3"><stop stop-color="#323b10"/><stop offset="1" stop-opacity="0"/></linearGradient><linearGradient xlink:href="#3" id="1" x1="204" y1="68.8" x2="197" y2="62" gradientUnits="userSpaceOnUse"/><linearGradient xlink:href="#3" id="2" x1="87" y1="46" x2="80" y2="39" gradientUnits="userSpaceOnUse"/><linearGradient xlink:href="#3" id="4" x1="38" y1="209" x2="30.9" y2="202" gradientUnits="userSpaceOnUse"/><linearGradient xlink:href="#3" id="9" x1="78" y1="98" x2="65" y2="90" gradientUnits="userSpaceOnUse"/><linearGradient xlink:href="#3" id="5" x1="38" y1="16.7" x2="30.9" y2="10.4" gradientUnits="userSpaceOnUse"/><linearGradient xlink:href="#3" id="8" x1="133" y1="75" x2="126" y2="68" gradientUnits="userSpaceOnUse"/><linearGradient xlink:href="#3" id="6" x1="216" y1="138" x2="208" y2="131" gradientUnits="userSpaceOnUse"/><linearGradient xlink:href="#3" id="7" x1="12.3" y1="68.8" x2="4.9" y2="62" gradientUnits="userSpaceOnUse"/></defs><g fill-rule="evenodd"><rect width="192" height="192" mix-blend-mode="normal" solid-color="#000000" color-interpolation-filters="linearRGB" fill-opacity=".03" color="#000000" image-rendering="auto" color-rendering="auto" isolation="auto" color-interpolation="sRGB" solid-opacity="1" fill="#60b660" shape-rendering="auto"/><path d="m118-4.8c2.7-1.3 5.7-2.4 6.9-7.4h11.2c1.4 5.7 4.3 6.6 6.1 7.4z" fill="url(#A)" stroke="#604713" stroke-linecap="round" stroke-width=".6"/></g><path d="m31 17.6c2.7-1.4 5.7-2.4 6.9-7.4h11.2c1.4 5.7 4.3 6.6 6.1 7.4z" fill="url(#5)" fill-rule="evenodd" stroke="#604713" stroke-linecap="round" stroke-width=".6" id="0"/><g fill-rule="evenodd" stroke="#604713" stroke-linecap="round" stroke-width=".6"><path d="m81 46c2.7-1.4 5.7-2.4 6.9-7.4h11.2c1.4 5.7 4.3 6.6 6.1 7.4z" fill="url(#2)"/><path d="m5.3 68.8c2.7-1.3 5.7-2.4 6.9-7.4h11.2c1.4 5.7 4.3 6.6 6.1 7.4z" fill="url(#7)"/><path d="m65.8 98c2.7-1.3 5.7-2.4 6.9-7.4h11.2c1.4 5.7 4.3 6.6 6.1 7.4z" fill="url(#9)"/><path d="m126 75c2.7-1.3 5.7-2.4 6.9-7.4h11.2c1.4 5.7 4.3 6.6 6.1 7.4z" fill="url(#8)"/><path d="m16.8 139c2.7-1.3 5.7-2.4 6.9-7.4h11.2c1.4 5.7 4.3 6.6 6.1 7.4z" fill="url(#B)"/><path d="m103 147c2.7-1.3 5.7-2.4 6.9-7.4h11.2c1.4 5.7 4.3 6.6 6.1 7.4z" fill="url(#J)"/><path d="m-11.8 179c2.7-1.3 5.7-2.4 6.9-7.4h11.2c1.4 5.7 4.3 6.6 6.1 7.4z" fill="url(#C)"/><path d="m53.8 170c2.7-1.3 5.7-2.4 6.9-7.4h11.2c1.4 5.7 4.3 6.6 6.1 7.4z" fill="url(#H)"/><path d="m118 190c2.7-1.3 5.7-2.4 6.9-7.4h11.2c1.4 5.7 4.3 6.6 6.1 7.4z" fill="url(#E)"/><path d="m-11.8-14.4c2.7-1.3 5.7-2.4 6.9-7.4h11.2c1.4 5.7 4.3 6.6 6.1 7.4z" fill="url(#I)"/><path d="m182-14.4c2.7-1.3 5.7-2.4 6.9-7.4h11.2c1.4 5.7 4.3 6.6 6.1 7.4z" fill="url(#D)"/><path d="m182 179c2.7-1.3 5.7-2.4 6.9-7.4h11.2c1.4 5.7 4.3 6.6 6.1 7.4z" fill="url(#G)"/><path d="m139 36.8c2.7-1.4 5.7-2.4 6.9-7.4h11.2c1.4 5.7 4.3 6.6 6.1 7.4z" fill="url(#F)"/><path d="m150 126c2.7-1.3 5.7-2.4 6.9-7.4h11.2c1.4 5.7 4.3 6.6 6.1 7.4z" fill="url(#K)"/><path d="m197 68.8c2.7-1.3 5.7-2.4 6.9-7.4h11.2c1.4 5.7 4.3 6.6 6.1 7.4z" fill="url(#1)"/><path d="m209 139c2.7-1.3 5.7-2.4 6.9-7.4h11.2c1.4 5.7 4.3 6.6 6.1 7.4z" fill="url(#6)"/></g><use xlink:href="#0"/><path d="m31 210c2.7-1.3 5.7-2.4 6.9-7.4h11.2c1.4 5.7 4.3 6.6 6.1 7.4z" fill="url(#4)" fill-rule="evenodd" stroke="#604713" stroke-linecap="round" stroke-width=".6"/></svg>