<svg xmlns="http://www.w3.org/2000/svg" xmlns:xlink="http://www.w3.org/1999/xlink" width="120" height="120" viewBox="0 0 120 120"><defs><linearGradient xlink:href="#4" id="J" x1="42.5" y1="-1.4" x2="35" y2="-9.5" gradientUnits="userSpaceOnUse"/><linearGradient xlink:href="#4" id="D" x1="83" y1="132" x2="74" y2="124" gradientUnits="userSpaceOnUse"/><linearGradient xlink:href="#4" id="B" x1="1.3" y1="125" x2="-6.1" y2="116" gradientUnits="userSpaceOnUse"/><linearGradient xlink:href="#4" id="C" x1="103" y1="92" x2="94" y2="84" gradientUnits="userSpaceOnUse"/><linearGradient xlink:href="#4" id="E" x1="95" y1="35.6" x2="87" y2="27.5" gradientUnits="userSpaceOnUse"/><linearGradient xlink:href="#4" id="F" x1="123" y1="3.6" x2="114" y2="-3.6" gradientUnits="userSpaceOnUse"/><linearGradient xlink:href="#4" id="I" x1="122" y1="125" x2="114" y2="116" gradientUnits="userSpaceOnUse"/><linearGradient xlink:href="#4" id="G" x1="42.5" y1="119" x2="35" y2="111" gradientUnits="userSpaceOnUse"/><linearGradient xlink:href="#4" id="H" x1="1.6" y1="3.6" x2="-6.1" y2="-3.6" gradientUnits="userSpaceOnUse"/><linearGradient xlink:href="#4" id="A" x1="78" y1="105" x2="65" y2="97" gradientUnits="userSpaceOnUse"/><linearGradient xlink:href="#4" id="9" x1="19.4" y1="99" x2="11.9" y2="91" gradientUnits="userSpaceOnUse"/><linearGradient xlink:href="#4" id="2" x1="83" y1="8.7" x2="74" y2="1.5" gradientUnits="userSpaceOnUse"/><linearGradient xlink:href="#4" id="0" x1="12" y1="56" x2="4.7" y2="48" gradientUnits="userSpaceOnUse"/><linearGradient xlink:href="#4" id="1" x1="-25.4" y1="34.7" x2="-32.6" y2="27.5" gradientUnits="userSpaceOnUse"/><linearGradient xlink:href="#4" id="3" x1="54.7" y1="74" x2="42" y2="66" gradientUnits="userSpaceOnUse"/><linearGradient xlink:href="#4" id="8" x1="59" y1="41.6" x2="51" y2="34.4" gradientUnits="userSpaceOnUse"/><linearGradient id="4"><stop stop-color="#323b10"/><stop offset="1" stop-opacity="0"/></linearGradient><linearGradient xlink:href="#4" id="7" x1="28" y1="22.7" x2="20.9" y2="16.4" gradientUnits="userSpaceOnUse"/><linearGradient xlink:href="#4" id="5" x1="88" y1="60" x2="80" y2="52" gradientUnits="userSpaceOnUse"/><linearGradient xlink:href="#4" id="6" x1="-18.7" y1="92" x2="-25.9" y2="84" gradientUnits="userSpaceOnUse"/></defs><g fill-rule="evenodd"><rect width="120" height="120" mix-blend-mode="normal" solid-color="#000000" color-interpolation-filters="linearRGB" fill-opacity=".03" color="#000000" image-rendering="auto" color-rendering="auto" isolation="auto" color-interpolation="sRGB" solid-opacity="1" fill="#60b660" shape-rendering="auto"/><g stroke="#604713" stroke-linecap="round" stroke-width=".6"><path d="m-32.5 35.6c2.7-1.4 5.7-2.4 6.9-7.4h11.2c1.4 5.7 4.3 6.6 6.1 7.4z" fill="url(#1)"/><path d="m75 9.6c2.7-1.3 5.7-2.4 6.9-7.4h11.2c1.4 5.7 4.3 6.6 6.1 7.4z" fill="url(#2)"/><path d="m21.2 23.6c2.7-1.4 5.7-2.4 6.9-7.4h11.2c1.4 5.7 4.3 6.6 6.1 7.4z" fill="url(#7)"/><path d="m52 41.6c2.7-1.4 5.7-2.4 6.9-7.4h11.2c1.4 5.7 4.3 6.6 6.1 7.4z" fill="url(#8)"/><path d="m5 56c2.7-1.4 5.7-2.4 6.9-7.4h11.2c1.4 5.7 4.3 6.6 6.1 7.4z" fill="url(#0)"/><path d="m42.8 74c2.7-1.3 5.7-2.4 6.9-7.4h11.2c1.4 5.7 4.3 6.6 6.1 7.4z" fill="url(#3)"/><path d="m80 60c2.7-1.4 5.7-2.4 6.9-7.4h11.2c1.4 5.7 4.3 6.6 6.1 7.4z" fill="url(#5)"/><path d="m-25.6 92c2.7-1.3 5.7-2.4 6.9-7.4h11.2c1.4 5.7 4.3 6.6 6.1 7.4z" fill="url(#6)"/><path d="m12.2 100c2.7-1.3 5.7-2.4 6.9-7.4h11.2c1.4 5.7 4.3 6.6 6.1 7.4z" fill="url(#9)"/><path d="m66 105c2.7-1.3 5.7-2.4 6.9-7.4h11.2c1.4 5.7 4.3 6.6 6.1 7.4z" fill="url(#A)"/><path d="m-5.7 125c2.7-1.3 5.7-2.4 6.9-7.4h11.2c1.4 5.7 4.3 6.6 6.1 7.4z" fill="url(#B)"/><path d="m35 119c2.7-1.3 5.7-2.4 6.9-7.4h11.2c1.4 5.7 4.3 6.6 6.1 7.4z" fill="url(#G)"/><path d="m75 132c2.7-1.3 5.7-2.4 6.9-7.4h11.2c1.4 5.7 4.3 6.6 6.1 7.4z" fill="url(#D)"/><path d="m-5.7 3.6c2.7-1.4 5.7-2.4 6.9-7.4h11.2c1.4 5.7 4.3 6.6 6.1 7.4z" fill="url(#H)"/><path d="m35-1.4c2.7-1.3 5.7-2.4 6.9-7.4h11.2c1.4 5.7 4.3 6.6 6.1 7.4z" fill="url(#J)"/><path d="m115 3.6c2.7-1.4 5.7-2.4 6.9-7.4h11.2c1.4 5.7 4.3 6.6 6.1 7.4z" fill="url(#F)"/><path d="m115 125c2.7-1.3 5.7-2.4 6.9-7.4h11.2c1.4 5.7 4.3 6.6 6.1 7.4z" fill="url(#I)"/><path d="m88 35.6c2.7-1.4 5.7-2.4 6.9-7.4h11.2c1.4 5.7 4.3 6.6 6.1 7.4z" fill="url(#E)"/><path d="m95 92c2.7-1.3 5.7-2.4 6.9-7.4h11.2c1.4 5.7 4.3 6.6 6.1 7.4z" fill="url(#C)"/></g></g></svg>