<svg xmlns="http://www.w3.org/2000/svg" width="67" height="67" viewBox="0 0 67 67"><g color-rendering="auto" color-interpolation-filters="linearRGB" shape-rendering="auto" fill-rule="evenodd" image-rendering="auto" color-interpolation="sRGB" color="#000000"><path mix-blend-mode="normal" isolation="auto" d="m0 0h67v67h-67" fill="#60b660" solid-opacity="1" fill-opacity=".1" solid-color="#000000"/><g fill="#40b306" fill-opacity=".2"><path isolation="auto" mix-blend-mode="normal" d="m9.820356 56.30226a5.88 5.88 0 0 1 2.307015 -6.338475 5.88 5.88 0 0 1 6.745258 0 5.88 5.88 0 0 1 2.307015 6.338475" solid-opacity="1" solid-color="#000000"/><path isolation="auto" mix-blend-mode="normal" d="m37.15369 59.63536a5.88 5.88 0 0 1 2.307015 -6.338475 5.88 5.88 0 0 1 6.745258 0 5.88 5.88 0 0 1 2.307015 6.338475" solid-opacity="1" solid-color="#000000"/><path isolation="auto" mix-blend-mode="normal" d="m5.820357 36.968756a5.88 5.88 0 0 1 2.307014 -6.338475 5.88 5.88 0 0 1 6.745259 0 5.88 5.88 0 0 1 2.307015 6.338475" solid-opacity="1" solid-color="#000000"/><path isolation="auto" mix-blend-mode="normal" d="m26.487024 46.30206a5.88 5.88 0 0 1 2.307014 -6.338475 5.88 5.88 0 0 1 6.745259 0 5.88 5.88 0 0 1 2.307015 6.338475" solid-opacity="1" solid-color="#000000"/><path isolation="auto" mix-blend-mode="normal" d="m31.820356 28.30226a5.88 5.88 0 0 1 2.307015 -6.338475 5.88 5.88 0 0 1 6.745258 0 5.88 5.88 0 0 1 2.307015 6.338475" solid-opacity="1" solid-color="#000000"/><path isolation="auto" mix-blend-mode="normal" d="m47.15369 38.968756a5.88 5.88 0 0 1 2.307014 -6.338475 5.88 5.88 0 0 1 6.745259 0 5.88 5.88 0 0 1 2.307015 6.338475" solid-opacity="1" solid-color="#000000"/><path isolation="auto" mix-blend-mode="normal" d="m14.487024 22.302257a5.88 5.88 0 0 1 2.307015 -6.338475 5.88 5.88 0 0 1 6.745258 0 5.88 5.88 0 0 1 2.307015 6.338475" solid-opacity="1" solid-color="#000000"/><path isolation="auto" mix-blend-mode="normal" d="m-15.417739 24.968756a5.88 5.88 0 0 1 2.307014 -6.338475 5.88 5.88 0 0 1 6.745259 0 5.88 5.88 0 0 1 2.307015 6.338475" solid-opacity="1" solid-color="#000000"/><path isolation="auto" mix-blend-mode="normal" d="m51.24892 24.968756a5.88 5.88 0 0 1 2.307014 -6.338475 5.88 5.88 0 0 1 6.745259 0 5.88 5.88 0 0 1 2.307015 6.338475" solid-opacity="1" solid-color="#000000"/><path isolation="auto" mix-blend-mode="normal" d="m43.820356 11.634797a5.88 5.88 0 0 1 2.307015 -6.338476 5.88 5.88 0 0 1 6.745258 0 5.88 5.88 0 0 1 2.307015 6.338476" solid-opacity="1" solid-color="#000000"/><path isolation="auto" mix-blend-mode="normal" d="m43.820356 78.30206a5.88 5.88 0 0 1 2.307015 -6.338475 5.88 5.88 0 0 1 6.745258 0 5.88 5.88 0 0 1 2.307015 6.338475" solid-opacity="1" solid-color="#000000"/><path isolation="auto" mix-blend-mode="normal" d="m-.846308 74.968856a5.88 5.88 0 0 1 2.307014 -6.338475 5.88 5.88 0 0 1 6.745259 0 5.88 5.88 0 0 1 2.307014 6.338475" solid-opacity="1" solid-color="#000000"/><path isolation="auto" mix-blend-mode="normal" d="m-.846311 8.302217a5.88 5.88 0 0 1 2.307014 -6.338475 5.88 5.88 0 0 1 6.745259 0 5.88 5.88 0 0 1 2.307015 6.338468" solid-opacity="1" solid-color="#000000"/><path isolation="auto" mix-blend-mode="normal" d="m54.48702 56.966157a5.88 5.88 0 0 1 2.307015 -6.338475 5.88 5.88 0 0 1 6.745258 0 5.88 5.88 0 0 1 2.307015 6.338475" solid-opacity="1" solid-color="#000000"/><path isolation="auto" mix-blend-mode="normal" d="m-12.179645 56.968757a5.88 5.88 0 0 1 2.307014 -6.338475 5.88 5.88 0 0 1 6.745259 0 5.88 5.88 0 0 1 2.307015 6.338475" solid-opacity="1" solid-color="#000000"/><path isolation="auto" mix-blend-mode="normal" d="m22.487024 71.63546a5.88 5.88 0 0 1 2.307014 -6.338475 5.88 5.88 0 0 1 6.745259 0 5.88 5.88 0 0 1 2.307015 6.338475" solid-opacity="1" solid-color="#000000"/><path isolation="auto" mix-blend-mode="normal" d="m22.487024 4.968838a5.88 5.88 0 0 1 2.307014 -6.338468 5.88 5.88 0 0 1 6.745259 0 5.88 5.88 0 0 1 2.307015 6.338468" solid-opacity="1" solid-color="#000000"/><path isolation="auto" mix-blend-mode="normal" d="m65.820356 74.967356a5.88 5.88 0 0 1 2.307014 -6.338475 5.88 5.88 0 0 1 6.745259 0 5.88 5.88 0 0 1 2.307015 6.338475" solid-opacity="1" solid-color="#000000"/><path isolation="auto" mix-blend-mode="normal" d="m65.820355 8.302217a5.88 5.88 0 0 1 2.307015 -6.338475 5.88 5.88 0 0 1 6.745259 0 5.88 5.88 0 0 1 2.307015 6.338468" solid-opacity="1" solid-color="#000000"/></g></g></svg>