<svg xmlns="http://www.w3.org/2000/svg" xmlns:xlink="http://www.w3.org/1999/xlink" width="120" height="120" viewBox="0 0 120 120"><defs><linearGradient gradientTransform="matrix(.9 0 0 .68 13.47-658.6)" xlink:href="#C" id="J" x1="59.2" y1="1028" x2="45.66" y2="1012" gradientUnits="userSpaceOnUse"/><linearGradient gradientTransform="matrix(.9 0 0 .68-28.69-643.3)" xlink:href="#C" id="D" x1="59.2" y1="1028" x2="45.66" y2="1012" gradientUnits="userSpaceOnUse"/><linearGradient gradientTransform="matrix(.9 0 0 .68-60.3-665.1)" xlink:href="#C" id="B" x1="59.2" y1="1028" x2="45.66" y2="1012" gradientUnits="userSpaceOnUse"/><linearGradient id="C"><stop stop-color="#323b10"/><stop offset="1" stop-opacity="0"/></linearGradient><linearGradient gradientTransform="matrix(.9 0 0 .68-45.51-696.2)" xlink:href="#C" id="E" x1="59.2" y1="1028" x2="45.66" y2="1012" gradientUnits="userSpaceOnUse"/><linearGradient gradientTransform="matrix(.9 0 0 .68-64.3-608.6)" xlink:href="#C" id="F" x1="59.2" y1="1028" x2="45.66" y2="1012" gradientUnits="userSpaceOnUse"/><linearGradient gradientTransform="matrix(.9 0 0 .68-1.59-700.5)" xlink:href="#C" id="I" x1="59.2" y1="1028" x2="45.66" y2="1012" gradientUnits="userSpaceOnUse"/><linearGradient gradientTransform="matrix(.9 0 0 .68-17.39-676.2)" xlink:href="#C" id="G" x1="59.2" y1="1028" x2="45.66" y2="1012" gradientUnits="userSpaceOnUse"/><linearGradient gradientTransform="matrix(.9 0 0 .68 36.55-690.5)" xlink:href="#C" id="H" x1="59.2" y1="1028" x2="45.66" y2="1012" gradientUnits="userSpaceOnUse"/><linearGradient gradientTransform="matrix(.9 0 0 .68-26.2-599.7)" xlink:href="#C" id="A" x1="59.2" y1="1028" x2="45.66" y2="1012" gradientUnits="userSpaceOnUse"/><linearGradient gradientTransform="matrix(.9 0 0 .68 4.51-625.3)" xlink:href="#C" id="9" x1="59.2" y1="1028" x2="45.66" y2="1012" gradientUnits="userSpaceOnUse"/><linearGradient gradientTransform="matrix(.9 0 0 .68 41.81-639.8)" xlink:href="#C" id="2" x1="59.2" y1="1028" x2="45.66" y2="1012" gradientUnits="userSpaceOnUse"/><linearGradient xlink:href="#C" id="0" gradientUnits="userSpaceOnUse" gradientTransform="matrix(.9 0 0 .68 55.66-608.6)" x1="59.2" y1="1028" x2="45.66" y2="1012"/><linearGradient xlink:href="#C" id="1" gradientUnits="userSpaceOnUse" gradientTransform="matrix(.9 0 0 .68 74.5-696.2)" x1="59.2" y1="1028" x2="45.66" y2="1012"/><linearGradient gradientTransform="matrix(.9 0 0 .68 28.53-593.3)" xlink:href="#C" id="3" x1="59.2" y1="1028" x2="45.66" y2="1012" gradientUnits="userSpaceOnUse"/><linearGradient xlink:href="#C" id="8" gradientUnits="userSpaceOnUse" gradientTransform="matrix(.9 0 0 .68 74.5-576.2)" x1="59.2" y1="1028" x2="45.66" y2="1012"/><linearGradient xlink:href="#C" id="4" gradientUnits="userSpaceOnUse" gradientTransform="matrix(.9 0 0 .68-45.51-576.2)" x1="59.2" y1="1028" x2="45.66" y2="1012"/><linearGradient xlink:href="#C" id="7" gradientUnits="userSpaceOnUse" gradientTransform="matrix(.9 0 0 .68 36.55-570.5)" x1="59.2" y1="1028" x2="45.66" y2="1012"/><linearGradient xlink:href="#C" id="5" gradientUnits="userSpaceOnUse" gradientTransform="matrix(.9 0 0 .68-1.59-580.5)" x1="59.2" y1="1028" x2="45.66" y2="1012"/><linearGradient xlink:href="#C" id="6" gradientUnits="userSpaceOnUse" gradientTransform="matrix(.9 0 0 .68 59.67-665.1)" x1="59.2" y1="1028" x2="45.66" y2="1012"/></defs><rect width="120" height="120" mix-blend-mode="normal" solid-color="#000000" color-interpolation-filters="linearRGB" fill-opacity=".03" color="#000000" image-rendering="auto" color-rendering="auto" fill-rule="evenodd" isolation="auto" color-interpolation="sRGB" solid-opacity="1" fill="#89a02c" shape-rendering="auto"/><g stroke="#605d13" stroke-width=".45"><path d="m13.61 46.51c7.6 2.5 11.51-2.93 15.34-6.91 0 0-.07 1.05.23 1.58.45.75 2.1 2.25 2.1 2.25-2.63 2.33-5.55 5.4-6.6 7.2-1.35 2.33 3 3.88 5.81 4.45h-17.8c0 0 5.84-1.17 6.35-1.68.95-.94.57-1.48-3.23-1.64.74-2.54.73-2.43-3.35-5z" fill="url(#D)"/><path d="m-18.1 24.71c7.6 2.5 11.51-2.93 15.34-6.91 0 0-.08 1.05.23 1.57.45.75 2.1 2.25 2.1 2.25-2.63 2.32-5.55 5.4-6.6 7.2-1.35 2.32 3 3.88 5.81 4.45h-17.81c0 0 5.84-1.17 6.35-1.68.95-.94.57-1.48-3.23-1.64.74-2.54.73-2.43-3.35-5z" fill="url(#B)"/><path d="m-3.24-6.41c7.6 2.5 11.51-2.93 15.34-6.91 0 0-.07 1.05.22 1.57.45.75 2.1 2.25 2.1 2.25-2.63 2.33-5.55 5.4-6.6 7.2-1.35 2.33 3 3.88 5.81 4.45h-17.8c0 0 5.83-1.17 6.35-1.68.94-.94.57-1.49-3.23-1.64.74-2.54.73-2.43-3.34-5z" fill="url(#E)"/><path d="m24.91 13.66c7.6 2.5 11.51-2.93 15.34-6.91 0 0-.08 1.05.23 1.58.45.75 2.1 2.25 2.1 2.25-2.63 2.32-5.55 5.4-6.6 7.2-1.35 2.32 3 3.88 5.81 4.45h-17.8c0 0 5.84-1.17 6.35-1.68.95-.94.57-1.48-3.23-1.64.74-2.54.73-2.43-3.34-5z" fill="url(#G)"/><path d="m40.68-10.68c7.6 2.5 11.51-2.93 15.34-6.91 0 0-.08 1.05.23 1.57.45.75 2.1 2.25 2.1 2.25-2.63 2.32-5.55 5.4-6.6 7.2-1.35 2.33 3 3.88 5.81 4.45h-17.8c0 0 5.84-1.17 6.35-1.68.95-.94.57-1.49-3.23-1.64.74-2.54.73-2.43-3.34-5z" fill="url(#I)"/><path d="m55.71 31.2c7.6 2.5 11.51-2.93 15.34-6.91 0 0-.08 1.05.22 1.57.45.75 2.1 2.25 2.1 2.25-2.63 2.32-5.55 5.4-6.6 7.2-1.35 2.33 3 3.88 5.81 4.45h-17.8c0 0 5.84-1.17 6.35-1.68.95-.94.57-1.48-3.23-1.64.74-2.54.73-2.43-3.34-5z" fill="url(#J)"/><path d="m78.8-.64c7.6 2.5 11.51-2.93 15.34-6.91 0 0-.08 1.05.22 1.58.45.75 2.1 2.25 2.1 2.25-2.63 2.33-5.55 5.4-6.6 7.2-1.35 2.33 3 3.88 5.81 4.45h-17.81c0 0 5.83-1.17 6.35-1.68.94-.94.57-1.49-3.23-1.64.74-2.54.73-2.43-3.34-5z" fill="url(#H)"/><path d="m-22.1 81.2c7.6 2.5 11.51-2.93 15.34-6.91 0 0-.08 1.05.22 1.58.45.75 2.1 2.25 2.1 2.25-2.63 2.33-5.55 5.4-6.6 7.2-1.35 2.33 3 3.88 5.81 4.45h-17.81c0 0 5.84-1.17 6.35-1.68.95-.94.57-1.48-3.23-1.64.74-2.54.73-2.43-3.34-5z" fill="url(#F)"/><path d="m16.1 90.1c7.6 2.5 11.51-2.93 15.34-6.91 0 0-.07 1.05.23 1.58.45.75 2.1 2.25 2.1 2.25-2.63 2.33-5.55 5.4-6.6 7.2-1.35 2.33 3 3.88 5.81 4.45h-17.8c0 0 5.84-1.17 6.35-1.68.95-.94.57-1.48-3.23-1.64.74-2.54.73-2.43-3.35-5z" fill="url(#A)"/><path d="m46.81 64.5c7.6 2.5 11.51-2.93 15.34-6.91 0 0-.08 1.05.23 1.58.45.75 2.1 2.25 2.1 2.25-2.63 2.33-5.55 5.4-6.6 7.2-1.35 2.33 3 3.88 5.81 4.45h-17.8c0 0 5.84-1.17 6.35-1.68.95-.94.57-1.48-3.23-1.64.74-2.54.73-2.43-3.34-5z" fill="url(#9)"/><path d="m84.1 50.1c7.6 2.5 11.51-2.93 15.34-6.91 0 0-.08 1.05.22 1.58.45.75 2.1 2.25 2.1 2.25-2.63 2.33-5.55 5.4-6.6 7.2-1.35 2.33 3 3.88 5.81 4.45h-17.81c0 0 5.83-1.17 6.35-1.68.94-.94.57-1.48-3.23-1.64.74-2.54.73-2.43-3.34-5z" fill="url(#2)"/><path d="m70.81 96.5c7.6 2.5 11.51-2.93 15.34-6.91 0 0-.08 1.05.22 1.58.45.75 2.1 2.25 2.1 2.25-2.63 2.33-5.55 5.4-6.6 7.2-1.35 2.33 3 3.88 5.81 4.45h-17.8c0 0 5.83-1.17 6.35-1.68.94-.94.57-1.48-3.23-1.64.74-2.54.73-2.43-3.34-5z" fill="url(#3)"/><path d="m116.7-6.41c7.6 2.5 11.51-2.93 15.34-6.91 0 0-.07 1.05.22 1.57.45.75 2.1 2.25 2.1 2.25-2.63 2.33-5.55 5.4-6.6 7.2-1.35 2.33 3 3.88 5.81 4.45h-17.81c0 0 5.83-1.17 6.35-1.68.94-.94.57-1.49-3.23-1.64.74-2.54.73-2.43-3.34-5z" fill="url(#1)"/><path d="m-3.24 113.6c7.6 2.5 11.51-2.93 15.34-6.91 0 0-.07 1.05.22 1.58.45.75 2.1 2.25 2.1 2.25-2.63 2.33-5.55 5.4-6.6 7.2-1.35 2.33 3 3.88 5.81 4.45h-17.81c0 0 5.83-1.17 6.35-1.68.94-.94.57-1.48-3.23-1.64.74-2.54.73-2.43-3.34-5z" fill="url(#4)"/><path d="m40.68 109.3c7.6 2.5 11.51-2.93 15.34-6.91 0 0-.08 1.05.23 1.58.45.75 2.1 2.25 2.1 2.25-2.63 2.33-5.55 5.4-6.6 7.2-1.35 2.33 3 3.88 5.81 4.45h-17.8c0 0 5.84-1.17 6.35-1.68.95-.94.57-1.48-3.23-1.64.74-2.54.73-2.43-3.34-5z" fill="url(#5)"/><path d="m78.8 119.3c7.6 2.5 11.51-2.93 15.34-6.91 0 0-.08 1.05.22 1.58.45.75 2.1 2.25 2.1 2.25-2.63 2.33-5.55 5.4-6.6 7.2-1.35 2.33 3 3.88 5.81 4.45h-17.81c0 0 5.83-1.17 6.35-1.68.94-.94.57-1.48-3.23-1.64.74-2.54.73-2.43-3.34-5z" fill="url(#7)"/><path d="m116.7 113.6c7.6 2.5 11.51-2.93 15.34-6.91 0 0-.07 1.05.22 1.58.45.75 2.1 2.25 2.1 2.25-2.63 2.33-5.55 5.4-6.6 7.2-1.35 2.33 3 3.88 5.81 4.45h-17.81c0 0 5.83-1.17 6.35-1.68.94-.94.57-1.48-3.23-1.64.74-2.54.73-2.43-3.34-5z" fill="url(#8)"/><path d="m101.9 24.71c7.6 2.5 11.51-2.93 15.34-6.91 0 0-.08 1.05.22 1.57.45.75 2.1 2.25 2.1 2.25-2.63 2.32-5.55 5.4-6.6 7.2-1.35 2.32 3 3.88 5.81 4.45h-17.81c0 0 5.83-1.17 6.35-1.68.94-.94.57-1.48-3.23-1.64.74-2.54.73-2.43-3.34-5z" fill="url(#6)"/><path d="m97.9 81.2c7.6 2.5 11.51-2.93 15.34-6.91 0 0-.08 1.05.22 1.58.45.75 2.1 2.25 2.1 2.25-2.63 2.33-5.55 5.4-6.6 7.2-1.35 2.33 3 3.88 5.81 4.45h-17.81c0 0 5.84-1.17 6.35-1.68.94-.94.57-1.48-3.23-1.64.74-2.54.73-2.43-3.35-5z" fill="url(#0)"/></g></svg>