<svg xmlns="http://www.w3.org/2000/svg" width="26" height="26" viewBox="0 0 26 26"><g color-rendering="auto" color-interpolation-filters="linearRGB" shape-rendering="auto" fill-rule="evenodd" image-rendering="auto" color-interpolation="sRGB" color="#000000"><path d="m0 0h26v26h-26" isolation="auto" mix-blend-mode="normal" fill="#008000" solid-opacity="1" fill-opacity=".12" solid-color="#000000"/><g fill="#359505" fill-opacity=".3" transform="matrix(-.87.5-.5-.87 0 0)"><path d="m8.89397-19.502411a3.8 3.8 0 0 1 -3.140137 3.74227 3.8 3.8 0 0 1 -4.230695 -2.442593 3.8 3.8 0 0 1 1.670832 -4.590573"/><path d="m-.122168-25.665079a3.8 3.8 0 0 1 -3.140137 3.742269 3.8 3.8 0 0 1 -4.230695 -2.442593 3.8 3.8 0 0 1 1.670832 -4.590573"/><path d="M6.324105-12.684027A3.8 3.8 0 0 1 3.183968 -8.941757 3.8 3.8 0 0 1 -1.046727 -11.38435 3.8 3.8 0 0 1 .624105 -15.974923"/><path d="m.808889-17.972664a3.8 3.8 0 0 1 -3.140137 3.74227 3.8 3.8 0 0 1 -4.230695 -2.442593 3.8 3.8 0 0 1 1.670832 -4.590573"/><path d="m-4.884845-13.742144a3.8 3.8 0 0 1 -3.140137 3.74227 3.8 3.8 0 0 1 -4.230695 -2.442593 3.8 3.8 0 0 1 1.670832 -4.590573"/><path d="m-7.256625-20.546555a3.8 3.8 0 0 1 -3.140136 3.74227 3.8 3.8 0 0 1 -4.230695 -2.442593 3.8 3.8 0 0 1 1.670832 -4.590573"/><path d="m.30688-8.24693a3.8 3.8 0 0 1 -3.140137 3.742269 3.8 3.8 0 0 1 -4.230695 -2.442593 3.8 3.8 0 0 1 1.670832 -4.590573"/><path d="M8.160271-5.558157A3.8 3.8 0 0 1 5.02013 -1.815888 3.8 3.8 0 0 1 .789439 -4.25848 3.8 3.8 0 0 1 2.460271 -8.849054"/><path d="m-14.183185-18.458158a3.8 3.8 0 0 1 -3.140137 3.742269 3.8 3.8 0 0 1 -4.230695 -2.442593 3.8 3.8 0 0 1 1.670832 -4.590573"/><path d="m-11.313828-11.02803a3.8 3.8 0 0 1 -3.140137 3.742269 3.8 3.8 0 0 1 -4.230695 -2.442593 3.8 3.8 0 0 1 1.670832 -4.590573"/><path d="m1.166558-33.844692a3.8 3.8 0 0 1 -3.140137 3.742269 3.8 3.8 0 0 1 -4.230695 -2.442593 3.8 3.8 0 0 1 1.670832 -4.590573"/><path d="M15.227757-22.905603A3.8 3.8 0 0 1 12.08762 -19.16333 3.8 3.8 0 0 1 7.856925 -21.605927 3.8 3.8 0 0 1 9.527757 -26.1965"/><path d="M2.227757-.388944A3.8 3.8 0 0 1 -.91238 3.353326 3.8 3.8 0 0 1 -5.143075 .910733 3.8 3.8 0 0 1 -3.472243 -3.67984"/><path d="m-7.50368-27.767467a3.8 3.8 0 0 1 -3.140137 3.742269 3.8 3.8 0 0 1 -4.230695 -2.442593 3.8 3.8 0 0 1 1.670832 -4.590573"/><path d="m14.926376-14.817467a3.8 3.8 0 0 1 -3.140137 3.74227 3.8 3.8 0 0 1 -4.230695 -2.442593 3.8 3.8 0 0 1 1.670832 -4.590573"/><path d="m7.374184-26.796614a3.8 3.8 0 0 1 -3.140137 3.74227 3.8 3.8 0 0 1 -4.230695 -2.442593 3.8 3.8 0 0 1 1.670832 -4.590573"/><path d="M-5.625817-4.279954A3.8 3.8 0 0 1 -8.765954 -.537684 3.8 3.8 0 0 1 -12.996648 -2.980277 3.8 3.8 0 0 1 -11.325817 -7.57085"/><path d="m-6.942493-35.705601a3.8 3.8 0 0 1 -3.140137 3.74227 3.8 3.8 0 0 1 -4.230695 -2.442593 3.8 3.8 0 0 1 1.670832 -4.590573"/><path d="m-19.942493-13.188943a3.8 3.8 0 0 1 -3.140137 3.74227 3.8 3.8 0 0 1 -4.230695 -2.442592 3.8 3.8 0 0 1 1.670832 -4.590573"/></g></g></svg>