<svg xmlns="http://www.w3.org/2000/svg" width="67" height="67" viewBox="0 0 67 67"><g color-rendering="auto" color-interpolation-filters="linearRGB" shape-rendering="auto" fill-rule="evenodd" image-rendering="auto" color-interpolation="sRGB" color="#000000"><path d="m0 0h67v67h-67" isolation="auto" mix-blend-mode="normal" fill="#008000" solid-opacity="1" fill-opacity=".12" solid-color="#000000"/><g fill="#359505" fill-opacity=".3" transform="matrix(-.87.5-.5-.87 0 0)"><path d="m14.457455-49.2652a3.8 3.8 0 0 1 -3.140136 3.74227 3.8 3.8 0 0 1 -4.230696 -2.442593 3.8 3.8 0 0 1 1.670832 -4.590573"/><path d="m-7.685038-65.51327a3.8 3.8 0 0 1 -3.140137 3.742269 3.8 3.8 0 0 1 -4.230695 -2.442593 3.8 3.8 0 0 1 1.670832 -4.590573"/><path d="m7.921556-29.944689a3.8 3.8 0 0 1 -3.140137 3.74227 3.8 3.8 0 0 1 -4.230695 -2.442593 3.8 3.8 0 0 1 1.670832 -4.590573"/><path d="m-4.831965-48.854942a3.8 3.8 0 0 1 -3.140137 3.742269 3.8 3.8 0 0 1 -4.230695 -2.442593 3.8 3.8 0 0 1 1.670832 -4.590573"/><path d="m-18.595105-36.01649a3.8 3.8 0 0 1 -3.140137 3.742269 3.8 3.8 0 0 1 -4.230695 -2.442593 3.8 3.8 0 0 1 1.670832 -4.590573"/><path d="m-26.845292-52.32674a3.8 3.8 0 0 1 -3.140137 3.742269 3.8 3.8 0 0 1 -4.230695 -2.442593 3.8 3.8 0 0 1 1.670832 -4.590573"/><path d="m-6.439659-22.07033a3.8 3.8 0 0 1 -3.140137 3.742269 3.8 3.8 0 0 1 -4.230695 -2.442593 3.8 3.8 0 0 1 1.670832 -4.590573"/><path d="M12.920079-13.202385A3.8 3.8 0 0 1 9.779942 -9.460116 3.8 3.8 0 0 1 5.549247 -11.902708 3.8 3.8 0 0 1 7.220079 -16.493281"/><path d="m-45.27683-46.802383a3.8 3.8 0 0 1 -3.140137 3.742269 3.8 3.8 0 0 1 -4.230695 -2.442593 3.8 3.8 0 0 1 1.670832 -4.590573"/><path d="m-37.920421-27.544054a3.8 3.8 0 0 1 -3.140137 3.742269 3.8 3.8 0 0 1 -4.230695 -2.442592 3.8 3.8 0 0 1 1.670832 -4.590574"/><path d="m-4.420423-85.56776a3.8 3.8 0 0 1 -3.140137 3.742269 3.8 3.8 0 0 1 -4.230695 -2.442593 3.8 3.8 0 0 1 1.670832 -4.590573"/><path d="m32.723927-59.50365a3.8 3.8 0 0 1 -3.140137 3.742269 3.8 3.8 0 0 1 -4.230695 -2.442593 3.8 3.8 0 0 1 1.670832 -4.590573"/><path d="M-.276074-2.345979A3.8 3.8 0 0 1 -3.416211 1.39629 3.8 3.8 0 0 1 -7.646906 -1.046303 3.8 3.8 0 0 1 -5.976074 -5.636876"/><path d="m-24.08068-71.5152a3.8 3.8 0 0 1 -3.140137 3.74227 3.8 3.8 0 0 1 -4.230695 -2.442593 3.8 3.8 0 0 1 1.670832 -4.590573"/><path d="m33.510014-38.2652a3.8 3.8 0 0 1 -3.140137 3.74227 3.8 3.8 0 0 1 -4.230695 -2.442593 3.8 3.8 0 0 1 1.670832 -4.590573"/><path d="m11.132137-68.50558a3.8 3.8 0 0 1 -3.140137 3.742269 3.8 3.8 0 0 1 -4.230695 -2.442593 3.8 3.8 0 0 1 1.670832 -4.590573"/><path d="m-22.367864-10.481877a3.8 3.8 0 0 1 -3.140137 3.742269 3.8 3.8 0 0 1 -4.230695 -2.442593 3.8 3.8 0 0 1 1.670832 -4.590573"/><path d="m-25.472982-93.10366a3.8 3.8 0 0 1 -3.140137 3.74227 3.8 3.8 0 0 1 -4.230695 -2.442593 3.8 3.8 0 0 1 1.670832 -4.590573"/><path d="m-58.47298-35.945976a3.8 3.8 0 0 1 -3.140137 3.742269 3.8 3.8 0 0 1 -4.230695 -2.442593 3.8 3.8 0 0 1 1.670832 -4.590573"/></g></g></svg>