<svg xmlns="http://www.w3.org/2000/svg" width="67" height="67" viewBox="0 0 67 67"><g color-rendering="auto" color-interpolation-filters="linearRGB" shape-rendering="auto" fill-rule="evenodd" image-rendering="auto" color-interpolation="sRGB" color="#000000"><path d="m0 0h67v67h-67" isolation="auto" mix-blend-mode="normal" fill="#008000" solid-opacity="1" fill-opacity=".12" solid-color="#000000"/><g fill="#359505" fill-opacity=".3" transform="matrix(-.79.61-.61-.79 0 0)"><path d="m22.623572-47.51676a5.7 5.7 0 0 1 -5.203212 5.67831 5.7 5.7 0 0 1 -6.110191 -4.688515 5.7 5.7 0 0 1 4.138135 -6.495572"/><path d="m2.79131-66.51601a5.7 5.7 0 0 1 -5.203212 5.678309 5.7 5.7 0 0 1 -6.110192 -4.688515 5.7 5.7 0 0 1 4.138135 -6.495572"/><path d="m13.621757-29.21465a5.7 5.7 0 0 1 -5.203213 5.678309 5.7 5.7 0 0 1 -6.110192 -4.688515 5.7 5.7 0 0 1 4.138136 -6.495571"/><path d="m3.445627-49.627792a5.7 5.7 0 0 1 -5.203212 5.678309 5.7 5.7 0 0 1 -6.110192 -4.688515 5.7 5.7 0 0 1 4.138135 -6.495571"/><path d="m-11.875522-38.695621a5.7 5.7 0 0 1 -5.203212 5.678309 5.7 5.7 0 0 1 -6.110191 -4.688515 5.7 5.7 0 0 1 4.138135 -6.495572"/><path d="m-17.926213-55.943203a5.7 5.7 0 0 1 -5.203212 5.67831 5.7 5.7 0 0 1 -6.110192 -4.688515 5.7 5.7 0 0 1 4.138135 -6.495572"/><path d="m-1.644407-23.282175a5.7 5.7 0 0 1 -5.203212 5.67831 5.7 5.7 0 0 1 -6.110192 -4.688516 5.7 5.7 0 0 1 4.138136 -6.495571"/><path d="m16.392207-11.96314a5.7 5.7 0 0 1 -5.203212 5.67831 5.7 5.7 0 0 1 -6.110192 -4.688515 5.7 5.7 0 0 1 4.138136 -6.495572"/><path d="m-36.921136-52.871906a5.7 5.7 0 0 1 -5.203212 5.678309 5.7 5.7 0 0 1 -6.110192 -4.688515 5.7 5.7 0 0 1 4.138136 -6.495571"/><path d="m-32.14138-32.81813a5.7 5.7 0 0 1 -5.203212 5.678309 5.7 5.7 0 0 1 -6.110192 -4.688515 5.7 5.7 0 0 1 4.138135 -6.495572"/><path d="m8.645633-85.972809a5.7 5.7 0 0 1 -5.203212 5.67831 5.7 5.7 0 0 1 -6.110192 -4.688515 5.7 5.7 0 0 1 4.138136 -6.495572"/><path d="m42.07016-55.28337a5.7 5.7 0 0 1 -5.203212 5.67831 5.7 5.7 0 0 1 -6.110192 -4.688515 5.7 5.7 0 0 1 4.138136 -6.495572"/><path d="M1.891904-2.922055A5.7 5.7 0 0 1 -3.311308 2.756255 5.7 5.7 0 0 1 -9.4215 -1.93226 5.7 5.7 0 0 1 -5.283365 -8.427832"/><path d="m-12.680652-74.60664a5.7 5.7 0 0 1 -5.203212 5.67831 5.7 5.7 0 0 1 -6.110191 -4.688515 5.7 5.7 0 0 1 4.138135 -6.495572"/><path d="m40.07735-34.12401a5.7 5.7 0 0 1 -5.203212 5.67831 5.7 5.7 0 0 1 -6.110192 -4.688515 5.7 5.7 0 0 1 4.138136 -6.495572"/><path d="m21.838077-67.02658a5.7 5.7 0 0 1 -5.203213 5.67831 5.7 5.7 0 0 1 -6.110191 -4.688515 5.7 5.7 0 0 1 4.138135 -6.495572"/><path d="m-18.948939-13.871906a5.7 5.7 0 0 1 -5.203212 5.678309 5.7 5.7 0 0 1 -6.110192 -4.688515 5.7 5.7 0 0 1 4.138135 -6.495571"/><path d="m-11.243186-96.19215a5.7 5.7 0 0 1 -5.203212 5.678309 5.7 5.7 0 0 1 -6.110192 -4.688515 5.7 5.7 0 0 1 4.138136 -6.495568"/><path d="m-51.42144-43.830822a5.7 5.7 0 0 1 -5.203212 5.67831 5.7 5.7 0 0 1 -6.110192 -4.688515 5.7 5.7 0 0 1 4.138136 -6.495572"/></g></g></svg>