<svg xmlns="http://www.w3.org/2000/svg" width="87" height="87" viewBox="0 0 87.099998 87.099998"><g color-rendering="auto" color-interpolation-filters="linearRGB" shape-rendering="auto" fill-rule="evenodd" image-rendering="auto" color-interpolation="sRGB" color="#000000"><path d="m0 0h87v87h-87" isolation="auto" mix-blend-mode="normal" fill="#008000" solid-opacity="1" fill-opacity=".12" solid-color="#000000"/><g fill="#359505" fill-opacity=".3" transform="matrix(.7.7-.7.7 0 0)"><ellipse cx="58" cy="29.4" rx="9.2" ry="11.5"/><ellipse cx="86" cy="7.1" rx="9.2" ry="11.5"/><ellipse cx="36.6" cy="16.3" rx="9.2" ry="11.5"/><ellipse cx="64" cy="4.9" rx="9.2" ry="11.5"/><ellipse cx="53" cy="-16.3" rx="9.2" ry="11.5"/><ellipse cx="77" cy="-20.4" rx="9.2" ry="11.5"/><ellipse cx="31.5" cy="-6" rx="9.2" ry="11.5"/><ellipse cx="13.9" cy="15.8" rx="9.2" ry="11.5"/><ellipse cx="75" cy="-45" rx="9.2" ry="11.5"/><ellipse cx="48.8" cy="-43" rx="9.2" ry="11.5"/><ellipse cx="110" cy="18.4" rx="9.2" ry="11.5"/><ellipse cx="65" cy="56" rx="9.2" ry="11.5"/><ellipse cx="4.6" cy="-4.6" rx="9.2" ry="11.5"/><ellipse cx="100" cy="-10.6" rx="9.2" ry="11.5"/><ellipse cx="38.7" cy="50" rx="9.2" ry="11.5"/><ellipse cx="84" cy="31.9" rx="9.2" ry="11.5"/><ellipse cx="22.6" cy="-29.6" rx="9.2" ry="11.5"/><ellipse cx="127" cy="-4.9" rx="9.2" ry="11.5"/><ellipse cx="65.8" cy="-65.8" rx="9.2" ry="11.5"/></g></g></svg>