<svg xmlns="http://www.w3.org/2000/svg" width="170" height="170" viewBox="0 0 170 170"><g color-rendering="auto" color-interpolation-filters="linearRGB" shape-rendering="auto" fill-rule="evenodd" image-rendering="auto" color-interpolation="sRGB" color="#000000"><path d="m0 0h170v170h-170z" isolation="auto" mix-blend-mode="normal" fill="#008000" solid-opacity="1" fill-opacity=".12" solid-color="#000000"/><g fill="#359505" fill-opacity=".3" transform="matrix(.7.7-.7.7 0 0)"><ellipse cx="114" cy="55.9" rx="9.2" ry="11.5"/><ellipse cx="170" cy="12.7" rx="9.2" ry="11.5"/><ellipse cx="72" cy="28" rx="9.2" ry="11.5"/><ellipse cx="127" cy="7.8" rx="9.2" ry="11.5"/><ellipse cx="103" cy="-33.9" rx="9.2" ry="11.5"/><ellipse cx="150" cy="-42" rx="9.2" ry="11.5"/><ellipse cx="62" cy="-13.4" rx="9.2" ry="11.5"/><ellipse cx="28" cy="29.9" rx="9.2" ry="11.5"/><ellipse cx="148" cy="-91" rx="9.2" ry="11.5"/><ellipse cx="95" cy="-86" rx="9.2" ry="11.5"/><ellipse cx="216" cy="34.6" rx="9.2" ry="11.5"/><ellipse cx="129" cy="109" rx="9.2" ry="11.5"/><ellipse cx="8.5" cy="-11.3" rx="9.2" ry="11.5"/><ellipse cx="196" cy="-23.3" rx="9.2" ry="11.5"/><ellipse cx="76" cy="97" rx="9.2" ry="11.5"/><ellipse cx="165" cy="62" rx="9.2" ry="11.5"/><ellipse cx="44.5" cy="-58.7" rx="9.2" ry="11.5"/><ellipse cx="249" cy="-11.3" rx="9.2" ry="11.5"/><ellipse cx="129" cy="-132" rx="9.2" ry="11.5"/></g></g></svg>