<svg xmlns="http://www.w3.org/2000/svg" width="77" height="77" viewBox="0 0 77 77"><g color-rendering="auto" color-interpolation-filters="linearRGB" shape-rendering="auto" fill-rule="evenodd" image-rendering="auto" color-interpolation="sRGB" color="#000000"><path d="m0 0h77v77h-77" isolation="auto" mix-blend-mode="normal" fill="#008000" solid-opacity="1" fill-opacity=".12" solid-color="#000000"/><g fill="#359505" fill-opacity=".3" transform="matrix(.7.7-.7.7 0 0)"><ellipse cx="51" cy="25" rx="9.2" ry="11.5"/><ellipse cx="76" cy="5.7" rx="9.2" ry="11.5"/><ellipse cx="34" cy="15.5" rx="9.2" ry="11.5"/><ellipse cx="57" cy="3.8" rx="9.2" ry="11.5"/><ellipse cx="46.5" cy="-15.4" rx="9.2" ry="11.5"/><ellipse cx="67.9" cy="-19.8" rx="9.2" ry="11.5"/><ellipse cx="27.4" cy="-6.2" rx="9.2" ry="11.5"/><ellipse cx="16.2" cy="12.2" rx="9.2" ry="11.5"/><ellipse cx="71" cy="-42" rx="9.2" ry="11.5"/><ellipse cx="42.9" cy="-38.7" rx="9.2" ry="11.5"/><ellipse cx="97" cy="15.8" rx="9.2" ry="11.5"/><ellipse cx="58" cy="49" rx="9.2" ry="11.5"/><ellipse cx="3.6" cy="-5" rx="9.2" ry="11.5"/><ellipse cx="88" cy="-10.6" rx="9.2" ry="11.5"/><ellipse cx="33.9" cy="43.8" rx="9.2" ry="11.5"/><ellipse cx="74" cy="27.6" rx="9.2" ry="11.5"/><ellipse cx="19.8" cy="-26.9" rx="9.2" ry="11.5"/><ellipse cx="112" cy="-4.9" rx="9.2" ry="11.5"/><ellipse cx="58" cy="-59" rx="9.2" ry="11.5"/></g></g></svg>