<svg xmlns="http://www.w3.org/2000/svg" width="100" height="100" viewBox="0 0 100 100"><g color-rendering="auto" color-interpolation-filters="linearRGB" shape-rendering="auto" fill-rule="evenodd" image-rendering="auto" color-interpolation="sRGB" color="#000000"><path d="m0 0h100v100h-100z" isolation="auto" mix-blend-mode="normal" fill="#008000" solid-opacity="1" fill-opacity=".12" solid-color="#000000"/><g fill="#359505" fill-opacity=".3" transform="matrix(.7.7-.7.7 0 0)"><ellipse cx="66" cy="32.5" rx="7.6" ry="9.5"/><ellipse cx="99" cy="7" rx="7.6" ry="9.5"/><ellipse cx="41.7" cy="16.3" rx="7.6" ry="9.5"/><ellipse cx="74" cy="4.2" rx="7.6" ry="9.5"/><ellipse cx="60" cy="-20.5" rx="7.6" ry="9.5"/><ellipse cx="88" cy="-25.5" rx="7.6" ry="9.5"/><ellipse cx="35" cy="-8.5" rx="7.6" ry="9.5"/><ellipse cx="15.6" cy="17" rx="7.6" ry="9.5"/><ellipse cx="86" cy="-53.7" rx="7.6" ry="9.5"/><ellipse cx="55" cy="-50.9" rx="7.6" ry="9.5"/><ellipse cx="126" cy="19.8" rx="7.6" ry="9.5"/><ellipse cx="75" cy="64" rx="7.6" ry="9.5"/><ellipse cx="4.2" cy="-7" rx="7.6" ry="9.5"/><ellipse cx="115" cy="-14" rx="7.6" ry="9.5"/><ellipse cx="43.8" cy="57" rx="7.6" ry="9.5"/><ellipse cx="96" cy="35" rx="7.6" ry="9.5"/><ellipse cx="25.5" cy="-35" rx="7.6" ry="9.5"/><ellipse cx="146" cy="-7" rx="7.6" ry="9.5"/><ellipse cx="75" cy="-78" rx="7.6" ry="9.5"/></g></g></svg>