<svg xmlns="http://www.w3.org/2000/svg" width="84" height="84" viewBox="0 0 83.75 83.75"><g color-rendering="auto" color-interpolation-filters="linearRGB" shape-rendering="auto" fill-rule="evenodd" image-rendering="auto" color-interpolation="sRGB" color="#000000"><path d="m0 0h84v84h-84" isolation="auto" mix-blend-mode="normal" fill="#008000" solid-opacity="1" fill-opacity=".12" solid-color="#000000"/><g fill-opacity=".3"><g fill="#008446"><circle cx="19.3" cy="59" r="7.5"/><circle cx="53" cy="64" r="7.5"/></g><g fill="#359505"><circle cx="14.3" cy="35" r="7.5"/><circle cx="40" cy="47" r="7.5"/><circle cx="46.8" cy="24" r="7.5"/></g><g fill="#008446"><circle cx="65.9" cy="38" r="7.5"/><circle cx="25" cy="17" r="7.5"/></g><g fill="#359505"><circle cx="-1.6" cy="20" r="7.5"/><circle cx="82" cy="20" r="7.5"/></g><g fill="#008446"><circle cx="61.8" cy="4" r="7.5"/><circle cx="61.8" cy="87" r="7.5"/><circle cx="5.9" cy="83" r="7.5"/><circle cx="5.9" cy="-1" r="7.5"/></g><g fill="#359505"><circle cx="75" cy="60" r="7.5"/><circle cx="-8.3" cy="60" r="7.5"/><circle cx="35" cy="79" r="7.5"/><circle cx="35" cy="-5" r="7.5"/></g><g fill="#008446"><circle cx="89" cy="83" r="7.5"/><circle cx="89" cy="-1" r="7.5"/></g></g></g></svg>