<svg xmlns="http://www.w3.org/2000/svg" width="120" height="120" viewBox="0 0 120 120"><g color-rendering="auto" color-interpolation-filters="linearRGB" shape-rendering="auto" fill-rule="evenodd" image-rendering="auto" color-interpolation="sRGB" color="#000000"><path d="m0 0h120v120h-120z" isolation="auto" mix-blend-mode="normal" fill="#008000" solid-opacity="1" fill-opacity=".12" solid-color="#000000"/><g fill-opacity=".3"><g fill="#008446"><circle cx="28.9" cy="84" r="11.5"/><circle cx="78" cy="90" r="11.5"/></g><g fill="#359505"><circle cx="21.7" cy="50" r="11.5"/><circle cx="58.9" cy="66" r="11.5"/><circle cx="69" cy="34" r="11.5"/></g><g fill="#008446"><circle cx="96" cy="53" r="11.5"/><circle cx="37" cy="23" r="11.5"/></g><g fill="#359505"><circle cx="-1.1" cy="28" r="11.5"/><circle cx="119" cy="28" r="11.5"/></g><g fill="#008446"><circle cx="90" cy="4" r="11.5"/><circle cx="90" cy="124" r="11.5"/><circle cx="9.7" cy="118" r="11.5"/><circle cx="9.7" cy="-2" r="11.5"/></g><g fill="#359505"><circle cx="109" cy="86" r="11.5"/><circle cx="-10.7" cy="86" r="11.5"/><circle cx="51.7" cy="112" r="11.5"/><circle cx="51.7" cy="-8" r="11.5"/></g><g fill="#008446"><circle cx="130" cy="118" r="11.5"/><circle cx="130" cy="-2" r="11.5"/></g></g></g></svg>