<svg xmlns="http://www.w3.org/2000/svg" width="140" height="140" viewBox="0 0 140 140"><g color-rendering="auto" color-interpolation-filters="linearRGB" shape-rendering="auto" fill-rule="evenodd" image-rendering="auto" color-interpolation="sRGB" color="#000000"><path d="m0 0h140v140h-140z" isolation="auto" mix-blend-mode="normal" fill="#008000" solid-opacity="1" fill-opacity=".12" solid-color="#000000"/><g fill-opacity=".3"><g fill="#008446"><circle cx="33.8" cy="99" r="9.5"/><circle cx="91" cy="106" r="9.5"/></g><g fill="#359505"><circle cx="25.4" cy="58" r="9.5"/><circle cx="68.8" cy="78" r="9.5"/><circle cx="80" cy="40" r="9.5"/></g><g fill="#008446"><circle cx="112" cy="62" r="9.5"/><circle cx="43.6" cy="27" r="9.5"/></g><g fill="#359505"><circle cx="-1.2" cy="33" r="9.5"/><circle cx="139" cy="33" r="9.5"/></g><g fill="#008446"><circle cx="105" cy="5" r="9.5"/><circle cx="105" cy="145" r="9.5"/><circle cx="11.4" cy="138" r="9.5"/><circle cx="11.4" cy="-2" r="9.5"/></g><g fill="#359505"><circle cx="128" cy="100" r="9.5"/><circle cx="-12.4" cy="100" r="9.5"/><circle cx="60" cy="131" r="9.5"/><circle cx="60" cy="-9" r="9.5"/></g><g fill="#008446"><circle cx="151" cy="138" r="9.5"/><circle cx="151" cy="-2" r="9.5"/></g></g></g></svg>