<svg xmlns="http://www.w3.org/2000/svg" width="63" height="63" viewBox="0 0 63 63"><g color-rendering="auto" color-interpolation-filters="linearRGB" shape-rendering="auto" fill-rule="evenodd" image-rendering="auto" color-interpolation="sRGB" color="#000000"><path d="m0 0h63v63h-63" isolation="auto" mix-blend-mode="normal" fill="#008000" solid-opacity="1" fill-opacity=".12" solid-color="#000000"/><g fill-opacity=".3"><g fill="#008446"><circle cx="14.6" cy="45" r="9.5"/><circle cx="40" cy="48" r="9.5"/></g><g fill="#359505"><circle cx="10.9" cy="27" r="9.5"/><circle cx="30" cy="35" r="9.5"/><circle cx="35" cy="18" r="9.5"/></g><g fill="#008446"><circle cx="49.7" cy="29" r="9.5"/><circle cx="19" cy="13" r="9.5"/></g><circle cx="-1" cy="15" r="9.5" fill="#359505"/><g fill="#008446"><circle cx="62" cy="15" r="9.5"/><circle cx="46.6" cy="3" r="9.5"/><circle cx="46.6" cy="66" r="9.5"/><circle cx="4.6" cy="62" r="9.5"/><circle cx="4.6" r="9.5"/></g><g fill="#359505"><circle cx="57" cy="45" r="9.5"/><circle cx="-6" cy="45" r="9.5"/><circle cx="26.6" cy="59" r="9.5"/><circle cx="26.6" cy="-3" r="9.5"/></g><g fill="#008446"><circle cx="67" cy="62" r="9.5"/><circle cx="67" r="9.5"/></g></g></g></svg>