<svg xmlns="http://www.w3.org/2000/svg" width="51" height="51" viewBox="0 0 51 51"><g color-rendering="auto" color-interpolation-filters="linearRGB" shape-rendering="auto" fill-rule="evenodd" image-rendering="auto" color-interpolation="sRGB" color="#000000"><path d="m0 0h51v51h-51" isolation="auto" mix-blend-mode="normal" fill="#008000" solid-opacity="1" fill-opacity=".12" solid-color="#000000"/><g fill-opacity=".3"><g fill="#008446"><circle cx="11.3" cy="36" r="7.5"/><circle cx="32" cy="39" r="7.5"/></g><g fill="#359505"><circle cx="8.3" cy="22" r="7.5"/><circle cx="24" cy="29" r="7.5"/><circle cx="28" cy="15" r="7.5"/></g><g fill="#008446"><circle cx="39.7" cy="23" r="7.5"/><circle cx="14.9" cy="11" r="7.5"/></g><g fill="#359505"><circle cx="-1.4" cy="13" r="7.5"/><circle cx="49" cy="13" r="7.5"/></g><g fill="#008446"><circle cx="37" cy="2" r="7.5"/><circle cx="37" cy="53" r="7.5"/><circle cx="3.2" cy="51" r="7.5"/><circle cx="3.2" r="7.5"/></g><g fill="#359505"><circle cx="45" cy="37" r="7.5"/><circle cx="-5.4" cy="37" r="7.5"/><circle cx="21" cy="48" r="7.5"/><circle cx="21" cy="-3" r="7.5"/></g><g fill="#008446"><circle cx="53.9" cy="51" r="7.5"/><circle cx="53.9" r="7.5"/></g></g></g></svg>