<svg xmlns="http://www.w3.org/2000/svg" width="39" height="39" viewBox="0 0 39 39"><g color-rendering="auto" color-interpolation-filters="linearRGB" shape-rendering="auto" fill-rule="evenodd" image-rendering="auto" color-interpolation="sRGB" color="#000000"><path d="m0 0h39v39h-39" isolation="auto" mix-blend-mode="normal" fill="#008000" solid-opacity="1" fill-opacity=".12" solid-color="#000000"/><g fill-opacity=".3"><g fill="#008446"><circle cx="9" cy="28" r="5.7"/><circle cx="25" cy="29" r="5.7"/></g><g fill="#359505"><circle cx="6.7" cy="16" r="5.7"/><circle cx="18.8" cy="22" r="5.7"/><circle cx="21.9" cy="11" r="5.7"/></g><g fill="#008446"><circle cx="30.9" cy="17" r="5.7"/><circle cx="11.8" cy="8" r="5.7"/></g><g fill="#359505"><circle cx="-.7" cy="9" r="5.7"/><circle cx="38" cy="9" r="5.7"/></g><g fill="#008446"><circle cx="29" cy="1" r="5.7"/><circle cx="29" cy="40" r="5.7"/><circle cx="2.8" cy="38" r="5.7"/><circle cx="2.8" cy="-1" r="5.7"/></g><g fill="#359505"><circle cx="35" cy="28" r="5.7"/><circle cx="-3.8" cy="28" r="5.7"/><circle cx="16.5" cy="37" r="5.7"/><circle cx="16.5" cy="-2" r="5.7"/></g><g fill="#008446"><circle cx="41.8" cy="38" r="5.7"/><circle cx="41.8" cy="-1" r="5.7"/></g></g></g></svg>