<svg xmlns="http://www.w3.org/2000/svg" width="44" height="44" viewBox="0 0 44 44"><g color-rendering="auto" color-interpolation-filters="linearRGB" shape-rendering="auto" fill-rule="evenodd" image-rendering="auto" color-interpolation="sRGB" color="#000000"><path d="m0 0h44v44h-44" isolation="auto" mix-blend-mode="normal" fill="#008000" solid-opacity="1" fill-opacity=".12" solid-color="#000000"/><g fill-opacity=".3"><g fill="#008446"><circle cx="10.6" cy="31" r="5.7"/><circle cx="28.7" cy="33" r="5.7"/></g><g fill="#359505"><circle cx="8" cy="18" r="5.7"/><circle cx="21.6" cy="25" r="5.7"/><circle cx="25" cy="13" r="5.7"/></g><g fill="#008446"><circle cx="35" cy="20" r="5.7"/><circle cx="13.7" cy="9" r="5.7"/></g><g fill="#359505"><circle cx="-.4" cy="10" r="5.7"/><circle cx="43.6" cy="10" r="5.7"/></g><g fill="#008446"><circle cx="33" cy="2" r="5.7"/><circle cx="33" cy="46" r="5.7"/><circle cx="3.6" cy="43" r="5.7"/><circle cx="3.6" cy="-1" r="5.7"/></g><g fill="#359505"><circle cx="40" cy="32" r="5.7"/><circle cx="-3.9" cy="32" r="5.7"/><circle cx="19" cy="41" r="5.7"/><circle cx="19" cy="-3" r="5.7"/></g><g fill="#008446"><circle cx="47.6" cy="43" r="5.7"/><circle cx="47.6" cy="-1" r="5.7"/></g></g></g></svg>