<svg xmlns="http://www.w3.org/2000/svg" width="72" height="72" viewBox="0 0 72 72"><g transform="translate(0-980)" color-rendering="auto" color-interpolation-filters="linearRGB" shape-rendering="auto" image-rendering="auto" fill-rule="evenodd" color-interpolation="sRGB" color="#000000"><path mix-blend-mode="normal" solid-color="#000000" fill-opacity=".12" isolation="auto" solid-opacity="1" fill="#008000" d="m0 980h72v72h-72z"/><g fill-opacity=".3"><g fill="#008446"><circle r="9.5" cy="1031" cx="17"/><circle r="9.5" cy="1034" cx="46.7"/></g><g fill="#359505"><circle r="9.5" cy="1010" cx="12.8"/><circle r="9.5" cy="1020" cx="35"/><circle r="9.5" cy="1001" cx="40.9"/></g><g fill="#008446"><circle r="9.5" cy="1012" cx="57"/><circle r="9.5" cy="994" cx="22"/></g><g fill="#359505"><circle r="9.5" cy="997" cx="-.9"/><circle r="9.5" cy="997" cx="71"/></g><g fill="#008446"><circle r="9.5" cy="983" cx="53.9"/><circle r="9.5" cy="1055" cx="53.9"/><circle r="9.5" cy="1051" cx="5.6"/><circle r="9.5" cy="979" cx="5.6"/></g><g fill="#359505"><circle r="9.5" cy="1032" cx="65"/><circle r="9.5" cy="1032" cx="-6.6"/><circle r="9.5" cy="1047" cx="30.8"/><circle r="9.5" cy="975" cx="30.8"/></g><g fill="#008446"><circle r="9.5" cy="1051" cx="78"/><circle r="9.5" cy="979" cx="78"/></g></g></g></svg>