<svg xmlns="http://www.w3.org/2000/svg" width="67" height="67" viewBox="0 0 67 67"><g color-rendering="auto" color-interpolation-filters="linearRGB" shape-rendering="auto" fill-rule="evenodd" image-rendering="auto" color-interpolation="sRGB" color="#000000"><path d="m0 0h67v67h-67" isolation="auto" mix-blend-mode="normal" fill="#008000" solid-opacity="1" fill-opacity=".12" solid-color="#000000"/><g fill-opacity=".3"><g fill="#008446"><circle cx="15.5" cy="48" r="7.5"/><circle cx="42.8" cy="51" r="7.5"/></g><g fill="#359505"><circle cx="11.5" cy="28" r="7.5"/><circle cx="32" cy="38" r="7.5"/><circle cx="37.5" cy="20" r="7.5"/></g><g fill="#008446"><circle cx="52.8" cy="30" r="7.5"/><circle cx="20" cy="14" r="7.5"/></g><g fill="#359505"><circle cx="-1.2" cy="16" r="7.5"/><circle cx="66" cy="16" r="7.5"/></g><g fill="#008446"><circle cx="50" cy="3" r="7.5"/><circle cx="50" cy="70" r="7.5"/><circle cx="4.8" cy="66" r="7.5"/><circle cx="4.8" r="7.5"/></g><g fill="#359505"><circle cx="60" cy="48" r="7.5"/><circle cx="-6.5" cy="48" r="7.5"/><circle cx="28" cy="63" r="7.5"/><circle cx="28" cy="-4" r="7.5"/></g><g fill="#008446"><circle cx="72" cy="66" r="7.5"/><circle cx="72" r="7.5"/></g></g></g></svg>