<svg xmlns="http://www.w3.org/2000/svg" width="87" height="87" viewBox="0 0 87.099998 87.099998"><g color-rendering="auto" color-interpolation-filters="linearRGB" shape-rendering="auto" fill-rule="evenodd" image-rendering="auto" color-interpolation="sRGB" color="#000000"><path d="m0 0h87v87h-87" isolation="auto" mix-blend-mode="normal" fill="#008000" solid-opacity="1" fill-opacity=".12" solid-color="#000000"/><g fill-opacity=".3"><g fill="#008446"><circle cx="20.4" cy="62" r="11.5"/><circle cx="55.9" cy="66" r="11.5"/></g><g fill="#359505"><circle cx="15.2" cy="37" r="11.5"/><circle cx="42" cy="49" r="11.5"/><circle cx="49" cy="26" r="11.5"/></g><g fill="#008446"><circle cx="68.9" cy="40" r="11.5"/><circle cx="26.5" cy="18" r="11.5"/></g><g fill="#359505"><circle cx="-1.3" cy="21" r="11.5"/><circle cx="85" cy="21" r="11.5"/></g><g fill="#008446"><circle cx="65" cy="4" r="11.5"/><circle cx="65" cy="91" r="11.5"/><circle cx="6.5" cy="86" r="11.5"/><circle cx="6.5" r="11.5"/></g><g fill="#359505"><circle cx="78" cy="63" r="11.5"/><circle cx="-8.2" cy="63" r="11.5"/><circle cx="36.9" cy="82" r="11.5"/><circle cx="36.9" cy="-5" r="11.5"/></g><g fill="#008446"><circle cx="93" cy="86" r="11.5"/><circle cx="93" r="11.5"/></g></g></g></svg>