<svg xmlns="http://www.w3.org/2000/svg" width="77" height="77" viewBox="0 0 77 77"><g color-rendering="auto" color-interpolation-filters="linearRGB" shape-rendering="auto" fill-rule="evenodd" image-rendering="auto" color-interpolation="sRGB" color="#000000"><path d="m0 0h77v77h-77" isolation="auto" mix-blend-mode="normal" fill="#008000" solid-opacity="1" fill-opacity=".12" solid-color="#000000"/><g fill-opacity=".3"><g fill="#008446"><circle cx="18.4" cy="54" r="11.5"/><circle cx="50" cy="58" r="11.5"/></g><g fill="#359505"><circle cx="13.8" cy="32" r="11.5"/><circle cx="37.6" cy="43" r="11.5"/><circle cx="43.8" cy="22" r="11.5"/></g><g fill="#008446"><circle cx="62" cy="34" r="11.5"/><circle cx="23.8" cy="15" r="11.5"/></g><g fill="#359505"><circle cx="-.9" cy="18" r="11.5"/><circle cx="76" cy="18" r="11.5"/></g><g fill="#008446"><circle cx="57.7" cy="3" r="11.5"/><circle cx="57.7" cy="80" r="11.5"/><circle cx="6.1" cy="76" r="11.5"/><circle cx="6.1" cy="-1" r="11.5"/></g><g fill="#359505"><circle cx="70" cy="55" r="11.5"/><circle cx="-7" cy="55" r="11.5"/><circle cx="33" cy="72" r="11.5"/><circle cx="33" cy="-5" r="11.5"/></g><g fill="#008446"><circle cx="83" cy="76" r="11.5"/><circle cx="83" cy="-1" r="11.5"/></g></g></g></svg>