<svg xmlns="http://www.w3.org/2000/svg" width="100" height="100" viewBox="0 0 100 100"><g color-rendering="auto" color-interpolation-filters="linearRGB" shape-rendering="auto" fill-rule="evenodd" image-rendering="auto" color-interpolation="sRGB" color="#000000"><path d="m0 0h100v100h-100z" isolation="auto" mix-blend-mode="normal" fill="#008000" solid-opacity="1" fill-opacity=".12" solid-color="#000000"/><g fill-opacity=".3"><g fill="#008446"><circle cx="24" cy="70" r="5.7"/><circle cx="65" cy="75" r="5.7"/></g><g fill="#359505"><circle cx="18" cy="41" r="5.7"/><circle cx="49" cy="55" r="5.7"/><circle cx="57" cy="28" r="5.7"/></g><g fill="#008446"><circle cx="80" cy="44" r="5.7"/><circle cx="31" cy="19" r="5.7"/></g><g fill="#359505"><circle cx="-1" cy="23" r="5.7"/><circle cx="99" cy="23" r="5.7"/></g><g fill="#008446"><circle cx="75" cy="3" r="5.7"/><circle cx="75" cy="103" r="5.7"/><circle cx="8" cy="98" r="5.7"/><circle cx="8" cy="-2" r="5.7"/></g><g fill="#359505"><circle cx="91" cy="71" r="5.7"/><circle cx="-9" cy="71" r="5.7"/><circle cx="43" cy="93" r="5.7"/><circle cx="43" cy="-7" r="5.7"/></g><g fill="#008446"><circle cx="108" cy="98" r="5.7"/><circle cx="108" cy="-2" r="5.7"/></g></g></g></svg>