<svg xmlns="http://www.w3.org/2000/svg" width="50" height="50" viewBox="0 0 50 50"><g color-rendering="auto" color-interpolation-filters="linearRGB" shape-rendering="auto" fill-rule="evenodd" image-rendering="auto" color-interpolation="sRGB" color="#000000"><path d="m0 0h50v50h-50" isolation="auto" mix-blend-mode="normal" fill="#008000" solid-opacity="1" fill-opacity=".12" solid-color="#000000"/><g fill-opacity=".3"><g fill="#008446"><circle cx="11.8" cy="34" r="5.7"/><circle cx="32" cy="37" r="5.7"/></g><g fill="#359546"><circle cx="8.8" cy="20" r="5.7"/><circle cx="24" cy="27" r="5.7"/><circle cx="28" cy="13" r="5.7"/></g><g fill="#008446"><circle cx="39.8" cy="21" r="5.7"/><circle cx="15.3" cy="9" r="5.7"/></g><g fill="#359546"><circle cx="-.8" cy="11" r="5.7"/><circle cx="49" cy="11" r="5.7"/></g><g fill="#008446"><circle cx="37" cy="1" r="5.7"/><circle cx="37" cy="51" r="5.7"/><circle cx="3.8" cy="48" r="5.7"/><circle cx="3.8" cy="-2" r="5.7"/></g><g fill="#359546"><circle cx="45" cy="35" r="5.7"/><circle cx="-4.8" cy="35" r="5.7"/><circle cx="21.3" cy="46" r="5.7"/><circle cx="21.3" cy="-4" r="5.7"/></g><g fill="#008446"><circle cx="53.8" cy="48" r="5.7"/><circle cx="53.8" cy="-2" r="5.7"/></g></g></g></svg>