<svg xmlns="http://www.w3.org/2000/svg" width="170" height="170" viewBox="0 0 170 170"><g color-rendering="auto" color-interpolation-filters="linearRGB" shape-rendering="auto" fill-rule="evenodd" image-rendering="auto" color-interpolation="sRGB" color="#000000"><path d="m0 0h170v170h-170z" isolation="auto" mix-blend-mode="normal" fill="#008000" solid-opacity="1" fill-opacity=".12" solid-color="#000000"/><g fill-opacity=".3"><g fill="#008446"><circle cx="41" cy="120" r="11.5"/><circle cx="111" cy="129" r="11.5"/></g><g fill="#359505"><circle cx="31" cy="71" r="11.5"/><circle cx="84" cy="95" r="11.5"/><circle cx="97" cy="49" r="11.5"/></g><g fill="#008446"><circle cx="136" cy="76" r="11.5"/><circle cx="53" cy="34" r="11.5"/></g><g fill="#359505"><circle cx="-1.3" cy="41" r="11.5"/><circle cx="169" cy="41" r="11.5"/></g><g fill="#008446"><circle cx="128" cy="7" r="11.5"/><circle cx="128" cy="177" r="11.5"/><circle cx="14" cy="168" r="11.5"/><circle cx="14" cy="-2" r="11.5"/></g><g fill="#359505"><circle cx="155" cy="122" r="11.5"/><circle cx="-15" cy="122" r="11.5"/><circle cx="73" cy="160" r="11.5"/><circle cx="73" cy="-10" r="11.5"/></g><g fill="#008446"><circle cx="184" cy="168" r="11.5"/><circle cx="184" cy="-2" r="11.5"/></g></g></g></svg>