<svg xmlns="http://www.w3.org/2000/svg" width="58" height="58" viewBox="0 0 58 58"><g color-rendering="auto" color-interpolation-filters="linearRGB" shape-rendering="auto" fill-rule="evenodd" image-rendering="auto" color-interpolation="sRGB" color="#000000"><path d="m0 0h58v58h-58" isolation="auto" mix-blend-mode="normal" fill="#008000" solid-opacity="1" fill-opacity=".12" solid-color="#000000"/><g fill-opacity=".3"><g fill="#008446"><circle cx="13.7" cy="41" r="7.5"/><circle cx="37.5" cy="44" r="7.5"/></g><g fill="#359505"><circle cx="10.2" cy="24" r="7.5"/><circle cx="28" cy="32" r="7.5"/><circle cx="32.8" cy="16" r="7.5"/></g><g fill="#008446"><circle cx="46" cy="26" r="7.5"/><circle cx="17.8" cy="11" r="7.5"/></g><g fill="#359505"><circle cx="-.8" cy="14" r="7.5"/><circle cx="57" cy="14" r="7.5"/></g><g fill="#008446"><circle cx="43" cy="2" r="7.5"/><circle cx="43" cy="60" r="7.5"/><circle cx="4.4" cy="57" r="7.5"/><circle cx="4.4" cy="-1" r="7.5"/></g><g fill="#359505"><circle cx="53" cy="41" r="7.5"/><circle cx="-5.4" cy="41" r="7.5"/><circle cx="24.7" cy="54" r="7.5"/><circle cx="24.7" cy="-4" r="7.5"/></g><circle cx="62" cy="57" r="7.5" fill="#008446"/><circle cx="62" cy="-1" r="7.5" fill="#359505"/></g></g></svg>