<svg xmlns="http://www.w3.org/2000/svg" width="44" height="44" viewBox="0 0 44 44"><g transform="translate(0-1008)" color-rendering="auto" color-interpolation-filters="linearRGB" shape-rendering="auto" image-rendering="auto" fill-rule="evenodd" color-interpolation="sRGB" color="#000000"><path mix-blend-mode="normal" solid-color="#000000" fill-opacity=".12" isolation="auto" solid-opacity="1" fill="#008000" d="m0 1008h44v44h-44z"/><g fill-opacity=".3"><g fill="#008446"><circle r="3.8" cy="1039" cx="10.6"/><circle r="3.8" cy="1041" cx="28.7"/></g><g fill="#359505"><circle r="3.8" cy="1026" cx="8"/><circle r="3.8" cy="1033" cx="21.6"/><circle r="3.8" cy="1021" cx="25"/></g><g fill="#008446"><circle r="3.8" cy="1028" cx="35"/><circle r="3.8" cy="1017" cx="13.7"/></g><g fill="#359505"><circle r="3.8" cy="1018" cx="-.4"/><circle r="3.8" cy="1018" cx="43.6"/></g><g fill="#008446"><circle r="3.8" cy="1010" cx="33"/><circle r="3.8" cy="1054" cx="33"/><circle r="3.8" cy="1051" cx="3.6"/><circle r="3.8" cy="1007" cx="3.6"/></g><g fill="#359505"><circle r="3.8" cy="1040" cx="40"/><circle r="3.8" cy="1040" cx="-3.9"/><circle r="3.8" cy="1049" cx="19"/><circle r="3.8" cy="1005" cx="19"/></g><g fill="#008446"><circle r="3.8" cy="1051" cx="47.6"/><circle r="3.8" cy="1007" cx="47.6"/></g></g></g></svg>