<svg xmlns="http://www.w3.org/2000/svg" width="33.5" height="33.5" viewBox="0 0 33.5 33.5"><g color-rendering="auto" color-interpolation-filters="linearRGB" shape-rendering="auto" fill-rule="evenodd" image-rendering="auto" color-interpolation="sRGB" color="#000000"><path d="m0 0h33.5v33.5h-33.5z" isolation="auto" mix-blend-mode="normal" fill="#008000" solid-opacity="1" fill-opacity=".12" solid-color="#000000"/><g fill-opacity=".3"><g fill="#008446"><circle cx="7" cy="24" r="3.8"/><circle cx="20.7" cy="26" r="3.8"/></g><g fill="#359505"><circle cx="5" cy="15" r="3.8"/><circle cx="15.3" cy="19" r="3.8"/><circle cx="18" cy="10" r="3.8"/></g><g fill="#008446"><circle cx="25.7" cy="16" r="3.8"/><circle cx="9.3" cy="7" r="3.8"/></g><g fill="#359505"><circle cx="-1.3" cy="9" r="3.8"/><circle cx="32" cy="9" r="3.8"/></g><g fill="#008446"><circle cx="24" cy="2" r="3.8"/><circle cx="24" cy="35" r="3.8"/><circle cx="1.7" cy="34" r="3.8"/><circle cx="1.7" r="3.8"/></g><g fill="#359505"><circle cx="29" cy="25" r="3.8"/><circle cx="-4" cy="25" r="3.8"/><circle cx="13.3" cy="32" r="3.8"/><circle cx="13.3" cy="-1" r="3.8"/></g><g fill="#008446"><circle cx="35" cy="34" r="3.8"/><circle cx="35" r="3.8"/></g></g></g></svg>