<svg xmlns="http://www.w3.org/2000/svg" width="170" height="170" viewBox="0 0 170 170"><g transform="translate(0-882)" color-rendering="auto" color-interpolation-filters="linearRGB" shape-rendering="auto" image-rendering="auto" fill-rule="evenodd" color-interpolation="sRGB" color="#000000"><path mix-blend-mode="normal" solid-color="#000000" fill-opacity=".12" isolation="auto" solid-opacity="1" fill="#008000" d="m0 882h170v170h-170z"/><g fill="#456c1c" fill-opacity=".3"><circle cx="41" cy="1002" r="11.5"/><circle cx="111" cy="1011" r="11.5"/><circle cx="31" cy="953" r="11.5"/><circle cx="84" cy="977" r="11.5"/><circle cx="97" cy="931" r="11.5"/><circle cx="136" cy="958" r="11.5"/><circle cx="53" cy="916" r="11.5"/><circle cx="-1.3" cy="923" r="11.5"/><circle cx="169" cy="923" r="11.5"/><circle cx="128" cy="889" r="11.5"/><circle cx="128" cy="1059" r="11.5"/><circle cx="14" cy="1050" r="11.5"/><circle cx="14" cy="880" r="11.5"/><circle cx="155" cy="1004" r="11.5"/><circle cx="-15" cy="1004" r="11.5"/><circle cx="73" cy="1042" r="11.5"/><circle cx="73" cy="872" r="11.5"/><circle cx="184" cy="1050" r="11.5"/><circle cx="184" cy="880" r="11.5"/></g></g></svg>