<svg xmlns="http://www.w3.org/2000/svg" width="100" height="100" viewBox="0 0 100 100"><g transform="translate(0-952)" color-rendering="auto" color-interpolation-filters="linearRGB" shape-rendering="auto" image-rendering="auto" fill-rule="evenodd" color-interpolation="sRGB" color="#000000"><path mix-blend-mode="normal" solid-color="#000000" fill-opacity=".12" isolation="auto" solid-opacity="1" fill="#008000" d="m0 952h100v100h-100z"/><g fill="#456c1c" fill-opacity=".3"><circle cx="24" cy="1022" r="9.5"/><circle cx="65" cy="1027" r="9.5"/><circle cx="18" cy="993" r="9.5"/><circle cx="49" cy="1007" r="9.5"/><circle cx="57" cy="980" r="9.5"/><circle cx="80" cy="996" r="9.5"/><circle cx="31" cy="971" r="9.5"/><circle cx="-1" cy="975" r="9.5"/><circle cx="99" cy="975" r="9.5"/><circle cx="75" cy="955" r="9.5"/><circle cx="75" cy="1055" r="9.5"/><circle cx="8" cy="1050" r="9.5"/><circle cx="8" cy="950" r="9.5"/><circle cx="91" cy="1023" r="9.5"/><circle cx="-9" cy="1023" r="9.5"/><circle cx="43" cy="1045" r="9.5"/><circle cx="43" cy="945" r="9.5"/><circle cx="108" cy="1050" r="9.5"/><circle cx="108" cy="950" r="9.5"/></g></g></svg>