<svg xmlns="http://www.w3.org/2000/svg" width="84" height="84" viewBox="0 0 83.75 83.75"><g transform="translate(0-969)" color-rendering="auto" color-interpolation-filters="linearRGB" shape-rendering="auto" image-rendering="auto" fill-rule="evenodd" color-interpolation="sRGB" color="#000000"><path mix-blend-mode="normal" solid-color="#000000" fill-opacity=".12" isolation="auto" solid-opacity="1" fill="#008000" d="m0 969h84v84h-84z"/><g fill="#456c1c" fill-opacity=".3"><circle cx="19.3" cy="1028" r="7.5"/><circle cx="53" cy="1033" r="7.5"/><circle cx="14.3" cy="1004" r="7.5"/><circle cx="40" cy="1016" r="7.5"/><circle cx="46.8" cy="993" r="7.5"/><circle cx="65.9" cy="1007" r="7.5"/><circle cx="25" cy="986" r="7.5"/><circle cx="-1.6" cy="989" r="7.5"/><circle cx="82" cy="989" r="7.5"/><circle cx="61.8" cy="973" r="7.5"/><circle cx="61.8" cy="1056" r="7.5"/><circle cx="5.9" cy="1052" r="7.5"/><circle cx="5.9" cy="968" r="7.5"/><circle cx="75" cy="1029" r="7.5"/><circle cx="-8.3" cy="1029" r="7.5"/><circle cx="35" cy="1048" r="7.5"/><circle cx="35" cy="964" r="7.5"/><circle cx="89" cy="1052" r="7.5"/><circle cx="89" cy="968" r="7.5"/></g></g></svg>