<svg xmlns="http://www.w3.org/2000/svg" width="50" height="50" viewBox="0 0 50 50"><g transform="translate(0-1002)" color-rendering="auto" color-interpolation-filters="linearRGB" shape-rendering="auto" image-rendering="auto" fill-rule="evenodd" color-interpolation="sRGB" color="#000000"><path mix-blend-mode="normal" solid-color="#000000" fill-opacity=".12" isolation="auto" solid-opacity="1" fill="#008000" d="m0 1002h50v50h-50z"/><g fill="#456c1c" fill-opacity=".3"><circle cx="11.8" cy="1036" r="5.7"/><circle cx="32" cy="1039" r="5.7"/><circle cx="8.8" cy="1022" r="5.7"/><circle cx="24" cy="1029" r="5.7"/><circle cx="28" cy="1015" r="5.7"/><circle cx="39.8" cy="1023" r="5.7"/><circle cx="15.3" cy="1011" r="5.7"/><circle cx="-.8" cy="1013" r="5.7"/><circle cx="49" cy="1013" r="5.7"/><circle cx="37" cy="1003" r="5.7"/><circle cx="37" cy="1053" r="5.7"/><circle cx="3.8" cy="1050" r="5.7"/><circle cx="3.8" cy="1000" r="5.7"/><circle cx="45" cy="1037" r="5.7"/><circle cx="-4.8" cy="1037" r="5.7"/><circle cx="21.3" cy="1048" r="5.7"/><circle cx="21.3" cy="998" r="5.7"/><circle cx="53.8" cy="1050" r="5.7"/><circle cx="53.8" cy="1000" r="5.7"/></g></g></svg>