<svg xmlns="http://www.w3.org/2000/svg" width="44" height="44" viewBox="0 0 44 44"><g transform="translate(0-1008)" color-rendering="auto" color-interpolation-filters="linearRGB" shape-rendering="auto" image-rendering="auto" fill-rule="evenodd" color-interpolation="sRGB" color="#000000"><path mix-blend-mode="normal" solid-color="#000000" fill-opacity=".12" isolation="auto" solid-opacity="1" fill="#008000" d="m0 1008h44v44h-44z"/><g fill="#456c1c" fill-opacity=".3"><circle cx="10.6" cy="1039" r="3.8"/><circle cx="28.7" cy="1041" r="3.8"/><circle cx="8" cy="1026" r="3.8"/><circle cx="21.6" cy="1033" r="3.8"/><circle cx="25" cy="1021" r="3.8"/><circle cx="35" cy="1028" r="3.8"/><circle cx="13.7" cy="1017" r="3.8"/><circle cx="-.4" cy="1018" r="3.8"/><circle cx="43.6" cy="1018" r="3.8"/><circle cx="33" cy="1010" r="3.8"/><circle cx="33" cy="1054" r="3.8"/><circle cx="3.6" cy="1051" r="3.8"/><circle cx="3.6" cy="1007" r="3.8"/><circle cx="40" cy="1040" r="3.8"/><circle cx="-3.9" cy="1040" r="3.8"/><circle cx="19" cy="1049" r="3.8"/><circle cx="19" cy="1005" r="3.8"/><circle cx="47.6" cy="1051" r="3.8"/><circle cx="47.6" cy="1007" r="3.8"/></g></g></svg>